<?xml version="1.0" encoding="UTF-8"?>
<svg width="513px" height="414px" viewBox="0 0 513 414" version="1.1" xmlns="http://www.w3.org/2000/svg" xmlns:xlink="http://www.w3.org/1999/xlink">
    <!-- Generator: Sketch 48.2 (47327) - http://www.bohemiancoding.com/sketch -->
    <title>Group</title>
    <desc>Created with Sketch.</desc>
    <defs>
        <filter x="-0.5%" y="-0.6%" width="101.0%" height="101.8%" filterUnits="objectBoundingBox" id="filter-1">
            <feOffset dx="0" dy="2" in="SourceAlpha" result="shadowOffsetOuter1"></feOffset>
            <feGaussianBlur stdDeviation="2" in="shadowOffsetOuter1" result="shadowBlurOuter1"></feGaussianBlur>
            <feColorMatrix values="0 0 0 0 0.650085034   0 0 0 0 0.650085034   0 0 0 0 0.650085034  0 0 0 0.5 0" type="matrix" in="shadowBlurOuter1" result="shadowMatrixOuter1"></feColorMatrix>
            <feMerge>
                <feMergeNode in="shadowMatrixOuter1"></feMergeNode>
                <feMergeNode in="SourceGraphic"></feMergeNode>
            </feMerge>
        </filter>
        <polygon id="path-2" points="0 6.3708 0 0.7438 186.0829 0.7438 186.0829 6.3708"></polygon>
        <polygon id="path-4" points="2.13162821e-14 1.6053 2.13162821e-14 0.6053 205.3677 0.6053 205.3677 1.6053"></polygon>
        <polygon id="path-6" points="0 1.8492 0 0.8492 132.8395 0.8492 132.8395 1.8492 1.77635684e-14 1.8492"></polygon>
        <polygon id="path-8" points="0 7.2825 0 0.7525 100.4509 0.7525 100.4509 7.2825"></polygon>
        <polygon id="path-10" points="1.77635684e-14 1.6053 1.77635684e-14 0.6053 189.3677 0.6053 189.3677 1.6053"></polygon>
        <polygon id="path-12" points="0 0.1102 0 32.0512 2.0389 32.0512 2.0389 0.1102 1.77635684e-15 0.1102"></polygon>
        <polygon id="path-14" points="0 0.1102 0 32.0512 2.0389 32.0512 2.0389 0.1102 1.77635684e-15 0.1102"></polygon>
    </defs>
    <g id="10" stroke="none" stroke-width="1" fill="none" fill-rule="evenodd" transform="translate(-326.000000, -309.000000)">
        <g id="Screen" filter="url(#filter-1)" transform="translate(191.000000, 133.000000)">
            <g id="404-Page---V2">
                <g id="Content" transform="translate(139.000000, 179.000000)">
                    <g id="Group">
                        <g id="Graphic---Wickets" transform="translate(251.500000, 221.000000) scale(1, -1) translate(-251.500000, -221.000000) translate(0.000000, 35.000000)">
                            <g id="Group-136" opacity="0.300000012" transform="translate(0.000000, 0.347000)">
                                <g id="Group-3" transform="translate(86.000000, 197.000000)" fill="#F2F2F2">
                                    <path d="M53.3027,0.1102 L0.6747,0.1102 L3.9027,22.3622 C4.7097,27.9242 9.4787,32.0512 15.0997,32.0512 L38.8777,32.0512 C44.4987,32.0512 49.2677,27.9242 50.0747,22.3622 L53.3027,0.1102 Z" id="Fill-1"></path>
                                </g>
                                <g id="Group-6" transform="translate(86.000000, 197.000000)" stroke="#000000" stroke-linecap="round" stroke-width="1.986">
                                    <path d="M53.3027,0.1102 L0.6747,0.1102 L3.9027,22.3622 C4.7097,27.9242 9.4787,32.0512 15.0997,32.0512 L38.8777,32.0512 C44.4987,32.0512 49.2677,27.9242 50.0747,22.3622 L53.3027,0.1102 Z" id="Stroke-4"></path>
                                </g>
                                <g id="Group-9" transform="translate(101.000000, 219.000000)" stroke="#FFFFFF" stroke-linecap="round" stroke-width="3">
                                    <path d="M0.3677,0.1053 L24.3677,0.1053" id="Stroke-7"></path>
                                </g>
                                <g id="Group-12" transform="translate(166.000000, 197.000000)" fill="#F2F2F2">
                                    <path d="M53.1708,0.1102 L0.5428,0.1102 L3.7708,22.3622 C4.5778,27.9242 9.3468,32.0512 14.9678,32.0512 L38.7458,32.0512 C44.3668,32.0512 49.1358,27.9242 49.9428,22.3622 L53.1708,0.1102 Z" id="Fill-10"></path>
                                </g>
                                <g id="Group-15" transform="translate(166.000000, 197.000000)" stroke="#000000" stroke-linecap="round" stroke-width="1.986">
                                    <path d="M53.1708,0.1102 L0.5428,0.1102 L3.7708,22.3622 C4.5778,27.9242 9.3468,32.0512 14.9678,32.0512 L38.7458,32.0512 C44.3668,32.0512 49.1358,27.9242 49.9428,22.3622 L53.1708,0.1102 Z" id="Stroke-13"></path>
                                </g>
                                <g id="Group-18" transform="translate(181.000000, 219.000000)" stroke="#FFFFFF" stroke-linecap="round" stroke-width="3">
                                    <path d="M0.3677,0.1053 L24.3677,0.1053" id="Stroke-16"></path>
                                </g>
                                <g id="Group-21" transform="translate(246.000000, 197.000000)" fill="#F2F2F2">
                                    <path d="M53.0389,0.1102 L0.4109,0.1102 L3.6389,22.3622 C4.4459,27.9242 9.2149,32.0512 14.8359,32.0512 L38.6139,32.0512 C44.2349,32.0512 49.0039,27.9242 49.8109,22.3622 L53.0389,0.1102 Z" id="Fill-19"></path>
                                </g>
                                <g id="Group-24" transform="translate(246.000000, 197.000000)" stroke="#000000" stroke-linecap="round" stroke-width="1.986">
                                    <path d="M53.0389,0.1102 L0.4109,0.1102 L3.6389,22.3622 C4.4459,27.9242 9.2149,32.0512 14.8359,32.0512 L38.6139,32.0512 C44.2349,32.0512 49.0039,27.9242 49.8109,22.3622 L53.0389,0.1102 Z" id="Stroke-22"></path>
                                </g>
                                <g id="Group-27" transform="translate(261.000000, 219.000000)" stroke="#FFFFFF" stroke-linecap="round" stroke-width="3">
                                    <path d="M0.3677,0.1053 L24.3677,0.1053" id="Stroke-25"></path>
                                </g>
                                <g id="Group-30" transform="translate(326.000000, 197.000000)" fill="#F2F2F2">
                                    <path d="M52.907,0.1102 L0.279,0.1102 L3.507,22.3622 C4.314,27.9242 9.083,32.0512 14.704,32.0512 L38.482,32.0512 C44.103,32.0512 48.872,27.9242 49.679,22.3622 L52.907,0.1102 Z" id="Fill-28"></path>
                                </g>
                                <g id="Group-33" transform="translate(326.000000, 197.000000)" stroke="#000000" stroke-linecap="round" stroke-width="1.986">
                                    <path d="M52.907,0.1102 L0.279,0.1102 L3.507,22.3622 C4.314,27.9242 9.083,32.0512 14.704,32.0512 L38.482,32.0512 C44.103,32.0512 48.872,27.9242 49.679,22.3622 L52.907,0.1102 Z" id="Stroke-31"></path>
                                </g>
                                <g id="Group-36" transform="translate(341.000000, 219.000000)" stroke="#FFFFFF" stroke-linecap="round" stroke-width="3">
                                    <path d="M0.3677,0.1053 L24.3677,0.1053" id="Stroke-34"></path>
                                </g>
                                <g id="Group-39" transform="translate(251.000000, 106.000000)">
                                    <mask id="mask-3" fill="white">
                                        <use xlink:href="#path-2"></use>
                                    </mask>
                                    <g id="Clip-38"></g>
                                    <path d="M180.4559,6.3708 L-215.0061,6.3708 C-218.1141,6.3708 -220.6331,3.8518 -220.6331,0.7438 L186.0829,0.7438 C186.0829,3.8518 183.5639,6.3708 180.4559,6.3708" id="Fill-37" fill="#DDDDDD" mask="url(#mask-3)"></path>
                                </g>
                                <g id="Group-42" transform="translate(0.000000, 196.000000)" stroke="#000000" stroke-linecap="round" stroke-width="2">
                                    <path d="M0.3677,0.6053 L468.3677,0.6053" id="Stroke-40"></path>
                                </g>
                                <g id="Group-45" transform="translate(251.000000, 152.000000)">
                                    <mask id="mask-5" fill="white">
                                        <use xlink:href="#path-4"></use>
                                    </mask>
                                    <g id="Clip-44"></g>
                                    <path d="M-239.6323,0.6053 L205.3677,0.6053" id="Stroke-43" stroke="#000000" stroke-width="2" stroke-linecap="round" mask="url(#mask-5)"></path>
                                </g>
                                <g id="Group-48" transform="translate(251.000000, 52.000000)">
                                    <mask id="mask-7" fill="white">
                                        <use xlink:href="#path-6"></use>
                                    </mask>
                                    <g id="Clip-47"></g>
                                    <path d="M132.8395,0.8492 L-198.4965,0.8492" id="Stroke-46" stroke="#000000" stroke-width="2" stroke-linecap="round" mask="url(#mask-7)"></path>
                                </g>
                                <path d="M408.2451,52.9778 L391.1411,52.9778" id="Stroke-49" stroke="#000000" stroke-width="2" stroke-linecap="round"></path>
                                <path d="M414.9459,52.9778 L414.5929,52.9778" id="Stroke-51" stroke="#000000" stroke-width="2" stroke-linecap="round"></path>
                                <g id="Group-55" transform="translate(115.000000, 39.000000)" stroke="#000000" stroke-linecap="round" stroke-width="2">
                                    <path d="M1.0865,0.7525 L0.9985,0.7525" id="Stroke-53"></path>
                                </g>
                                <g id="Group-58" transform="translate(121.000000, 39.000000)" stroke="#000000" stroke-linecap="round" stroke-width="2">
                                    <path d="M80.9181,0.7525 L0.9921,0.7525" id="Stroke-56"></path>
                                </g>
                                <g id="Group-61" transform="translate(251.000000, 39.000000)">
                                    <mask id="mask-9" fill="white">
                                        <use xlink:href="#path-8"></use>
                                    </mask>
                                    <g id="Clip-60"></g>
                                    <path d="M-40.7941,0.7525 L53.2909,0.7525 L56.7109,0.7525 L56.7109,0.9935 C56.7109,4.4665 59.5269,7.2825 62.9999,7.2825 C66.4729,7.2825 69.2889,4.4665 69.2889,0.9935 L69.2889,0.7525 L72.7089,0.7525 L100.4509,0.7525" id="Stroke-59" stroke="#000000" stroke-width="2" stroke-linecap="round" stroke-linejoin="round" mask="url(#mask-9)"></path>
                                </g>
                                <g id="Group-64" transform="translate(251.000000, 106.000000)">
                                    <mask id="mask-11" fill="white">
                                        <use xlink:href="#path-10"></use>
                                    </mask>
                                    <g id="Clip-63"></g>
                                    <path d="M-183.6323,0.6053 L189.3677,0.6053" id="Stroke-62" stroke="#000000" stroke-width="2" stroke-linecap="round" mask="url(#mask-11)"></path>
                                </g>
                                <g id="Group-67" transform="translate(27.000000, 106.000000)" stroke="#000000" stroke-linecap="round" stroke-width="2">
                                    <path d="M0.3677,0.6053 L31.3677,0.6053" id="Stroke-65"></path>
                                </g>
                                <path d="M501.673,0.8262 C502.951,0.8262 502.953,2.8122 501.673,2.8122 C500.395,2.8122 500.393,0.8262 501.673,0.8262" id="Fill-68" fill="#DDDDDD"></path>
                                <g id="Group-72" transform="translate(105.000000, 287.000000)" stroke="#000000" stroke-linecap="round" stroke-width="2.116">
                                    <path d="M0.4725,6.0564 C1.1505,8.3264 3.5405,9.6174 5.8105,8.9404 C8.0805,8.2624 9.3715,5.8724 8.6935,3.6024 C8.0165,1.3314 5.6265,0.0404 3.3565,0.7184" id="Stroke-70"></path>
                                </g>
                                <g id="Group-75" transform="translate(120.000000, 297.000000)" stroke="#000000" stroke-linecap="round" stroke-width="0.962">
                                    <path d="M0.9502,0.2231 C0.1312,0.9231 0.0342,2.1541 0.7342,2.9731 C1.4332,3.7921 2.6652,3.8891 3.4842,3.1901 C4.3032,2.4901 4.4002,1.2591 3.7002,0.4391" id="Stroke-73"></path>
                                </g>
                                <g id="Group-78" transform="translate(325.000000, 264.000000)" stroke="#000000" stroke-linecap="round" stroke-width="2.116">
                                    <path d="M4.5108,0.5221 C2.1438,0.6311 0.3138,2.6391 0.4238,5.0051 C0.5328,7.3721 2.5398,9.2021 4.9068,9.0931 C7.2738,8.9841 9.1038,6.9761 8.9938,4.6091" id="Stroke-76"></path>
                                </g>
                                <g id="Group-81" transform="translate(40.000000, 153.000000)" fill="#F2F2F2">
                                    <path d="M53.3027,0.1102 L0.6747,0.1102 L3.9027,22.3622 C4.7097,27.9242 9.4787,32.0512 15.0997,32.0512 L38.8777,32.0512 C44.4987,32.0512 49.2677,27.9242 50.0747,22.3622 L53.3027,0.1102 Z" id="Fill-79"></path>
                                </g>
                                <g id="Group-84" transform="translate(40.000000, 153.000000)" stroke="#000000" stroke-linecap="round" stroke-width="1.986">
                                    <path d="M53.3027,0.1102 L0.6747,0.1102 L3.9027,22.3622 C4.7097,27.9242 9.4787,32.0512 15.0997,32.0512 L38.8777,32.0512 C44.4987,32.0512 49.2677,27.9242 50.0747,22.3622 L53.3027,0.1102 Z" id="Stroke-82"></path>
                                </g>
                                <g id="Group-87" transform="translate(55.000000, 175.000000)" stroke="#FFFFFF" stroke-linecap="round" stroke-width="3">
                                    <path d="M0.3677,0.1053 L24.3677,0.1053" id="Stroke-85"></path>
                                </g>
                                <g id="Group-90" transform="translate(120.000000, 153.000000)" fill="#F2F2F2">
                                    <path d="M53.1708,0.1102 L0.5428,0.1102 L3.7708,22.3622 C4.5778,27.9242 9.3468,32.0512 14.9678,32.0512 L38.7458,32.0512 C44.3668,32.0512 49.1358,27.9242 49.9428,22.3622 L53.1708,0.1102 Z" id="Fill-88"></path>
                                </g>
                                <g id="Group-93" transform="translate(120.000000, 153.000000)" stroke="#000000" stroke-linecap="round" stroke-width="1.986">
                                    <path d="M53.1708,0.1102 L0.5428,0.1102 L3.7708,22.3622 C4.5778,27.9242 9.3468,32.0512 14.9678,32.0512 L38.7458,32.0512 C44.3668,32.0512 49.1358,27.9242 49.9428,22.3622 L53.1708,0.1102 Z" id="Stroke-91"></path>
                                </g>
                                <g id="Group-96" transform="translate(135.000000, 175.000000)" stroke="#FFFFFF" stroke-linecap="round" stroke-width="3">
                                    <path d="M0.3677,0.1053 L24.3677,0.1053" id="Stroke-94"></path>
                                </g>
                                <g id="Group-99" transform="translate(251.000000, 153.000000)">
                                    <mask id="mask-13" fill="white">
                                        <use xlink:href="#path-12"></use>
                                    </mask>
                                    <g id="Clip-98"></g>
                                    <path d="M2.0389,0.1102 L-50.5891,0.1102 L-47.3611,22.3622 C-46.5541,27.9242 -41.7851,32.0512 -36.1641,32.0512 L-12.3861,32.0512 C-6.7651,32.0512 -1.9961,27.9242 -1.1891,22.3622 L2.0389,0.1102 Z" id="Fill-97" fill="#F2F2F2" mask="url(#mask-13)"></path>
                                </g>
                                <g id="Group-102" transform="translate(251.000000, 153.000000)">
                                    <mask id="mask-15" fill="white">
                                        <use xlink:href="#path-14"></use>
                                    </mask>
                                    <g id="Clip-101"></g>
                                    <path d="M2.0389,0.1102 L-50.5891,0.1102 L-47.3611,22.3622 C-46.5541,27.9242 -41.7851,32.0512 -36.1641,32.0512 L-12.3861,32.0512 C-6.7651,32.0512 -1.9961,27.9242 -1.1891,22.3622 L2.0389,0.1102 Z" id="Stroke-100" stroke="#000000" stroke-width="1.986" stroke-linecap="round" mask="url(#mask-15)"></path>
                                </g>
                                <g id="Group-105" transform="translate(215.000000, 175.000000)" stroke="#FFFFFF" stroke-linecap="round" stroke-width="3">
                                    <path d="M0.3677,0.1053 L24.3677,0.1053" id="Stroke-103"></path>
                                </g>
                                <path d="M332.907,153.1102 L280.279,153.1102 L283.507,175.3622 C284.314,180.9242 289.083,185.0512 294.704,185.0512 L318.482,185.0512 C324.103,185.0512 328.872,180.9242 329.679,175.3622 L332.907,153.1102 Z" id="Fill-106" fill="#F2F2F2"></path>
                                <path d="M332.907,153.1102 L280.279,153.1102 L283.507,175.3622 C284.314,180.9242 289.083,185.0512 294.704,185.0512 L318.482,185.0512 C324.103,185.0512 328.872,180.9242 329.679,175.3622 L332.907,153.1102 Z" id="Stroke-108" stroke="#000000" stroke-width="1.986" stroke-linecap="round"></path>
                                <path d="M295.3677,175.1053 L319.3677,175.1053" id="Stroke-110" stroke="#FFFFFF" stroke-width="3" stroke-linecap="round"></path>
                                <path d="M412.7751,153.1102 L360.1471,153.1102 L363.3751,175.3622 C364.1821,180.9242 368.9511,185.0512 374.5721,185.0512 L398.3501,185.0512 C403.9711,185.0512 408.7401,180.9242 409.5471,175.3622 L412.7751,153.1102 Z" id="Fill-112" fill="#F2F2F2"></path>
                                <path d="M412.7751,153.1102 L360.1471,153.1102 L363.3751,175.3622 C364.1821,180.9242 368.9511,185.0512 374.5721,185.0512 L398.3501,185.0512 C403.9711,185.0512 408.7401,180.9242 409.5471,175.3622 L412.7751,153.1102 Z" id="Stroke-114" stroke="#000000" stroke-width="1.986" stroke-linecap="round"></path>
                                <path d="M374.3677,175.1053 L399.3677,175.1053" id="Stroke-116" stroke="#FFFFFF" stroke-width="3" stroke-linecap="round"></path>
                                <g id="Group-120" transform="translate(10.000000, 259.000000)" stroke="#000000" stroke-linecap="round" stroke-width="2">
                                    <path d="M6.3005,0.2112 L0.9065,0.2112" id="Stroke-118"></path>
                                </g>
                                <g id="Group-123" transform="translate(21.000000, 259.000000)" stroke="#000000" stroke-linecap="round" stroke-width="2">
                                    <path d="M0.3185,0.2112 L9.8535,0.2112 L9.8535,5.7212 C9.8535,13.2732 15.9755,19.3962 23.5275,19.3962 C29.1645,19.3962 34.0055,15.9842 36.0975,11.1132 C36.8085,9.4592 37.2015,7.6362 37.2015,5.7212 L37.7135,5.7212 C40.7565,5.7212 43.2235,3.2542 43.2235,0.2112 L49.7475,0.2112" id="Stroke-121"></path>
                                </g>
                                <g id="Group-126" transform="translate(33.000000, 263.000000)" fill="#D9A4FF">
                                    <path d="M11.6833,12.6366 C5.7193,12.6366 0.8843,7.8016 0.8843,1.8376 L0.8843,0.7206 L22.4823,0.7206 L22.4823,1.8376 C22.4823,7.8016 17.6473,12.6366 11.6833,12.6366" id="Fill-124"></path>
                                </g>
                                <g id="Group-129" transform="translate(394.000000, 241.000000)" stroke="#000000" stroke-linecap="round" stroke-width="2">
                                    <path d="M4.3034,0.4012 L0.8024,0.4012" id="Stroke-127"></path>
                                </g>
                                <g id="Group-132" transform="translate(401.000000, 241.000000)" stroke="#000000" stroke-linecap="round" stroke-width="2">
                                    <path d="M0.56,0.4012 L6.748,0.4012 L6.748,3.9772 C6.748,8.8782 10.721,12.8522 15.622,12.8522 C19.281,12.8522 22.423,10.6382 23.78,7.4772 C24.242,6.4032 24.497,5.2202 24.497,3.9772 L24.829,3.9772 C26.804,3.9772 28.405,2.3762 28.405,0.4012 L32.639,0.4012" id="Stroke-130"></path>
                                </g>
                                <g id="Group-135" transform="translate(409.000000, 243.000000)" fill="#D9A4FF">
                                    <path d="M7.4893,8.6097 C3.6353,8.6097 0.5113,5.4857 0.5113,1.6317 L0.5113,0.9097 L14.4673,0.9097 L14.4673,1.6317 C14.4673,5.4857 11.3433,8.6097 7.4893,8.6097" id="Fill-133"></path>
                                </g>
                            </g>
                            <path d="M202.6667,370.6932 L201.6137,369.8082 C200.6727,370.9272 199.0027,371.0712 197.8827,370.1292 L184.7117,359.0502 C183.5927,358.1082 183.4487,356.4382 184.3897,355.3192 L183.3767,354.4672 C182.1707,353.4522 181.8607,351.6562 182.7827,350.3782 C183.8277,348.9302 185.8217,348.7382 187.1597,349.8632 L188.2257,350.7602 C189.1667,349.6412 190.8367,349.4962 191.9557,350.4382 L205.1277,361.5172 C206.2467,362.4592 206.3907,364.1292 205.4497,365.2482 L206.5547,366.1782 C207.8927,367.3032 208.0447,369.3002 206.7967,370.5782 C205.6957,371.7062 203.8727,371.7082 202.6667,370.6932" id="Fill-137" fill="#FFFFFF"></path>
                            <path d="M202.6667,370.6932 L201.6137,369.8082 C200.6727,370.9272 199.0027,371.0712 197.8827,370.1292 L184.7117,359.0502 C183.5927,358.1082 183.4487,356.4382 184.3897,355.3192 L183.3767,354.4672 C182.1707,353.4522 181.8607,351.6562 182.7827,350.3782 C183.8277,348.9302 185.8217,348.7382 187.1597,349.8632 L188.2257,350.7602 C189.1667,349.6412 190.8367,349.4962 191.9557,350.4382 L205.1277,361.5172 C206.2467,362.4592 206.3907,364.1292 205.4497,365.2482 L206.5547,366.1782 C207.8927,367.3032 208.0447,369.3002 206.7967,370.5782 C205.6957,371.7062 203.8727,371.7082 202.6667,370.6932 Z" id="Stroke-140" stroke="#D9A4FF" stroke-width="4.161" stroke-linecap="round" stroke-linejoin="round"></path>
                            <path d="M304.6143,333.7663 L303.3053,334.1903 C303.7563,335.5813 302.9933,337.0743 301.6023,337.5243 L285.2273,342.8263 C283.8353,343.2763 282.3423,342.5133 281.8923,341.1223 L280.6333,341.5303 C279.1333,342.0153 277.4463,341.3273 276.8503,339.8673 C276.1763,338.2143 277.0693,336.4213 278.7323,335.8833 L280.0573,335.4543 C279.6073,334.0623 280.3693,332.5693 281.7613,332.1193 L298.1363,326.8183 C299.5273,326.3673 301.0203,327.1303 301.4703,328.5213 L302.8453,328.0773 C304.5083,327.5383 306.2823,328.4673 306.7053,330.2023 C307.0773,331.7343 306.1133,333.2813 304.6143,333.7663" id="Fill-143" fill="#FFFFFF"></path>
                            <path d="M304.6143,333.7663 L303.3053,334.1903 C303.7563,335.5813 302.9933,337.0743 301.6023,337.5243 L285.2273,342.8263 C283.8353,343.2763 282.3423,342.5133 281.8923,341.1223 L280.6333,341.5303 C279.1333,342.0153 277.4463,341.3273 276.8503,339.8673 C276.1763,338.2143 277.0693,336.4213 278.7323,335.8833 L280.0573,335.4543 C279.6073,334.0623 280.3693,332.5693 281.7613,332.1193 L298.1363,326.8183 C299.5273,326.3673 301.0203,327.1303 301.4703,328.5213 L302.8453,328.0773 C304.5083,327.5383 306.2823,328.4673 306.7053,330.2023 C307.0773,331.7343 306.1133,333.2813 304.6143,333.7663 Z" id="Stroke-146" stroke="#D9A4FF" stroke-width="4.161" stroke-linecap="round" stroke-linejoin="round"></path>
                            <path d="M197.9637,103.7738 L185.0847,102.0948 C182.7377,101.7888 180.5857,103.4438 180.2797,105.7918 L152.5717,318.3508 C152.0447,322.3908 154.8927,326.0928 158.9327,326.6188 L165.6847,327.4988 C169.7237,328.0258 173.4257,325.1778 173.9527,321.1378 L201.6607,108.5788 C201.9667,106.2308 200.3117,104.0798 197.9637,103.7738" id="Fill-149" fill="#FFFFFF"></path>
                            <polygon id="Stroke-152" stroke="#D9A4FF" stroke-width="4.161" stroke-linecap="round" stroke-linejoin="round" points="200.4981 104.9335 195.1941 76.4075 182.7551 102.6205"></polygon>
                            <path d="M197.9637,103.7738 L185.0847,102.0948 C182.7377,101.7888 180.5857,103.4438 180.2797,105.7918 L152.5717,318.3508 C152.0447,322.3908 154.8927,326.0928 158.9327,326.6188 L165.6847,327.4988 C169.7237,328.0258 173.4257,325.1778 173.9527,321.1378 L201.6607,108.5788 C201.9667,106.2308 200.3117,104.0798 197.9637,103.7738" id="Fill-155" fill="#F1E6FF"></path>
                            <path d="M165.7495,327.3833 L160.1225,326.6503 C164.1625,327.1763 167.8675,324.4533 168.3935,320.4133 L196.1025,107.8543 C196.4085,105.5063 194.7135,103.5123 192.3655,103.2063 L197.9925,103.9393 C200.3405,104.2453 202.3155,106.2763 202.0095,108.6243 L174.3015,321.1833 C173.7745,325.2233 169.7895,327.9103 165.7495,327.3833" id="Fill-158" fill="#FFFFFF"></path>
                            <path d="M197.9637,103.7738 L185.0847,102.0948 C182.7377,101.7888 180.5857,103.4438 180.2797,105.7918 L152.5717,318.3508 C152.0447,322.3908 154.8927,326.0928 158.9327,326.6188 L165.6847,327.4988 C169.7237,328.0258 173.4257,325.1778 173.9527,321.1378 L201.6607,108.5788 C201.9667,106.2308 200.3117,104.0798 197.9637,103.7738 Z" id="Stroke-161" stroke="#D9A4FF" stroke-width="4.161" stroke-linecap="round" stroke-linejoin="round"></path>
                            <path d="M227.7556,128.078 L214.8586,129.607 C212.5066,129.885 210.8266,132.017 211.1056,134.369 L236.3366,347.236 C236.8156,351.281 240.4846,354.172 244.5296,353.693 L251.2916,352.891 C255.3366,352.412 258.2276,348.744 257.7486,344.698 L232.5176,131.831 C232.2386,129.479 230.1066,127.799 227.7556,128.078" id="Fill-164" fill="#FFFFFF"></path>
                            <polygon id="Stroke-167" stroke="#D9A4FF" stroke-width="4.161" stroke-linecap="round" stroke-linejoin="round" points="230.4969 128.5812 218.3639 102.2252 212.7279 130.6872"></polygon>
                            <path d="M227.7556,128.078 L214.8586,129.607 C212.5066,129.885 210.8266,132.017 211.1056,134.369 L236.3366,347.236 C236.8156,351.281 240.4846,354.172 244.5296,353.693 L251.2916,352.891 C255.3366,352.412 258.2276,348.744 257.7486,344.698 L232.5176,131.831 C232.2386,129.479 230.1066,127.799 227.7556,128.078" id="Fill-170" fill="#F1E6FF"></path>
                            <path d="M251.3262,352.7631 L245.6912,353.4311 C249.7372,352.9511 252.6612,349.4031 252.1812,345.3581 L226.9512,132.4901 C226.6722,130.1391 224.5402,128.6211 222.1892,128.8991 L227.8242,128.2311 C230.1752,127.9531 232.5882,129.4381 232.8672,131.7891 L258.0982,344.6561 C258.5772,348.7021 255.3722,352.2831 251.3262,352.7631" id="Fill-173" fill="#FFFFFF"></path>
                            <path d="M227.7556,128.078 L214.8586,129.607 C212.5066,129.885 210.8266,132.017 211.1056,134.369 L236.3366,347.236 C236.8156,351.281 240.4846,354.172 244.5296,353.693 L251.2916,352.891 C255.3366,352.412 258.2276,348.744 257.7486,344.698 L232.5176,131.831 C232.2386,129.479 230.1066,127.799 227.7556,128.078 Z" id="Stroke-176" stroke="#D9A4FF" stroke-width="4.161" stroke-linecap="round" stroke-linejoin="round"></path>
                            <path d="M269.8293,88.362 L256.8623,89.095 C254.4983,89.229 252.6903,91.253 252.8243,93.617 L264.9213,307.633 C265.1513,311.7 268.6353,314.811 272.7023,314.581 L279.5013,314.197 C283.5683,313.967 286.6793,310.483 286.4493,306.416 L274.3513,92.4 C274.2183,90.036 272.1933,88.228 269.8293,88.362" id="Fill-179" fill="#FFFFFF"></path>
                            <polygon id="Stroke-182" stroke="#D9A4FF" stroke-width="4.161" stroke-linecap="round" stroke-linejoin="round" points="272.5346 89.0328 262.0446 61.9808 254.6696 90.0428"></polygon>
                            <path d="M269.8293,88.362 L256.8623,89.095 C254.4983,89.229 252.6903,91.253 252.8243,93.617 L264.9213,307.633 C265.1513,311.7 268.6353,314.811 272.7023,314.581 L279.5013,314.197 C283.5683,313.967 286.6793,310.483 286.4493,306.416 L274.3513,92.4 C274.2183,90.036 272.1933,88.228 269.8293,88.362" id="Fill-184" fill="#F1E6FF"></path>
                            <path d="M279.5435,314.0711 L273.8785,314.3911 C277.9455,314.1611 281.0825,310.8001 280.8525,306.7321 L268.7545,92.7171 C268.6215,90.3531 266.5865,88.7061 264.2225,88.8391 L269.8885,88.5191 C272.2515,88.3861 274.5695,90.0161 274.7035,92.3801 L286.8005,306.3961 C287.0305,310.4631 283.6105,313.8411 279.5435,314.0711" id="Fill-187" fill="#FFFFFF"></path>
                            <path d="M269.8293,88.362 L256.8623,89.095 C254.4983,89.229 252.6903,91.253 252.8243,93.617 L264.9213,307.633 C265.1513,311.7 268.6353,314.811 272.7023,314.581 L279.5013,314.197 C283.5683,313.967 286.6793,310.483 286.4493,306.416 L274.3513,92.4 C274.2183,90.036 272.1933,88.228 269.8293,88.362 Z" id="Stroke-190" stroke="#D9A4FF" stroke-width="4.161" stroke-linecap="round" stroke-linejoin="round"></path>
                            <path d="M206.9726,274.5452 C212.6236,283.0182 224.0746,285.3062 232.5476,279.6552 C241.0206,274.0032 243.3086,262.5532 237.6566,254.0802 C232.0056,245.6072 220.5556,243.3192 212.0826,248.9702 C203.6086,254.6212 201.3216,266.0722 206.9726,274.5452" id="Fill-193" fill="#FFFFFF"></path>
                            <path d="M206.9726,274.5452 C212.6236,283.0182 224.0746,285.3062 232.5476,279.6552 C241.0206,274.0032 243.3086,262.5532 237.6566,254.0802 C232.0056,245.6072 220.5556,243.3192 212.0826,248.9702 C203.6086,254.6212 201.3216,266.0722 206.9726,274.5452 Z" id="Stroke-196" stroke="#000000" stroke-width="2" stroke-linecap="round" stroke-linejoin="round"></path>
                            <path d="M207.382,254.0805 C205.369,259.4475 205.874,265.6705 209.297,270.8035 C214.949,279.2775 226.399,281.5645 234.872,275.9135 C236.854,274.5915 238.492,272.9505 239.775,271.1065 C238.465,274.5995 236.09,277.7305 232.75,279.9585 C224.276,285.6095 212.826,283.3215 207.175,274.8485 C202.845,268.3565 203.18,260.1205 207.382,254.0805" id="Fill-199" fill="#F1E6FF"></path>
                            <path d="M209.7922,250.7724 C213.7842,248.5674 236.6362,256.2214 235.2892,277.4214" id="Stroke-202" stroke="#D9A4FF" stroke-width="2.6" stroke-linecap="round" stroke-linejoin="round"></path>
                            <path d="M207.4671,253.1995 C211.4591,250.9945 234.3111,258.6485 232.9641,279.8485" id="Stroke-205" stroke="#E4C5FF" stroke-width="0.867" stroke-linecap="round" stroke-linejoin="round" stroke-dasharray="6.501,4.767"></path>
                            <path d="M212.0162,248.8509 C216.0082,246.6459 238.8602,254.2999 237.5132,275.4999" id="Stroke-208" stroke="#E4C5FF" stroke-width="0.867" stroke-linecap="round" stroke-linejoin="round" stroke-dasharray="6.501,4.767"></path>
                            <path d="M206.9726,274.5452 C212.6236,283.0182 224.0746,285.3062 232.5476,279.6552 C241.0206,274.0032 243.3086,262.5532 237.6566,254.0802 C232.0056,245.6072 220.5556,243.3192 212.0826,248.9702 C203.6086,254.6212 201.3216,266.0722 206.9726,274.5452 Z" id="Stroke-211" stroke="#D9A4FF" stroke-width="4.07" stroke-linecap="round" stroke-linejoin="round"></path>
                        </g>
                        <path d="M398.001864,53.0561849 L390.422409,53.0561849 L390.422409,67.4756359 L377.528092,67.4756359 L377.528092,53.0561849 L351,53.0561849 L351,41.5483539 L375.633229,0.87810759 L390.422409,0.87810759 L390.422409,42.7499748 L398.001864,42.7499748 L398.001864,53.0561849 Z M377.528092,42.7499748 L377.528092,13.8186405 L360.751616,42.7499748 L377.528092,42.7499748 Z M419.446176,52.2936178 C420.709425,56.3760683 423.297505,58.4172629 427.210496,58.4172629 C431.123486,58.4172629 433.688459,56.3760683 434.905491,52.2936178 C436.122523,48.2111674 436.731031,42.3186622 436.731031,34.6159255 C436.731031,26.5434575 436.122523,20.5662235 434.905491,16.6840442 C433.688459,12.8018649 431.123486,10.8608044 427.210496,10.8608044 C423.297505,10.8608044 420.709425,12.8018649 419.446176,16.6840442 C418.182927,20.5662235 417.551312,26.5434575 417.551312,34.6159255 C417.551312,42.3186622 418.182927,48.2111674 419.446176,52.2936178 Z M445.165485,9.01215685 C448.600906,15.0202915 450.31859,23.5547957 450.31859,34.6159255 C450.31859,45.6770554 448.600906,54.1961544 445.165485,60.173478 C441.730064,66.1508017 435.745128,69.1394187 427.210496,69.1394187 C418.675863,69.1394187 412.690927,66.1508017 409.255506,60.173478 C405.820086,54.1961544 404.102401,45.6770554 404.102401,34.6159255 C404.102401,23.5547957 405.820086,15.0202915 409.255506,9.01215685 C412.690927,3.00402224 418.675863,0 427.210496,0 C435.745128,0 441.730064,3.00402224 445.165485,9.01215685 Z M503.282343,53.0561849 L495.702888,53.0561849 L495.702888,67.4756359 L482.808571,67.4756359 L482.808571,53.0561849 L456.280478,53.0561849 L456.280478,41.5483539 L480.913707,0.87810759 L495.702888,0.87810759 L495.702888,42.7499748 L503.282343,42.7499748 L503.282343,53.0561849 Z M482.808571,42.7499748 L482.808571,13.8186405 L466.032094,42.7499748 L482.808571,42.7499748 Z" id="404" stroke="#D9A4FF" stroke-width="2" fill="#F1E6FF"></path>
                    </g>
                </g>
            </g>
        </g>
    </g>
</svg>