<?xml version="1.0" encoding="UTF-8"?>
<svg width="13px" height="20px" viewBox="0 0 13 20" version="1.1" xmlns="http://www.w3.org/2000/svg" xmlns:xlink="http://www.w3.org/1999/xlink">
    <!-- Generator: Sketch 48.2 (47327) - http://www.bohemiancoding.com/sketch -->
    <title>ic_avatar</title>
    <desc>Created with Sketch.</desc>
    <defs></defs>
    <g id="02" stroke="none" stroke-width="1" fill="none" fill-rule="evenodd" transform="translate(-145.000000, -107.000000)">
        <g id="ic_avatar" transform="translate(139.000000, 104.000000)">
            <g id="Group" transform="translate(1.000000, 1.000000)">
                <g id="Group-38" transform="translate(11.500000, 13.888889) scale(1, -1) translate(-11.500000, -13.888889) translate(6.000000, 1.888889)">
                    <polygon id="Fill-1" fill="#FFF6EC" points="3.62429874 8.55319672 7.09861501 8.55319672 7.09861501 4.42759563 3.62429874 4.42759563"></polygon>
                    <polygon id="Stroke-3" stroke="#D7B896" stroke-width="0.550000012" stroke-linecap="round" stroke-linejoin="round" points="3.62429874 8.55319672 7.09861501 8.55319672 7.09861501 4.42759563 3.62429874 4.42759563"></polygon>
                    <g id="Group-6" transform="translate(0.788920, 13.866120)">
                        <polyline id="Fill-4" fill="#606060" points="0.0132801543 3.29933333 0.425533349 0.0479672131 8.72026398 0.0479672131 9.13179348 4.9728306"></polyline>
                        <polyline id="Stroke-5" stroke="#515151" stroke-width="0.550000012" points="0.0132801543 3.29933333 0.350954042 0.0479672131 8.7795243 0.0479672131 9.13179348 4.9728306"></polyline>
                    </g>
                    <path d="M1.20089411,11.9777459 L1.47456171,11.8803962 L1.47456171,14.2772268 L0.829663394,14.2772268 C0.426086957,14.2772268 0.107187938,13.9036066 0.135852034,13.4643852 C0.180732819,12.7786339 0.601840813,12.1909016 1.20089411,11.9777459" id="Fill-7" fill="#FFF6EC"></path>
                    <path d="M1.20089411,11.9777459 L1.47456171,11.8803962 L1.47456171,14.2772268 L0.829663394,14.2772268 C0.426086957,14.2772268 0.107187938,13.9036066 0.135852034,13.4643852 C0.180732819,12.7786339 0.601840813,12.1909016 1.20089411,11.9777459 Z" id="Stroke-8" stroke="#D7B896" stroke-width="0.3" stroke-linecap="round" stroke-linejoin="round"></path>
                    <path d="M0.583046985,13.6184522 C0.583046985,13.6184522 1.07430355,13.8950096 1.10316824,12.7636298" id="Stroke-9" stroke="#D7B896" stroke-width="0.550000012" stroke-linecap="round" stroke-linejoin="round"></path>
                    <path d="M9.52415849,11.9777459 L9.25049088,11.8803962 L9.25049088,14.2772268 L9.8953892,14.2772268 C10.2989656,14.2772268 10.6178647,13.9036066 10.5892006,13.4643852 C10.5443198,12.7786339 10.1232118,12.1909016 9.52415849,11.9777459" id="Fill-10" fill="#FFF6EC"></path>
                    <path d="M9.52415849,11.9777459 L9.25049088,11.8803962 L9.25049088,14.2772268 L9.8953892,14.2772268 C10.2989656,14.2772268 10.6178647,13.9036066 10.5892006,13.4643852 C10.5443198,12.7786339 10.1232118,12.1909016 9.52415849,11.9777459 Z" id="Stroke-11" stroke="#D7B896" stroke-width="0.3" stroke-linecap="round" stroke-linejoin="round"></path>
                    <path d="M10.1708926,13.6184522 C10.1708926,13.6184522 9.67963608,13.8950096 9.65077139,12.7636298" id="Stroke-12" stroke="#D7B896" stroke-width="0.550000012" stroke-linecap="round" stroke-linejoin="round"></path>
                    <path d="M0.0468881487,0.000153005464 L2.15067496,0.000153005464 L2.15067496,6.02474317 L1.21562938,6.02474317 C0.570205119,6.02474317 0.0468881487,5.45384153 0.0468881487,4.74972951 L0.0468881487,0.000153005464 Z" id="Fill-13" fill="#FFFFFF"></path>
                    <path d="M0.0468881487,0.000153005464 L2.15067496,0.000153005464 L2.15067496,6.02474317 L1.21562938,6.02474317 C0.570205119,6.02474317 0.0468881487,5.45384153 0.0468881487,4.74972951 L0.0468881487,0.000153005464 Z" id="Stroke-14" stroke="#FF7BC0" stroke-width="0.3" stroke-linecap="round" stroke-linejoin="round"></path>
                    <path d="M10.8580119,0.000153005464 L8.75422511,0.000153005464 L8.75422511,6.02474317 L9.68927069,6.02474317 C10.334695,6.02474317 10.8580119,5.45384153 10.8580119,4.74972951 L10.8580119,0.000153005464 Z" id="Fill-15" fill="#FFFFFF"></path>
                    <path d="M10.8580119,0.000153005464 L8.75422511,0.000153005464 L8.75422511,6.02474317 L9.68927069,6.02474317 C10.334695,6.02474317 10.8580119,5.45384153 10.8580119,4.74972951 L10.8580119,0.000153005464 Z" id="Stroke-16" stroke="#FF7BC0" stroke-width="0.3" stroke-linecap="round" stroke-linejoin="round"></path>
                    <path d="M8.03210905,6.98102732 L9.58233696,6.02474317 L9.58233696,0.956437158 L1.21566445,0.956437158 L1.21566445,6.02474317 L2.92104663,6.98102732 L4.26010694,6.85556284 C4.26010694,6.85556284 4.86284187,5.94938798 5.51913569,4.47537158 C5.51913569,4.47537158 6.05411115,6.76519399 6.57961957,6.89104098 L8.03210905,6.98102732 Z" id="Fill-17" fill="#FFFFFF"></path>
                    <path d="M8.03210905,6.98102732 L9.58233696,6.02474317 L9.58233696,0.956437158 L1.21566445,0.956437158 L1.21566445,6.02474317 L2.92104663,6.98102732 L4.26010694,6.85556284 C4.26010694,6.85556284 4.86284187,5.94938798 5.51913569,4.47537158 C5.51913569,4.47537158 6.05411115,6.76519399 6.57961957,6.89104098 L8.03210905,6.98102732 Z" id="Stroke-18" stroke="#FF7BC0" stroke-width="0.3" stroke-linecap="round" stroke-linejoin="round"></path>
                    <path d="M3.00143759,5.15849317 L2.78956872,6.98097951 L3.6243338,8.07917623 L4.38932328,6.76514617 C3.58576438,6.72612978 3.00143759,5.15849317 3.00143759,5.15849317" id="Fill-19" fill="#FFD2EA"></path>
                    <path d="M3.00143759,5.15849317 L2.78956872,6.98097951 L3.6243338,8.07917623 L4.38932328,6.76514617 C3.58576438,6.72612978 3.00143759,5.15849317 3.00143759,5.15849317 Z" id="Stroke-20" stroke="#FF7BC0" stroke-width="0.3" stroke-linecap="round" stroke-linejoin="round"></path>
                    <path d="M7.7710554,5.15849317 L7.98292426,6.98097951 L7.14815919,8.07917623 L6.38316971,6.76514617 C7.18672861,6.72612978 7.7710554,5.15849317 7.7710554,5.15849317" id="Fill-21" fill="#FFD2EA"></path>
                    <path d="M7.7710554,5.15849317 L7.98292426,6.98097951 L7.14815919,8.07917623 L6.38316971,6.76514617 C7.18672861,6.72612978 7.7710554,5.15849317 7.7710554,5.15849317 Z" id="Stroke-22" stroke="#FF7BC0" stroke-width="0.3" stroke-linecap="round" stroke-linejoin="round"></path>
                    <path d="M5.43792952,2.86572541 C5.43792952,2.86572541 5.36149194,5.25806148 6.38314341,6.7651653" id="Stroke-23" stroke="#FF7BC0" stroke-width="0.3" stroke-linecap="round" stroke-linejoin="round"></path>
                    <path d="M4.38934958,6.76515574 C4.38934958,6.76515574 5.25996669,5.6322459 5.51917076,4.27556557" id="Stroke-24" stroke="#FF7BC0" stroke-width="0.3" stroke-linecap="round" stroke-linejoin="round"></path>
                    <path d="M6.58061886,8.08517213 L6.56922335,8.07790437 C5.81378857,7.59985792 4.88119741,7.60138798 4.12725281,8.08211202 C2.3996932,9.18327322 1.3378068,11.2019891 1.3378068,13.3847077 L1.3378068,18.6251448 L9.38514201,18.6251448 L9.38514201,13.3974262 C9.38514201,11.207918 8.31659362,9.18394262 6.58061886,8.08517213" id="Fill-25" fill="#FFF6EC"></path>
                    <path d="M4.51344385,11.7651557 C5.08874527,11.7651557 5.73884624,11.5224743 5.92341488,10.5203607" id="Stroke-24" stroke="#D7B896" stroke-width="0.2" stroke-linecap="round" stroke-linejoin="round" transform="translate(5.218429, 11.142758) rotate(220.000000) translate(-5.218429, -11.142758) "></path>
                    <path d="M6.58061886,8.08517213 L6.56922335,8.07790437 C5.81378857,7.59985792 4.88119741,7.60138798 4.12725281,8.08211202 C2.3996932,9.18327322 1.3378068,11.2019891 1.3378068,13.3847077 L1.3378068,18.6251448 L9.38514201,18.6251448 L9.38514201,13.3974262 C9.38514201,11.207918 8.31659362,9.18394262 6.58061886,8.08517213 Z" id="Stroke-26" stroke="#D7B896" stroke-width="0.3" stroke-linecap="round" stroke-linejoin="round"></path>
                    <path d="M3.91843443,14.165112 C3.91843443,13.7888142 3.79089236,13.4837596 3.63354663,13.4837596 C3.47620091,13.4837596 3.34865884,13.7888142 3.34865884,14.165112 C3.34865884,14.5414098 3.47620091,14.8464645 3.63354663,14.8464645 C3.79089236,14.8464645 3.91843443,14.5414098 3.91843443,14.165112" id="Fill-27" fill="#3A3A3A"></path>
                    <path d="M3.70877284,14.4833114 C3.70877284,14.3904494 3.66321964,14.3151434 3.60704044,14.3151434 C3.55076884,14.3151434 3.50521564,14.3904494 3.50521564,14.4833114 C3.50521564,14.5761734 3.55076884,14.6514794 3.60704044,14.6514794 C3.66321964,14.6514794 3.70877284,14.5761734 3.70877284,14.4833114" id="Fill-28" fill="#FFFFFF"></path>
                    <path d="M7.42474579,14.165112 C7.42474579,13.7888142 7.29720372,13.4837596 7.13985799,13.4837596 C6.98251227,13.4837596 6.8549702,13.7888142 6.8549702,14.165112 C6.8549702,14.5414098 6.98251227,14.8464645 7.13985799,14.8464645 C7.29720372,14.8464645 7.42474579,14.5414098 7.42474579,14.165112" id="Fill-29" fill="#3A3A3A"></path>
                    <path d="M7.2150842,14.4833114 C7.2150842,14.3904494 7.169531,14.3151434 7.1133518,14.3151434 C7.0570802,14.3151434 7.011527,14.3904494 7.011527,14.4833114 C7.011527,14.5761734 7.0570802,14.6514794 7.1133518,14.6514794 C7.169531,14.6514794 7.2150842,14.5761734 7.2150842,14.4833114" id="Fill-30" fill="#FFFFFF"></path>
                    <path d="M10.0562149,17.1247158 C10.1159099,17.4493743 10.1472037,17.7850301 10.1472037,18.1285273 C10.1472037,20.9809317 7.98801718,23.2933224 5.32453541,23.2933224 C2.66096599,23.2933224 0.501779453,20.9809317 0.501779453,18.1285273 C0.501779453,17.7531858 0.539121669,17.3871202 0.610124474,17.0345383 L3.27272966,18.5854399 L7.70716164,18.3661639 L10.0562149,17.1247158 Z" id="Fill-34" fill="#FFFFFF"></path>
                    <path d="M10.0562149,17.1247158 C10.1159099,17.4493743 10.1472037,17.7850301 10.1472037,18.1285273 C10.1472037,20.9809317 7.98801718,23.2933224 5.32453541,23.2933224 C2.66096599,23.2933224 0.501779453,20.9809317 0.501779453,18.1285273 C0.501779453,17.7531858 0.539121669,17.3871202 0.610124474,17.0345383 L3.27272966,18.5854399 L7.70716164,18.3661639 L10.0562149,17.1247158 Z" id="Stroke-35" stroke="#FF7BC0" stroke-width="0.3"></path>
                    <path d="M0.60174439,17.8779044 L0.352182679,16.2395027 C0.315015778,15.995459 0.537491234,15.8552678 0.727971599,16.0046393 L1.66871494,16.7421257 C2.46324509,17.3649536 3.33210905,17.773 4.22078366,17.9500082 C4.92230891,18.0896257 5.6368075,18.0858005 6.33693022,17.9384372 L6.37094144,17.9313607 C7.15635519,17.7661148 7.92467567,17.4200355 8.63812237,16.9041202 L9.93545757,15.9658142 C10.125675,15.8282049 10.3378068,15.9701175 10.3015165,16.2087104 L10.0324071,17.9759235 C10.0324071,17.9759235 5.32457048,20.5981503 0.60174439,17.8779044" id="Fill-36" fill="#FFD2EA"></path>
                    <path d="M0.60174439,17.8779044 L0.352182679,16.2395027 C0.315015778,15.995459 0.537491234,15.8552678 0.727971599,16.0046393 L1.66871494,16.7421257 C2.46324509,17.3649536 3.33210905,17.773 4.22078366,17.9500082 C4.92230891,18.0896257 5.6368075,18.0858005 6.33693022,17.9384372 L6.37094144,17.9313607 C7.15635519,17.7661148 7.92467567,17.4200355 8.63812237,16.9041202 L9.93545757,15.9658142 C10.125675,15.8282049 10.3378068,15.9701175 10.3015165,16.2087104 L10.0324071,17.9759235 C10.0324071,17.9759235 5.32457048,20.5981503 0.60174439,17.8779044 Z" id="Stroke-37" stroke="#FF7BC0" stroke-width="0.3"></path>
                </g>
            </g>
        </g>
    </g>
</svg>