<?xml version="1.0" encoding="UTF-8"?>
<svg width="11px" height="20px" viewBox="0 0 11 20" version="1.1" xmlns="http://www.w3.org/2000/svg" xmlns:xlink="http://www.w3.org/1999/xlink">
    <!-- Generator: Sketch 48.2 (47327) - http://www.bohemiancoding.com/sketch -->
    <title>ic_download_app</title>
    <desc>Created with Sketch.</desc>
    <defs></defs>
    <g id="02" stroke="none" stroke-width="1" fill="none" fill-rule="evenodd" transform="translate(-183.000000, -106.000000)">
        <g id="ic_download_app" transform="translate(176.000000, 104.000000)" fill="#7898FF">
            <g id="ic_mobile" transform="translate(7.000000, 2.000000)">
                <rect id="Rectangle" fill-opacity="0.16" x="1" y="3" width="9" height="13"></rect>
                <path d="M9.46808511,0 L1.38297872,0 C0.617021277,0 0,0.617021277 0,1.38297872 L0,18.6170213 C0,19.3829787 0.617021277,20 1.38297872,20 L9.46808511,20 C10.2340426,20 10.8510638,19.3829787 10.8510638,18.6170213 L10.8510638,1.38297872 C10.8510638,0.617021277 10.2340426,0 9.46808511,0 Z M5,1.70212766 L5.85106383,1.70212766 C6.14893617,1.70212766 6.38297872,1.93617021 6.38297872,2.23404255 C6.38297872,2.53191489 6.14893617,2.76595745 5.85106383,2.76595745 L5,2.76595745 C4.70212766,2.76595745 4.46808511,2.53191489 4.46808511,2.23404255 C4.46808511,1.93617021 4.70212766,1.70212766 5,1.70212766 Z M9.78723404,15.7446809 L1.06382979,15.7446809 L1.06382979,3.82978723 L9.78723404,3.82978723 L9.78723404,15.7446809 Z M5.60000002,18.6 C5.04771527,18.6 4.60000002,18.1522848 4.60000002,17.6 C4.60000002,17.0477153 5.04771527,16.6 5.60000002,16.6 C6.15228477,16.6 6.60000002,17.0477153 6.60000002,17.6 C6.60000002,18.1522848 6.15228477,18.6 5.60000002,18.6 Z" id="Shape" fill-rule="nonzero"></path>
            </g>
        </g>
    </g>
</svg>