<?xml version="1.0" encoding="UTF-8"?>
<svg width="129px" height="65px" viewBox="0 0 129 65" version="1.1" xmlns="http://www.w3.org/2000/svg" xmlns:xlink="http://www.w3.org/1999/xlink">
    <!-- Generator: Sketch 48.2 (47327) - http://www.bohemiancoding.com/sketch -->
    <title>Graphic - Drinks Break</title>
    <desc>Created with Sketch.</desc>
    <defs>
        <path d="M3.6996991,-6.39488462e-14 C1.65006573,-6.39488462e-14 0,1.65006585 0,3.69969922 L0,29.5976123 C0,31.6472456 1.65006573,33.2973115 3.6996991,33.2973115 L46.8628567,33.2973115 C48.91249,33.2973115 50.5625559,31.6472456 50.5625559,29.5976123 L50.5625559,3.69969922 C50.5625559,1.65006585 48.91249,-6.39488462e-14 46.8628567,-6.39488462e-14 L3.6996991,-6.39488462e-14 Z M6.30108094,6.14692693 C6.70360822,6.10992994 7.04953009,6.25952111 7.30308281,6.49371207 L23.5470439,21.5045202 C24.5589116,22.4404208 25.9626392,22.4404825 26.9769734,21.5045202 L43.2594729,6.49371207 C43.7337127,6.05480442 44.5644802,6.08693014 45.0033878,6.56116992 C45.4422955,7.0354097 45.4101698,7.86617716 44.93593,8.30508481 L35.7252205,16.8028191 L44.9166916,24.9729882 C45.4654803,25.3802635 45.5564929,26.2765156 45.1008132,26.7857792 C44.6451336,27.2951044 43.7443185,27.3038604 43.278773,26.8036611 L33.9139094,18.4793378 L28.6534304,23.315893 C26.7391444,25.0823143 23.7840096,25.0857057 21.8706485,23.315893 L16.6486464,18.4793378 L7.28378272,26.8036611 C6.81823723,27.3039221 5.91742213,27.2951661 5.46174251,26.7857792 C5.00606289,26.2765156 5.09707549,25.3802635 5.64586421,24.9729882 L14.8373353,16.8028191 L5.62662577,8.30508481 C5.26633673,7.99283019 5.11495737,7.46019683 5.25721081,7.00513383 C5.39940258,6.55013248 5.82714947,6.19847607 6.30108094,6.14692693 Z" id="path-1"></path>
    </defs>
    <g id="Contact-Us" stroke="none" stroke-width="1" fill="none" fill-rule="evenodd" transform="translate(-871.000000, -420.000000)">
        <g id="Content" transform="translate(20.000000, 357.000000)">
            <g id="Graphic---Drinks-Break" transform="translate(918.500000, 93.500000) scale(1, -1) translate(-918.500000, -93.500000) translate(852.000000, 56.000000)">
                <g id="BG" opacity="0.200000003" transform="translate(5.000000, 0.000000)">
                    <path d="M15.3341311,4.09010023 L98.0122976,4.09010023 L98.1336931,4.50180395 C98.8234283,6.84187815 102.177077,6.79624852 102.802329,4.43854469 L120.925241,4.43854469" id="Stroke-1" stroke="#000000" stroke-width="0.650000036" stroke-linecap="round"></path>
                    <path d="M0.257750055,36.6087316 C0.456682033,37.2703613 1.1579042,37.6465465 1.82440465,37.4489909 C2.49064403,37.2516946 2.8694502,36.555065 2.67051822,35.8934353 C2.47158624,35.2318056 1.77036407,34.8556204 1.10412469,35.0529167" id="Stroke-20" stroke="#000000" stroke-width="0.650000036" stroke-linecap="round"></path>
                    <path d="M122.414699,37.9636725 C122.131703,37.3328946 121.387667,37.049265 120.752494,37.3303021 C120.117321,37.6110798 119.831716,38.350228 120.11445,38.9810058 C120.397445,39.6117837 121.141743,39.8954133 121.776915,39.6143763" id="Stroke-23" stroke="#000000" stroke-width="0.650000036" stroke-linecap="round"></path>
                    <path d="M4.80005633,37.8230762 C4.55961492,38.0271132 4.53115877,38.385928 4.73661739,38.6247058 C4.94181494,38.8632244 5.30339078,38.8914836 5.54357112,38.6877058 C5.78401253,38.4836688 5.81246868,38.1248539 5.60727113,37.8860762" id="Stroke-25" stroke="#000000" stroke-width="0.650000036" stroke-linecap="round"></path>
                    <path d="M84.0068859,54.5490586 L85.8228581,54.5490586 L85.8228581,55.5912808 C85.8228581,57.0197994 86.988777,58.1776513 88.4272484,58.1776513 C89.5010112,58.1776513 90.4228337,57.532355 90.8214809,56.6112068 C90.9567129,56.2982809 91.0316387,55.953466 91.0316387,55.5912808 L91.1292772,55.5912808 C91.7088428,55.5912808 92.1787609,55.1246141 92.1787609,54.5490586 L93.421172,54.5490586" id="Stroke-31" stroke="#000000" stroke-width="0.650000036" stroke-linecap="round"></path>
                    <path d="M88.3882452,57.5242402 C87.257048,57.5242402 86.3401857,56.6137216 86.3401857,55.4903512 L86.3401857,55.2800919 L90.4363047,55.2800919 L90.4363047,55.4903512 C90.4363047,56.6137216 89.5194424,57.5242402 88.3882452,57.5242402" id="Fill-34" fill="#FFDEEF"></path>
                </g>
                <g id="Trolley" transform="translate(25.000000, 5.000000)">
                    <path d="M66.9748063,21.1269033 L46.0511316,29.4385477 C43.918748,30.2855996 41.5992326,28.7261033 41.5992326,26.4454515 L41.5992326,21.8105182 L6.44372489,21.8105182 C2.884879,21.8105182 0,18.9455996 0,15.4113774 L0,11.1991404 C0,7.66491822 2.884879,4.79999971 6.44372489,4.79999971 L8.3568134,4.79999971 C8.35576914,4.85392564 8.35284521,4.90764416 8.35284521,4.9619849 C8.35284521,9.19703673 11.8099799,12.6302515 16.0745383,12.6302515 C20.3390966,12.6302515 23.7962314,9.19703673 23.7962314,4.9619849 C23.7962314,4.90764416 23.7933074,4.85392564 23.7920543,4.79999971 L42.473489,4.79999971 C42.4722359,4.85392564 42.4693119,4.90764416 42.4693119,4.9619849 C42.4693119,9.19703673 45.9264467,12.6302515 50.191005,12.6302515 C54.4555634,12.6302515 57.9126981,9.19703673 57.9126981,4.9619849 C57.9126981,4.90764416 57.9097742,4.85392564 57.908521,4.79999971 L58.3936853,4.79999971 C64.8852374,4.79999971 70.1479016,10.0260441 70.1479016,16.4726811 C70.1479016,18.5224885 68.8912364,20.3657182 66.9748063,21.1269033" id="Fill-38" fill="#FFFFFF"></path>
                    <path d="M22.5476069,9.49515255 C23.3410374,8.29032292 23.8038545,6.85153775 23.8038545,5.3044859 C23.8038545,5.25014516 23.8009305,5.19663405 23.7998863,5.14250072 L42.4811121,5.14250072 C42.4800678,5.19663405 42.4769351,5.25014516 42.4769351,5.3044859 C42.4769351,6.85153775 42.939961,8.29032292 43.7331826,9.49515255 L22.5476069,9.49515255 Z" id="Fill-41" fill="#FCFCFC"></path>
                    <path d="M56.6640946,9.49515255 C57.457525,8.29032292 57.9203421,6.85153775 57.9203421,5.3044859 C57.9203421,5.25014516 57.9174182,5.19663405 57.9163739,5.14250072 L58.4015382,5.14250072 C62.1011506,5.14250072 65.3997663,6.84158219 67.5544971,9.49515255 L56.6640946,9.49515255 Z" id="Fill-44" fill="#FCFCFC"></path>
                    <path d="M0.34625649,9.49515255 C1.20610206,6.9649896 3.6137532,5.14250072 6.45143154,5.14250072 L8.36472891,5.14250072 C8.3634758,5.19663405 8.36055186,5.25014516 8.36055186,5.3044859 C8.36055186,6.85153775 8.82336891,8.29032292 9.6167994,9.49515255 L0.34625649,9.49515255 Z" id="Fill-46" fill="#FCFCFC"></path>
                    <path d="M66.9825129,21.4694251 L46.0588382,29.7810695 C43.9264547,30.6281213 41.6069393,29.0686251 41.6069393,26.7879732 L41.6069393,22.1530399 L6.45143154,22.1530399 C2.89258566,22.1530399 0.0077066557,19.2881214 0.0077066557,15.7538992 L0.0077066557,11.5416622 C0.0077066557,8.00743996 2.89258566,5.14252146 6.45143154,5.14252146 L8.36452006,5.14252146 C8.3634758,5.19644738 8.36055186,5.2501659 8.36055186,5.30450664 C8.36055186,9.53955847 11.8176866,12.9727733 16.0822449,12.9727733 C20.3468033,12.9727733 23.803938,9.53955847 23.803938,5.30450664 C23.803938,5.2501659 23.8010141,5.19644738 23.799761,5.14252146 L42.4811956,5.14252146 C42.4799425,5.19644738 42.4770186,5.2501659 42.4770186,5.30450664 C42.4770186,9.53955847 45.9341533,12.9727733 50.1987117,12.9727733 C54.46327,12.9727733 57.9204048,9.53955847 57.9204048,5.30450664 C57.9204048,5.2501659 57.9174808,5.19644738 57.9162277,5.14252146 L58.401392,5.14252146 C64.8929441,5.14252146 70.1556083,10.3685659 70.1556083,16.8152029 C70.1556083,18.8650103 68.8989431,20.7082399 66.9825129,21.4694251 Z" id="Stroke-49" stroke="#FF7BC0" stroke-width="1.45599999" stroke-linecap="round" stroke-linejoin="round"></path>
                    <path d="M16.0822241,0.36908148 C13.3374851,0.36908148 11.112371,2.57879999 11.112371,5.30454812 C11.112371,8.03029626 13.3374851,10.2398074 16.0822241,10.2398074 C18.8269631,10.2398074 21.0520771,8.03029626 21.0520771,5.30454812 C21.0520771,2.57879999 18.8269631,0.36908148 16.0822241,0.36908148" id="Fill-52" fill="#FFDEEF"></path>
                    <path d="M16.0822241,0.36908148 C13.3374851,0.36908148 11.112371,2.57879999 11.112371,5.30454812 C11.112371,8.03029626 13.3374851,10.2398074 16.0822241,10.2398074 C18.8269631,10.2398074 21.0520771,8.03029626 21.0520771,5.30454812 C21.0520771,2.57879999 18.8269631,0.36908148 16.0822241,0.36908148 Z" id="Stroke-55" stroke="#FF7BC0" stroke-width="1.45599999" stroke-linecap="round" stroke-linejoin="round"></path>
                    <path d="M50.3796406,0.36908148 C47.6349016,0.36908148 45.4097875,2.57879999 45.4097875,5.30454812 C45.4097875,8.03029626 47.6349016,10.2398074 50.3796406,10.2398074 C53.1243796,10.2398074 55.3494936,8.03029626 55.3494936,5.30454812 C55.3494936,2.57879999 53.1243796,0.36908148 50.3796406,0.36908148" id="Fill-58" fill="#FFDEEF"></path>
                    <path d="M50.3796406,0.36908148 C47.6349016,0.36908148 45.4097875,2.57879999 45.4097875,5.30454812 C45.4097875,8.03029626 47.6349016,10.2398074 50.3796406,10.2398074 C53.1243796,10.2398074 55.3494936,8.03029626 55.3494936,5.30454812 C55.3494936,2.57879999 53.1243796,0.36908148 50.3796406,0.36908148 Z" id="Stroke-61" stroke="#FF7BC0" stroke-width="1.45599999" stroke-linecap="round" stroke-linejoin="round"></path>
                    <path d="M45.409871,49.8560946 L48.3292107,28.8791169" id="Stroke-72" stroke="#FF7BC0" stroke-width="1.45599999" stroke-linecap="round" stroke-linejoin="round"></path>
                    <path d="M49.9268275,49.5320827 L24.3578565,49.5320827 L24.3578565,52.1242605 L46.2850672,52.1242605 C47.1480456,52.1242605 47.9688357,51.7542457 48.5371233,51.1092087 L49.9268275,49.5320827 Z" id="Fill-73" fill="#FFDEEF"></path>
                    <path d="M49.9268275,49.5320827 L24.3578565,49.5320827 L24.3578565,52.1242605 L46.2850672,52.1242605 C47.1480456,52.1242605 47.9688357,51.7542457 48.5371233,51.1092087 L49.9268275,49.5320827 Z" id="Stroke-74" stroke="#FF7BC0" stroke-width="1.45599999" stroke-linecap="round" stroke-linejoin="round"></path>
                    <path d="M40.8434373,30.9685184 L38.3956865,26.3895851" id="Stroke-75" stroke="#FF7BC0" stroke-width="1.45599999" stroke-linecap="round" stroke-linejoin="round"></path>
                    <path d="M39.7636283,28.6030991 L41.636826,27.6156325" id="Stroke-76" stroke="#FF7BC0" stroke-width="1.45599999" stroke-linecap="round" stroke-linejoin="round"></path>
                </g>
                <g id="ic_play" transform="translate(28.659098, 44.751453) scale(-1, -1) rotate(10.000000) translate(-28.659098, -44.751453) translate(3.159098, 27.751453)" fill-rule="nonzero">
                    <g id="Shape">
                        <use fill="#FFDEEF" fill-rule="evenodd" xlink:href="#path-1"></use>
                        <path stroke="#FF7BC0" stroke-width="2" d="M3.6996991,-1 L46.8628567,-1 C49.4647748,-1 51.5625559,1.0977811 51.5625559,3.69969922 L51.5625559,29.5976123 C51.5625559,32.1995304 49.4647748,34.2973115 46.8628567,34.2973115 L3.6996991,34.2973115 C1.09778099,34.2973115 -1,32.1995304 -1,29.5976123 L-1,3.69969922 C-1,1.09778109 1.09778099,-1 3.6996991,-1 Z M6.4023514,7.14197931 C6.3251921,7.15414622 6.23455831,7.23023472 6.21166317,7.30349719 C6.18809485,7.37889129 6.22184238,7.49764297 6.30471373,7.57010405 L16.3270204,16.816612 L15.5016979,17.5502295 L6.24181438,25.7760097 C6.16549396,25.8326497 6.14360694,26.0481549 6.20704753,26.1190555 C6.27040257,26.1898777 6.48697533,26.1919965 6.61941888,26.0562518 L16.6624558,17.1291078 L17.3281579,17.745673 L22.5496809,22.5817847 C24.0785231,23.9959267 26.4427713,23.9951033 27.9766078,22.5797468 L33.9025888,17.1313201 L34.5782732,17.7319285 L44.0107818,26.1223659 C44.0755453,26.1919501 44.2921876,26.1898307 44.3555885,26.1189659 C44.4189488,26.0481549 44.3970618,25.8326497 44.252329,25.7203987 L34.2355354,16.816612 L35.0471325,16.0678384 L44.2566913,7.57116734 C44.3255914,7.50740052 44.3332525,7.30932523 44.2694704,7.24040858 C44.2057035,7.17150852 44.0076283,7.16384736 43.937285,7.22894728 L27.655118,22.2394487 C26.257636,23.528955 24.2630464,23.5289296 22.8683639,22.2389544 L6.62458015,7.22831001 C6.55538401,7.16439782 6.4846217,7.13688751 6.4023514,7.14197931 Z"></path>
                    </g>
                </g>
                <path d="M120.159346,5.19096695 C120.065363,5.18759658 119.974251,5.16685584 119.884967,5.14248547 L119.859382,5.24826325 L119.8539,5.24826325 C119.8539,5.24826325 119.559679,10.5713747 120.095908,13.5339304 L120.788253,13.5440415 L121.332575,5.22026325 L120.159346,5.19096695 Z M124.419154,12.5256711 C124.356498,12.6021525 124.236669,12.7667822 124.097782,12.7667822 L124.096477,12.7667822 C124.0923,12.7667822 123.884491,15.9253379 123.344608,17.353338 L123.571996,17.4381158 C123.41144,17.9104862 123.079365,18.6498936 122.90184,19.0351529 L123.023497,19.0927085 L122.819083,19.5635233 L122.835791,19.5725974 C122.827437,20.7097085 122.835269,21.7765605 122.851977,22.7365975 L122.849627,22.7394494 C123.287173,22.7487827 123.643528,23.0974865 123.65136,23.5356346 C123.655276,23.770005 123.557898,23.9813013 123.400998,24.1327087 C123.598625,24.9257829 123.584788,26.5645607 123.584788,26.5645607 L123.485061,27.2318941 C123.319545,28.3373756 122.496145,29.2331164 121.40228,29.4970424 C120.51048,29.7122276 119.610064,29.1755609 119.381632,28.292783 L119.138319,27.4234867 L118.433442,27.4359311 C118.49662,27.4265978 118.558492,27.4076719 118.620887,27.3905608 L118.095623,27.4418941 L118.433442,27.4359311 C117.806623,27.529783 117.156048,27.2479682 116.790556,26.6864126 C116.735471,26.6016348 116.709626,26.5388941 116.753485,26.5381163 L119.012746,26.4984496 L119.031804,26.5033755 L118.400548,22.7163753 C118.30813,21.6399308 118.367392,20.5557085 118.576245,19.4953381 L118.643861,19.1536344 L118.49923,18.8103751 L118.561886,18.3898566 C118.419344,18.0621528 118.272625,17.7072269 118.181252,17.4386343 L118.408641,17.353338 C117.868757,15.9253379 117.660949,12.7667822 117.656772,12.7667822 L117.655466,12.7667822 C117.51658,12.7667822 117.39675,12.6021525 117.334095,12.5256711 C117.266479,12.4434859 117.247421,12.1033377 117.243766,11.8217821 C117.240633,11.5778192 117.371166,11.3520043 117.584718,11.2311895 L117.723605,11.1526339 C117.825942,11.0948191 117.951515,11.1674117 117.954125,11.2843377 C117.963002,11.6833377 118.147314,12.132634 118.147314,12.132634 C118.163761,12.1341896 118.191434,11.9755229 118.210492,11.8521155 C118.220151,11.7893747 118.294294,11.7603377 118.34468,11.7997451 C118.395587,11.8401895 118.42326,11.902671 118.418561,11.9674858 C118.414123,12.0289303 118.403158,12.1160414 118.378879,12.224671 C118.326666,12.4561896 118.05333,12.6991155 118.05333,12.6991155 L118.030096,12.7035229 C118.126168,14.1434489 118.491137,15.5260786 118.778832,16.4301157 L118.855324,14.7459675 L118.903882,14.0488193 L119.446115,5.45722623 L118.223023,5.41418919 C117.926191,5.40381882 117.64398,5.23789288 117.432255,5.03074472 C117.336444,4.93715212 117.403277,4.7297447 117.537726,4.7297447 L119.626251,4.7297447 L119.830665,4.7297447 L121.91919,4.7297447 C122.09071,4.7297447 122.217588,4.93404101 122.178428,5.09996695 L122.100108,5.45437437 L122.074785,5.44685586 C122.018917,6.46237443 121.797794,11.1083006 122.273456,13.7848934 L122.324886,13.7947452 C122.691422,13.8727822 122.953531,14.2142267 122.953531,14.586523 C122.95327,14.6725971 122.953793,14.5815971 122.954837,14.8408564 L122.957708,14.8408564 C122.957708,14.8408564 123.011227,14.8916712 123.011227,14.9090416 L123.011227,14.8800045 C123.011227,15.6497453 122.916982,16.229449 122.894008,16.7749306 C123.189535,15.9040787 123.628386,14.3399675 123.73725,12.7105229 L123.706706,12.7027451 C123.706706,12.7027451 123.429976,12.4580044 123.378024,12.2264859 C123.353484,12.1178562 123.340953,12.0299673 123.336515,11.9682636 C123.331554,11.9034488 123.358444,11.8407081 123.409613,11.8002636 C123.459999,11.7608562 123.533619,11.789634 123.543279,11.8523747 C123.562336,11.9757821 123.589748,12.1344488 123.606195,12.132634 C123.606195,12.132634 123.790247,11.6835969 123.799384,11.2845969 C123.801995,11.167671 123.927306,11.0950784 124.029644,11.1528932 L124.168531,11.2314488 C124.382082,11.3522636 124.512615,11.5778192 124.509482,11.8217821 C124.505827,12.1033377 124.48677,12.4434859 124.419154,12.5256711 Z" id="Fill-77" fill="#FFDEEF"></path>
                <path d="M111.520216,5.24839288 L111.514734,5.24839288 L111.489149,5.14235584 C111.399865,5.16698547 111.308753,5.18772621 111.214769,5.19109658 L110.041541,5.22039288 L110.585862,13.5441711 L111.278208,13.5338007 C111.814437,10.5715043 111.520216,5.24839288 111.520216,5.24839288 M116.821936,15.4683934 C116.426161,15.3991712 115.946322,15.490949 115.946322,15.490949 C115.941362,15.5067638 116.092519,15.5645786 116.210521,15.6070972 C116.270827,15.6288749 116.284663,15.706912 116.235844,15.7481342 C116.186241,15.7901342 116.119148,15.804912 116.056231,15.7875416 C115.996186,15.770949 115.912384,15.7434675 115.809785,15.6986157 C115.591273,15.6026897 115.40435,15.2892453 115.40435,15.2892453 L115.404872,15.2653934 C114.7355,15.1785416 114.074482,15.1523564 113.45654,15.1575416 C113.33906,15.958912 113.178505,16.7903565 112.965475,17.3532084 L113.192863,17.4387639 C113.10149,17.7073565 112.954772,18.0622825 112.81223,18.3897269 L112.874886,18.8105047 L112.730255,19.153764 L112.797871,19.4954677 C113.006724,20.5558382 113.065986,21.6398012 112.973568,22.716505 L112.342312,26.5035052 L112.36137,26.49832 L114.62037,26.5379866 C114.66449,26.5387644 114.638645,26.6015052 114.58356,26.6865422 C114.218068,27.2478385 113.567493,27.5299126 112.940674,27.4360608 L113.278493,27.4420237 L112.753229,27.3906904 C112.815363,27.4075422 112.877496,27.4264682 112.940674,27.4360608 L112.235797,27.4236163 L111.992484,28.2929127 C111.764051,29.1756905 110.863636,29.7120979 109.971836,29.4969127 C108.877971,29.2329868 108.054571,28.337246 107.889055,27.2317645 L107.789328,26.5646904 C107.789328,26.5646904 107.775491,24.9256532 107.973118,24.1325791 C107.816218,23.9814309 107.718579,23.7701346 107.722756,23.5357643 C107.730588,23.0973568 108.086943,22.7486531 108.524228,22.739579 L108.522139,22.7367272 C108.538847,21.7764308 108.546679,20.7098382 108.538325,19.5724677 L108.555033,19.5636529 L108.350619,19.0925788 L108.472275,19.0352825 C108.294751,18.649764 107.962675,17.9106158 107.80212,17.4379861 L108.029247,17.3532084 C107.489625,15.9254675 107.281816,12.7669118 107.277639,12.7669118 L107.276334,12.7669118 C107.137447,12.7669118 107.017618,12.6020229 106.954962,12.5258007 C106.887346,12.4433562 106.868289,12.1029488 106.864634,11.821134 C106.861501,11.5774303 106.992556,11.352134 107.205585,11.2315784 L107.344472,11.1530228 C107.44681,11.095208 107.572121,11.1678006 107.574993,11.2844673 C107.583869,11.6834673 107.767921,12.1327636 107.767921,12.1327636 C107.784629,12.1345784 107.812302,11.9756525 107.831359,11.8525044 C107.841019,11.7895044 107.9149,11.7609858 107.965286,11.8003932 C108.016455,11.8405784 108.044389,11.9035784 108.039429,11.9683933 C108.03473,12.0298377 108.024026,12.1177266 107.999486,12.2263562 C107.947273,12.458134 107.674198,12.7028748 107.674198,12.7028748 L107.650441,12.7106526 C107.759044,14.3400971 108.198679,15.903949 108.494205,16.7750602 C108.471753,16.2360602 108.393695,15.6630972 108.391867,14.9073564 C108.392912,14.8892082 108.416407,14.840986 108.416407,14.840986 L108.419279,14.840986 C108.420323,14.5721341 108.420846,14.6797267 108.420585,14.5762823 C108.419801,14.2122823 108.714022,13.8583934 109.074032,13.7899489 L109.10066,13.785023 C109.576322,11.1084302 109.355199,6.46250406 109.299331,5.44698548 L109.274008,5.45424474 L109.195688,5.10009658 C109.156528,4.93417064 109.283406,4.72987433 109.454926,4.72987433 L111.543451,4.72987433 L111.747865,4.72987433 L113.82908,4.72987433 C113.985459,4.72987433 114.057774,4.91654101 113.946821,5.02594842 C113.734575,5.23517066 113.450274,5.40394845 113.151093,5.41431882 L111.928001,5.4570966 L112.470234,14.0489489 L112.518792,14.7460971 L112.595284,16.4302453 C112.71433,16.0561342 112.906213,15.414986 113.066247,14.9156527 C113.110106,14.7785045 113.242205,14.6890601 113.387096,14.6983934 C114.489054,14.7696897 115.440377,14.8918008 115.440377,14.8894675 L115.440377,14.8881712 C115.440377,14.7530971 115.640875,14.6683193 115.728594,14.6221712 C115.82336,14.5723934 116.157524,14.6203564 116.436864,14.671949 C116.677306,14.7165416 116.873888,14.8876527 116.948814,15.1189119 L116.997633,15.2695416 C117.034966,15.3805045 116.937849,15.4886157 116.821936,15.4683934" id="Fill-78" fill="#FFDEEF"></path>
            </g>
        </g>
    </g>
</svg>