<?xml version="1.0" encoding="UTF-8"?>
<svg width="100px" height="66px" viewBox="0 0 100 66" version="1.1" xmlns="http://www.w3.org/2000/svg" xmlns:xlink="http://www.w3.org/1999/xlink">
    <!-- Generator: Sketch 49.1 (51147) - http://www.bohemiancoding.com/sketch -->
    <title>Graphic - Ground</title>
    <desc>Created with Sketch.</desc>
    <defs></defs>
    <g id="Match-Center" stroke="none" stroke-width="1" fill="none" fill-rule="evenodd">
        <g id="00-Assets" transform="translate(-794.000000, -1381.000000)">
            <g id="Graphic---Ground" transform="translate(782.000000, 1352.000000)">
                <g id="Graphic---Stadium" transform="translate(62.500000, 62.500000) scale(1, -1) translate(-62.500000, -62.500000) translate(13.000000, 30.000000)">
                    <path d="M52.7500595,27.5571233 C22.4166328,27.5571233 6.59049716,22.2989307 6.59049716,14.4389814 C6.59049716,6.57903209 27.2568013,0.207275338 52.7500595,0.207275338 C78.2433177,0.207275338 98.9096219,6.57903209 98.9096219,14.4389814 C98.9096219,22.2989307 82.5811208,27.5571233 52.7500595,27.5571233" id="Fill-1" fill="#FFF0F9"></path>
                    <path d="M84.8212937,41.2185422 L8.13420394,41.6482889 L8.13420394,17.2680186 L8.13420394,17.2649443 L8.13420394,17.2594544 C8.13420394,10.2853497 25.2508057,4.63166723 46.4777488,4.63166723 C67.7046919,4.63166723 84.8212937,10.2853497 84.8212937,17.2594544 L84.8212937,17.2649443 L84.8212937,17.2680186 L84.8212937,41.2185422 Z" id="Fill-4" fill="#FFFFFF"></path>
                    <path d="M84.8212937,41.2185422 L8.13420394,41.6482889 L8.13420394,17.2680186 L8.13420394,17.2649443 L8.13420394,17.2594544 C8.13420394,10.2853497 25.2508057,4.63166723 46.4777488,4.63166723 C67.7046919,4.63166723 84.8212937,10.2853497 84.8212937,17.2594544 L84.8212937,17.2649443 L84.8212937,17.2680186 L84.8212937,41.2185422 Z" id="Stroke-7" stroke="#FF7BC0" stroke-width="1.52319993" stroke-linecap="round" stroke-linejoin="round"></path>
                    <path d="M46.684414,28.1891605 C25.4574709,28.1891605 8.2494512,33.4271503 8.2494512,39.8887213 C8.2494512,46.3502922 25.4574709,51.5882821 46.684414,51.5882821 C67.9113571,51.5882821 85.1193768,46.3502922 85.1193768,39.8887213 C85.1193768,33.4271503 67.9113571,28.1891605 46.684414,28.1891605" id="Fill-10" fill="#FFFFFF"></path>
                    <path d="M46.684414,28.1891605 C25.4574709,28.1891605 8.2494512,33.4271503 8.2494512,39.8887213 C8.2494512,46.3502922 25.4574709,51.5882821 46.684414,51.5882821 C67.9113571,51.5882821 85.1193768,46.3502922 85.1193768,39.8887213 C85.1193768,33.4271503 67.9113571,28.1891605 46.684414,28.1891605 Z" id="Stroke-13" stroke="#FF7BC0" stroke-width="1.13935355" stroke-linecap="round" stroke-linejoin="round"></path>
                    <path d="M46.4777488,22.492152 C25.2508057,22.492152 8.2494512,26.3157331 8.2494512,33.2898378 C8.2494512,40.2639426 25.4574709,45.917625 46.684414,45.917625 C67.9113571,45.917625 85.1193768,40.2639426 85.1193768,33.2898378 C85.1193768,26.3157331 67.7046919,22.492152 46.4777488,22.492152" id="Fill-16" fill="#FFF0F9"></path>
                    <path d="M46.4777488,22.492152 C25.2508057,22.492152 8.2494512,26.3157331 8.2494512,33.2898378 C8.2494512,40.2639426 25.4574709,45.917625 46.684414,45.917625 C67.9113571,45.917625 85.1193768,40.2639426 85.1193768,33.2898378 C85.1193768,26.3157331 67.7046919,22.492152 46.4777488,22.492152 Z" id="Stroke-19" stroke="#FF7BC0" stroke-width="1.18374395" stroke-linecap="round" stroke-linejoin="round"></path>
                    <path d="M33.3600322,13.9465186 C23.5891438,15.1086132 15.6613451,17.535353 11.4075945,20.6246098" id="Stroke-22" stroke="#FF7BC0" stroke-width="0.652799971" stroke-linecap="round" stroke-linejoin="round"></path>
                    <path d="M81.8782425,20.9235439 C77.738656,17.6961622 69.6334372,15.1523784 59.5674985,13.9511959" id="Stroke-25" stroke="#FF7BC0" stroke-width="0.652799971" stroke-linecap="round" stroke-linejoin="round"></path>
                    <path d="M23.866972,55.2697196 L25.9799829,50.1803953" id="Stroke-27" stroke="#FF7BC0" stroke-width="0.870399961" stroke-linecap="round" stroke-linejoin="round"></path>
                    <path d="M69.501856,55.2697196 L67.3888451,50.1803953" id="Stroke-30" stroke="#FF7BC0" stroke-width="0.870399961" stroke-linecap="round" stroke-linejoin="round"></path>
                    <path d="M57.2643512,2.44584459 L57.2643512,13.3801182 C57.2643512,15.6245946 55.46957,17.4439358 53.2553928,17.4439358 L40.0303359,17.4439358 C37.8163753,17.4439358 36.0215941,15.6245946 36.0215941,13.3801182 L36.0215941,2.44584459" id="Fill-36" fill="#FFFFFF"></path>
                    <path d="M57.2643512,2.44584459 L57.2643512,13.3801182 C57.2643512,15.6245946 55.46957,17.4439358 53.2553928,17.4439358 L40.0303359,17.4439358 C37.8163753,17.4439358 36.0215941,15.6245946 36.0215941,13.3801182 L36.0215941,2.44584459" id="Stroke-38" stroke="#FF7BC0" stroke-width="0.870399961" stroke-linecap="round" stroke-linejoin="round"></path>
                    <polygon id="Fill-40" fill="#FFDCF3" points="41.6007965 10.9156081 51.6849322 10.9156081 51.6849322 1.8727027 41.6007965 1.8727027"></polygon>
                    <path d="M34.1967663,2.50447635 C42.2515103,1.46403716 50.4022214,1.43834459 58.4630311,2.42761824 L59.0890923,2.50447635" id="Stroke-42" stroke="#FF7BC0" stroke-width="0.652799971" stroke-linecap="round" stroke-linejoin="round"></path>
                    <path d="M66.0297939,3.79288176 L66.0297939,9.93560135 C66.0297939,10.0212432 66.098249,10.0906351 66.1829514,10.0906351 L67.9207589,10.0906351" id="Stroke-43" stroke="#FF7BC0" stroke-width="0.5" stroke-linecap="round" stroke-linejoin="round"></path>
                    <path d="M66.5662136,9.32403041 L67.4164871,9.32403041 C67.6948569,9.32403041 67.9205856,9.55284797 67.9205856,9.83524662 L66.2919597,9.83524662 L66.2919597,9.60203716 C66.2919597,9.44854054 66.4147891,9.32403041 66.5662136,9.32403041" id="Fill-44" fill="#FFDCF3"></path>
                    <path d="M80.1463707,9.43606757 L80.1463707,15.5787872 C80.1463707,15.6644291 80.2148258,15.7338209 80.2995282,15.7338209 L82.0373357,15.7338209" id="Stroke-45" stroke="#FF7BC0" stroke-width="0.5" stroke-linecap="round" stroke-linejoin="round"></path>
                    <path d="M80.6827904,14.9672382 L81.5330639,14.9672382 C81.8114337,14.9672382 82.0371624,15.1960557 82.0371624,15.4784544 L80.4085365,15.4784544 L80.4085365,15.2452449 C80.4085365,15.0917483 80.5313659,14.9672382 80.6827904,14.9672382" id="Fill-46" fill="#FFDCF3"></path>
                    <path d="M27.2561081,3.79288176 L27.2561081,9.93560135 C27.2561081,10.0212432 27.187653,10.0906351 27.1029505,10.0906351 L25.3651431,10.0906351" id="Stroke-47" stroke="#FF7BC0" stroke-width="0.5" stroke-linecap="round" stroke-linejoin="round"></path>
                    <path d="M26.7196884,9.32403041 L25.8694149,9.32403041 C25.5910451,9.32403041 25.3653164,9.55284797 25.3653164,9.83524662 L26.9939422,9.83524662 L26.9939422,9.60203716 C26.9939422,9.44854054 26.8711129,9.32403041 26.7196884,9.32403041" id="Fill-48" fill="#FFDCF3"></path>
                    <path d="M13.1395313,9.43606757 L13.1395313,15.5787872 C13.1395313,15.6644291 13.0710761,15.7338209 12.9863737,15.7338209 L11.2485663,15.7338209" id="Stroke-49" stroke="#FF7BC0" stroke-width="0.5" stroke-linecap="round" stroke-linejoin="round"></path>
                    <path d="M12.6031116,14.9672382 L11.7528381,14.9672382 C11.4744683,14.9672382 11.2487396,15.1960557 11.2487396,15.4784544 L12.8773654,15.4784544 L12.8773654,15.2452449 C12.8773654,15.0917483 12.7545361,14.9672382 12.6031116,14.9672382" id="Fill-50" fill="#FFDCF3"></path>
                    <path d="M76.3774385,33.6386199 L65.9196158,30.4176064 C64.5827908,30.0058666 63.2331847,31.0199544 63.2331847,32.4363395 L63.2331847,38.9567618 C63.2331847,39.8858666 63.8326004,40.7053936 64.7095195,40.9754949 L75.1673422,44.1965084 C76.5041672,44.6082483 77.8537733,43.5941605 77.8537733,42.1777753 L77.8537733,35.657353 C77.8537733,34.7282483 77.2543575,33.9087213 76.3774385,33.6386199" id="Fill-51" fill="#FFFFFF"></path>
                    <path d="M64.1331098,31.81425 L64.1331098,38.3346723 C64.1331098,39.2635574 64.6978648,40.0833041 65.5745672,40.3534054 L76.0150595,43.5741993 C76.624007,43.7617331 77.2251558,43.651277 77.7106241,43.3440642 C77.1965606,43.9393851 76.3603681,44.2318851 75.5326241,43.9769358 L65.1254928,40.7559223 C64.2485737,40.4858209 63.6998495,39.6662939 63.6998495,38.7371892 L63.6998495,32.2167669 C63.6998495,31.4455507 64.0835015,30.7957703 64.6640705,30.4283885 C64.3477904,30.7944527 64.1331098,31.2747061 64.1331098,31.81425" id="Fill-52" fill="#FFF0F9"></path>
                    <path d="M76.3774385,33.6386199 L65.9196158,30.4176064 C64.5827908,30.0058666 63.2331847,31.0199544 63.2331847,32.4363395 L63.2331847,38.9567618 C63.2331847,39.8858666 63.8326004,40.7053936 64.7095195,40.9754949 L75.1673422,44.1965084 C76.5041672,44.6082483 77.8537733,43.5941605 77.8537733,42.1777753 L77.8537733,35.657353 C77.8537733,34.7282483 77.2543575,33.9087213 76.3774385,33.6386199 Z" id="Stroke-53" stroke="#FF7BC0" stroke-width="0.870399961" stroke-linecap="round" stroke-linejoin="round"></path>
                    <polyline id="Stroke-54" stroke="#FF7BC0" stroke-width="0.5" stroke-linecap="round" stroke-linejoin="round" points="14.9580551 56.3097196 14.9580551 60.9212061 17.7933112 60.9212061 15.1510726 58.9973378"></polyline>
                    <polyline id="Stroke-55" stroke="#FF7BC0" stroke-width="0.5" stroke-linecap="round" stroke-linejoin="round" points="75.3978801 56.9685034 75.3978801 61.5799899 78.2716963 61.5799899 75.6101777 59.6561216"></polyline>
                    <polyline id="Stroke-56" stroke="#FF7BC0" stroke-width="0.5" stroke-linecap="round" stroke-linejoin="round" points="45.0696525 60.2624223 45.0696525 64.8739088 47.9382696 64.8739088 45.2793505 62.9500405"></polyline>
                    <polygon id="Fill-57" fill="#FFFFFF" points="51.8059635 25.8592399 41.4798519 25.8592399 43.862784 38.5226014 49.4230313 38.5226014"></polygon>
                    <path d="M47.470695,37.959451 L47.470695,41.4105997 C47.470695,41.4729645 47.42087,41.5234713 47.359347,41.5234713 L45.9265549,41.5234713 C45.8650319,41.5234713 45.815207,41.4729645 45.815207,41.4105997 L45.815207,37.959451" id="Stroke-58" stroke="#FF7BC0" stroke-width="0.5" stroke-linecap="round"></path>
                    <path d="M46.684414,30.1779189 C25.4574709,30.1779189 8.2494512,36.1493547 8.2494512,43.5154358 C8.2494512,50.8812973 25.4574709,56.8527331 46.684414,56.8527331 C67.9113571,56.8527331 85.1193768,50.8812973 85.1193768,43.5154358 C85.1193768,36.1493547 67.9113571,30.1779189 46.684414,30.1779189 M46.684414,59.6870405 C16.3509873,59.6870405 0.524851641,52.177125 0.524851641,40.9514493 C0.524851641,29.7257736 21.1911558,20.6255541 46.684414,20.6255541 C72.1776722,20.6255541 92.8439764,29.7257736 92.8439764,40.9514493 C92.8439764,52.177125 76.5154753,59.6870405 46.684414,59.6870405" id="Fill-60" fill="#FFF0F9"></path>
                    <path d="M46.5421096,24.5914764 C22.4686457,24.5914764 2.7028733,32.7068142 0.5757814,43.0633345 C0.447536324,42.3795169 0.382547265,41.6796689 0.382547265,40.9646689 C0.382547265,29.7389932 21.0488514,20.6387736 46.5421096,20.6387736 C72.0353678,20.6387736 92.701672,29.7389932 92.701672,40.9646689 C92.701672,41.6748378 92.6358164,42.3700743 92.5058383,43.0495 C90.3637989,32.6995676 70.6049586,24.5914764 46.5421096,24.5914764" id="Fill-61" fill="#FFFFFF"></path>
                    <path d="M93.0605632,40.9704443 C93.0605632,30.4619645 72.2549659,21.9432314 46.5897033,21.9432314 C20.9246573,21.9432314 0.118843326,30.4619645 0.118843326,40.9704443 C0.118843326,51.478924 20.9246573,59.9976571 46.5897033,59.9976571 C72.2549659,59.9976571 93.0605632,51.478924 93.0605632,40.9704443 Z" id="Stroke-62" stroke="#FF7BC0" stroke-width="1.70533112" stroke-linecap="round" stroke-linejoin="round"></path>
                    <path d="M85.4712709,43.5732111 C85.4712709,36.1752889 68.1588354,30.1779409 46.8027807,30.1779409 C25.446726,30.1779409 8.13429059,36.1752889 8.13429059,43.5732111 C8.13429059,50.9711334 25.446726,56.9684814 46.8027807,56.9684814 C68.1588354,56.9684814 85.4712709,50.9711334 85.4712709,43.5732111 Z" id="Stroke-63" stroke="#FF7BC0" stroke-width="0.969843157" stroke-linecap="round" stroke-linejoin="round"></path>
                </g>
            </g>
        </g>
    </g>
</svg>