<?xml version="1.0" encoding="UTF-8"?>
<svg width="20px" height="17px" viewBox="0 0 20 17" version="1.1" xmlns="http://www.w3.org/2000/svg" xmlns:xlink="http://www.w3.org/1999/xlink">
    <!-- Generator: Sketch 49.1 (51147) - http://www.bohemiancoding.com/sketch -->
    <title>Group 9</title>
    <desc>Created with Sketch.</desc>
    <defs>
        <path d="M11.0656335,1.66570985 C12.9229438,-0.19160049 15.9342389,-0.19160049 17.7915492,1.66570985 C19.6488596,3.5230202 19.6488596,6.53431524 17.7915492,8.39162559 L9.91044772,16.2727271 L2.02934622,8.39162559 C0.172035873,6.53431524 0.172035873,3.5230202 2.02934622,1.66570985 C3.88665656,-0.19160049 6.89795161,-0.19160049 8.75526195,1.66570985 C9.30022332,2.21067122 9.68528525,2.85498137 9.91044772,3.5403396 C10.1356102,2.85498137 10.5206721,2.21067122 11.0656335,1.66570985 Z" id="path-1"></path>
    </defs>
    <g id="01---Home-Page" stroke="none" stroke-width="1" fill="none" fill-rule="evenodd">
        <g id="01-Home-Page" transform="translate(-73.000000, -4065.000000)">
            <g id="Home-Page">
                <g id="Recent-Match-Videos" transform="translate(20.000000, 3582.000000)">
                    <g id="Top-video" transform="translate(0.000000, 64.000000)">
                        <g id="Button---More-Actions" transform="translate(26.000000, 407.000000)">
                            <g id="Favourites">
                                <g id="Group-9" transform="translate(27.000000, 12.000000)">
                                    <g id="heart">
                                        <g id="Oval-26">
                                            <use fill="#FFFFFF" fill-rule="evenodd" xlink:href="#path-1"></use>
                                            <path stroke="#FFFFFF" stroke-width="1" d="M9.91044772,15.5656203 L17.4379958,8.0380722 C19.100044,6.376024 19.100044,3.68131144 17.4379958,2.01926324 C15.7759476,0.357215046 13.0812351,0.357215046 11.4191869,2.01926324 C10.9414175,2.49703259 10.5914877,3.0693121 10.3854691,3.69639957 L9.91044772,5.14228787 L9.43542637,3.69639957 C9.22940773,3.0693121 8.87947791,2.49703259 8.40170856,2.01926324 C6.73966036,0.357215046 4.04494781,0.357215046 2.38289961,2.01926324 C0.72085141,3.68131144 0.72085141,6.376024 2.38289961,8.0380722 L9.91044772,15.5656203 Z"></path>
                                        </g>
                                    </g>
                                </g>
                            </g>
                        </g>
                    </g>
                </g>
            </g>
        </g>
    </g>
</svg>