<?xml version="1.0" encoding="UTF-8"?>
<svg width="99px" height="97px" viewBox="0 0 99 97" version="1.1" xmlns="http://www.w3.org/2000/svg" xmlns:xlink="http://www.w3.org/1999/xlink">
    <!-- Generator: Sketch 49.1 (51147) - http://www.bohemiancoding.com/sketch -->
    <title>Graphic - Team Jersy</title>
    <desc>Created with Sketch.</desc>
    <defs></defs>
    <g id="My-Account" stroke="none" stroke-width="1" fill="none" fill-rule="evenodd">
        <g id="00-Assets" transform="translate(-750.000000, -263.000000)">
            <g id="Graphic---Team-Jersy" transform="translate(795.000000, 314.000000) scale(1, -1) translate(-795.000000, -314.000000) translate(740.000000, 264.000000)">
                <g id="BG" opacity="0.200000003" transform="translate(0.000000, 0.021557)">
                    <path d="M10.6980109,4.54676647 L91.687765,4.54676647 L91.8251148,5.01443114 C92.606235,7.67251497 96.4039399,7.62071856 97.1117268,4.94257485 L100.999896,4.94257485" id="Stroke-3" stroke="#000000" stroke-width="0.6588" stroke-linecap="round"></path>
                    <path d="M108.898858,78.0203892 C108.578475,77.3039222 107.735743,76.9817665 107.016536,77.3009281 C106.297328,77.6200898 105.97394,78.4596108 106.294322,79.1760778 C106.614404,79.8925449 107.457437,80.2147006 108.176645,79.8955389" id="Stroke-19" stroke="#000000" stroke-width="0.6588" stroke-linecap="round"></path>
                    <path d="M16.9562896,85.1899701 C17.1813989,85.9414671 17.9757432,86.369012 18.7301148,86.1444611 C19.4847869,85.9202096 19.9136667,85.1288922 19.6885574,84.3773952 C19.4631475,83.6258982 18.6691038,83.1983533 17.9144317,83.4229042" id="Stroke-22" stroke="#000000" stroke-width="0.6588" stroke-linecap="round"></path>
                    <path d="M22.0998415,86.5693713 C21.8275464,86.8011078 21.795388,87.2085928 22.0280109,87.4798503 C22.2606339,87.7511078 22.6696776,87.7831437 22.9419727,87.5514072 C23.2142678,87.3196707 23.2464262,86.9121856 23.0138033,86.6409281" id="Stroke-25" stroke="#000000" stroke-width="0.6588" stroke-linecap="round"></path>
                    <path d="M43.9045765,8.39745509 L43.9045765,74.1654192 L18.4564071,74.1654192 C16.3874454,74.1654192 14.7100956,72.4944611 14.7100956,70.4333832 L14.7100956,11.8702096" id="Stroke-28" stroke="#000000" stroke-width="0.6" stroke-linecap="round"></path>
                    <path d="M24.5528716,54.4867066 C24.0840191,54.4867066 23.7038279,54.8654491 23.7038279,55.332515 C23.7038279,55.7995808 24.0840191,56.1783234 24.5528716,56.1783234 L34.0618607,56.1783234 C34.5307131,56.1783234 34.9109044,55.7995808 34.9109044,55.332515 C34.9109044,54.8654491 34.5307131,54.4867066 34.0618607,54.4867066" id="Fill-31" fill="#7898FF"></path>
                    <path d="M24.5528716,54.4867066 C24.0840191,54.4867066 23.7038279,54.8654491 23.7038279,55.332515 C23.7038279,55.7995808 24.0840191,56.1783234 24.5528716,56.1783234 L34.0618607,56.1783234 C34.5307131,56.1783234 34.9109044,55.7995808 34.9109044,55.332515 C34.9109044,54.8654491 34.5307131,54.4867066 34.0618607,54.4867066" id="Stroke-33" stroke="#000000" stroke-width="0.6" stroke-linecap="round"></path>
                    <polyline id="Fill-41" fill="#F7F7F7" points="73.1108087 8.39745509 73.1108087 74.1654192 43.9163279 74.1654192 43.9163279 8.39745509"></polyline>
                    <polyline id="Stroke-43" stroke="#000000" stroke-width="0.6" stroke-linecap="round" points="73.1108087 8.39745509 73.1108087 74.1654192 43.9163279 74.1654192 43.9163279 8.39745509"></polyline>
                    <path d="M53.7591339,54.4867066 C53.2902814,54.4867066 52.9100902,54.8654491 52.9100902,55.332515 C52.9100902,55.7995808 53.2902814,56.1783234 53.7591339,56.1783234 L63.268123,56.1783234 C63.7369754,56.1783234 64.1171667,55.7995808 64.1171667,55.332515 C64.1171667,54.8654491 63.7369754,54.4867066 63.268123,54.4867066" id="Fill-45" fill="#F7F7F7"></path>
                    <path d="M53.7591339,54.4867066 C53.2902814,54.4867066 52.9100902,54.8654491 52.9100902,55.332515 C52.9100902,55.7995808 53.2902814,56.1783234 53.7591339,56.1783234 L63.268123,56.1783234 C63.7369754,56.1783234 64.1171667,55.7995808 64.1171667,55.332515 C64.1171667,54.8654491 63.7369754,54.4867066 63.268123,54.4867066" id="Stroke-47" stroke="#000000" stroke-width="0.6" stroke-linecap="round"></path>
                    <path d="M102.317071,11.8702994 L102.317071,70.4334731 C102.317071,72.4945509 100.639721,74.1652096 98.5707596,74.1652096 L73.1225902,74.1652096 L73.1225902,8.39754491" id="Stroke-57" stroke="#000000" stroke-width="0.6" stroke-linecap="round"></path>
                    <path d="M82.9653962,54.4867066 C82.4965437,54.4867066 82.1163525,54.8654491 82.1163525,55.332515 C82.1163525,55.7995808 82.4965437,56.1783234 82.9653962,56.1783234 L92.4743852,56.1783234 C92.9432377,56.1783234 93.323429,55.7995808 93.323429,55.332515 C93.323429,54.8654491 92.9432377,54.4867066 92.4743852,54.4867066" id="Fill-60" fill="#7898FF"></path>
                    <path d="M82.9653962,54.4867066 C82.4965437,54.4867066 82.1163525,54.8654491 82.1163525,55.332515 C82.1163525,55.7995808 82.4965437,56.1783234 82.9653962,56.1783234 L92.4743852,56.1783234 C92.9432377,56.1783234 93.323429,55.7995808 93.323429,55.332515 C93.323429,54.8654491 92.9432377,54.4867066 92.4743852,54.4867066" id="Stroke-62" stroke="#000000" stroke-width="0.6" stroke-linecap="round"></path>
                    <polygon id="Fill-70" fill="#FFFFFF" points="21.3093443 20.3434132 95.3438525 20.3434132 95.3438525 17.9482036 21.3093443 17.9482036"></polygon>
                    <polygon id="Stroke-72" stroke="#000000" stroke-width="0.6" stroke-linecap="round" stroke-linejoin="round" points="21.3093443 20.3434132 95.3438525 20.3434132 95.3438525 17.9482036 21.3093443 17.9482036"></polygon>
                    <polygon id="Fill-73" fill="#FFFFFF" points="27.7921311 17.9482036 29.2197268 17.9482036 29.2197268 4.54670659 27.7921311 4.54670659"></polygon>
                    <polygon id="Stroke-74" stroke="#000000" stroke-width="0.6" stroke-linecap="round" stroke-linejoin="round" points="27.7921311 17.9482036 29.2197268 17.9482036 29.2197268 4.54670659 27.7921311 4.54670659"></polygon>
                    <polygon id="Fill-75" fill="#FFFFFF" points="87.4334699 17.9482036 88.8610656 17.9482036 88.8610656 4.54670659 87.4334699 4.54670659"></polygon>
                    <polygon id="Stroke-76" stroke="#000000" stroke-width="0.6" stroke-linecap="round" stroke-linejoin="round" points="87.4334699 17.9482036 88.8610656 17.9482036 88.8610656 4.54670659 87.4334699 4.54670659"></polygon>
                </g>
                <g id="Jersy" transform="translate(20.437158, 22.754491)">
                    <polygon id="Fill-78" fill="#F7F7F7" points="45.1946721 76.9529341 26.1923224 73.8987425 27.4828689 63.4933533 46.4852186 66.5475449"></polygon>
                    <polygon id="Stroke-81" stroke="#7898FF" stroke-width="2.1" stroke-linecap="round" stroke-linejoin="round" points="45.1946721 76.9529341 26.1923224 73.8987425 27.4828689 63.4933533 46.4852186 66.5475449"></polygon>
                    <polyline id="Fill-84" fill="#FFFFFF" points="60.3970328 71.697515 78.5094645 58.6014072 68.6497377 45.0687725 63.9687268 48.9017066"></polyline>
                    <polygon id="Fill-87" fill="#F2F2F2" points="63.4305082 52.6059281 63.4022568 52.517006 63.9687869 48.9017365 68.6494973 45.0688024 70.2862732 47.3152096"></polygon>
                    <polyline id="Fill-90" fill="#C7DAFF" points="13.3552923 64.1365269 0.29654918 46.0302395 13.9281339 36.2736527 17.1614126 41.3784431"></polyline>
                    <polygon id="Fill-93" fill="#A2C1F2" points="16.6174235 45.1473952 16.6712213 45.0713473 17.235347 41.4557784 13.9461667 36.3863174 11.7013852 38.0303293"></polygon>
                    <polygon id="Fill-96" fill="#FFFFFF" points="70.7103142 7.65796407 23.8428005 0.12502994 13.4724454 64.1552695 24.7771995 68.0253293 35.0198224 68.0253293 36.9733743 65.1627545 38.4746038 68.4187425 47.9607514 71.7516766 60.339959 71.6882036"></polygon>
                    <path d="M24.7770792,68.0253892 L13.3049208,64.1283832 L23.6755765,0.0981437126 L28.1948934,0.824491018 L20.741041,46.8463473 C19.4562049,54.7798802 24.2523251,62.217006 31.6331448,64.7661078" id="Fill-99" fill="#C7DAFF"></path>
                    <polyline id="Fill-102" fill="#C7DAFF" points="42.758623 66.8094611 62.2749071 69.9462874 60.2561366 71.6747305 47.9607814 71.7516766"></polyline>
                    <polyline id="Stroke-105" stroke="#7898FF" stroke-width="2.1" stroke-linecap="round" stroke-linejoin="round" points="62.9918607 55.3140719 70.710194 7.65808383 23.8429809 0.124850299 16.1057131 47.8976048"></polyline>
                    <path d="M13.4724454,64.1553293 L24.7771995,68.0253892" id="Stroke-111" stroke="#7898FF" stroke-width="2.1" stroke-linecap="round" stroke-linejoin="round"></path>
                    <path d="M28.608776,39.0007485 L53.8597869,43.1193114" id="Stroke-114" stroke="#F2F2F2" stroke-width="1.9467" stroke-linecap="round" stroke-linejoin="round"></path>
                    <path d="M35.2228415,36.4867365 L47.1497268,38.4322455" id="Stroke-117" stroke="#F2F2F2" stroke-width="0.6" stroke-linecap="round" stroke-linejoin="round"></path>
                    <path d="M58.1452186,55.2197305 C58.2431967,53.4781138 56.9054645,51.9873952 55.1571858,51.8897904 C53.4092077,51.7921856 51.9124863,53.1248204 51.8148087,54.8664371" id="Stroke-120" stroke="#F2F2F2" stroke-width="0.6" stroke-linecap="round" stroke-linejoin="round"></path>
                    <path d="M54.9830492,53.0652695 C53.9191148,53.0652695 53.0565464,53.9245509 53.0565464,54.9844311 C53.0565464,56.0443114 53.9191148,56.9032934 54.9830492,56.9032934" id="Stroke-123" stroke="#F2F2F2" stroke-width="0.6" stroke-linecap="round" stroke-linejoin="round"></path>
                    <polygon id="Fill-126" fill="#FFFFFF" points="42.6855601 64.2675449 49.2485929 71.9633533 45.354112 76.9786228 38.7910792 69.2828144"></polygon>
                    <polygon id="Stroke-129" stroke="#7898FF" stroke-width="2.1" stroke-linecap="round" stroke-linejoin="round" points="42.6855601 64.2675449 49.2485929 71.9633533 45.354112 76.9786228 38.7910792 69.2828144"></polygon>
                    <polygon id="Fill-132" fill="#FFFFFF" points="32.5279317 62.6349401 23.8682869 67.8840419 25.9820301 73.8648802 34.6416749 68.6157784"></polygon>
                    <polygon id="Stroke-135" stroke="#7898FF" stroke-width="2.1" stroke-linecap="round" stroke-linejoin="round" points="32.5279317 62.6349401 23.8682869 67.8840419 25.9820301 73.8648802 34.6416749 68.6157784"></polygon>
                    <path d="M39.5888798,49.5338323 L37.5115027,62.360479 C37.1493443,64.5958084 37.4405738,66.8877246 38.3500273,68.9625749 L38.4903825,69.2829341" id="Stroke-138" stroke="#7898FF" stroke-width="1.5" stroke-linecap="round" stroke-linejoin="round"></path>
                    <polyline id="Stroke-141" stroke="#7898FF" stroke-width="2.1" stroke-linecap="round" stroke-linejoin="round" points="13.3552923 64.1365269 0.29654918 46.0302395 13.9281339 36.2736527 17.1614126 41.3784431"></polyline>
                    <polyline id="Stroke-144" stroke="#7898FF" stroke-width="2.1" stroke-linecap="round" stroke-linejoin="round" points="60.3970328 71.697515 78.5094645 58.6014072 68.6497377 45.0687725 64.4345738 48.5202695"></polyline>
                    <path d="M35.0197022,68.6158383 L37.3603579,62.8799102" id="Stroke-147" stroke="#7898FF" stroke-width="1.5" stroke-linecap="round" stroke-linejoin="round"></path>
                </g>
            </g>
        </g>
    </g>
</svg>