<?xml version="1.0" encoding="UTF-8"?>
<svg width="104px" height="40px" viewBox="0 0 104 40" version="1.1" xmlns="http://www.w3.org/2000/svg" xmlns:xlink="http://www.w3.org/1999/xlink">
    <!-- Generator: Sketch 49.1 (51147) - http://www.bohemiancoding.com/sketch -->
    <title>Logo - Gaana Plus</title>
    <desc>Created with Sketch.</desc>
    <defs>
        <filter x="-0.5%" y="-0.6%" width="101.0%" height="101.6%" filterUnits="objectBoundingBox" id="filter-1">
            <feOffset dx="0" dy="2" in="SourceAlpha" result="shadowOffsetOuter1"></feOffset>
            <feGaussianBlur stdDeviation="2" in="shadowOffsetOuter1" result="shadowBlurOuter1"></feGaussianBlur>
            <feColorMatrix values="0 0 0 0 0.699776786   0 0 0 0 0.699776786   0 0 0 0 0.699776786  0 0 0 0.5 0" type="matrix" in="shadowBlurOuter1" result="shadowMatrixOuter1"></feColorMatrix>
            <feMerge>
                <feMergeNode in="shadowMatrixOuter1"></feMergeNode>
                <feMergeNode in="SourceGraphic"></feMergeNode>
            </feMerge>
        </filter>
    </defs>
    <g id="Subscription-Flow" stroke="none" stroke-width="1" fill="none" fill-rule="evenodd">
        <g id="04" transform="translate(-938.000000, -445.000000)" fill="#E82E26">
            <g id="Group" filter="url(#filter-1)" transform="translate(176.000000, 88.000000)">
                <g id="Subscription-detail-page-" transform="translate(15.000000, 45.000000)">
                    <g id="Package-Details" transform="translate(90.000000, 314.000000)">
                        <g id="Logo---Gaana-Plus" transform="translate(661.000000, 0.000000)">
                            <path d="M71.2690224,18.6352 C71.2690224,18.6352 70.9547623,20.5288216 69.0618834,20.5288216 L67.2030135,20.5288216 C67.2030135,20.5288216 65.31487,20.5288216 65.634296,18.6352 L66.9671031,11.1126054 C66.9671031,11.1126054 67.3153722,9.24233514 69.2082511,9.24233514 L72.9419193,9.24233514 L71.2690224,18.6352 Z M75.0130224,18.6352 L77.3273543,5.48276757 L69.8445202,5.48276757 C64.2046278,5.48276757 63.2050224,11.1126054 63.2050224,11.1126054 L61.8980448,18.6352 C60.9242691,24.2940108 66.5637309,24.2940108 66.5637309,24.2940108 L68.4204484,24.2940108 C69.8130942,24.2940108 70.9861883,23.2207135 71.7399821,22.2118486 C73.0202691,24.2940108 75.9110314,24.2940108 75.9110314,24.2940108 L76.5524664,20.5288216 C74.6961794,20.5288216 75.0130224,18.6352 75.0130224,18.6352 L75.0130224,18.6352 Z M41.6592646,18.6352 C41.6592646,18.6352 41.344574,20.5288216 39.4547085,20.5288216 L37.597991,20.5288216 C37.597991,20.5288216 35.7081256,20.5288216 36.0275516,18.6352 L37.3521794,11.1126054 C37.3521794,11.1126054 37.7030314,9.24233514 39.5959103,9.24233514 L43.3373274,9.24233514 L41.6592646,18.6352 Z M26.0435516,18.6352 C26.0435516,18.6352 25.7189596,20.5288216 23.8209148,20.5288216 L21.9697937,20.5288216 C21.9697937,20.5288216 20.0825112,20.5288216 20.4045202,18.6352 L21.7209686,11.1126054 C21.7209686,11.1126054 22.0769865,9.24233514 23.967713,9.24233514 L27.714296,9.24233514 L26.0435516,18.6352 Z M52.221417,5.48276757 L50.3302601,5.48276757 L47.7020987,20.5110919 C44.8272646,20.3515243 45.4032646,18.6352 45.4032646,18.6352 L47.7279283,5.48276757 L40.2347623,5.48276757 C34.6030493,5.48276757 33.6051659,11.1126054 33.6051659,11.1126054 L32.285704,18.6352 C32.16,19.3353081 32.1470852,19.950227 32.2017578,20.4933622 C29.5232287,20.2468757 29.7853991,18.6352 29.7853991,18.6352 L32.1027444,5.48276757 L24.6061345,5.48276757 C18.9770045,5.48276757 17.9821345,11.1126054 17.9821345,11.1126054 L16.6626726,18.6352 C15.6910493,24.2940108 21.3386906,24.2940108 21.3386906,24.2940108 L23.1876592,24.2940108 C24.5721256,24.2940108 25.7508161,23.2207135 26.5020269,22.2118486 C27.8873543,24.8090378 31.840574,24.2940108 31.840574,24.2940108 L32.445417,21.4983351 C33.440287,24.2840649 36.9565561,24.2940108 36.9565561,24.2940108 L38.8081076,24.2940108 C40.2033363,24.2940108 41.3815964,23.2207135 42.1276413,22.2118486 C43.1591031,23.8996324 44.541417,24.2256865 47.0421525,24.2780108 L47.0421525,24.2940108 L50.7861525,24.2940108 L53.0638924,11.1489297 C53.0638924,11.1489297 53.4280897,9.24233514 55.3183857,9.24233514 L57.1669238,9.24233514 C57.1669238,9.24233514 59.0628161,9.24233514 58.7063677,11.1489297 L56.4208789,24.2940108 L60.1618655,24.2940108 L62.4817937,11.0390919 C63.4478206,5.41184865 57.8161076,5.48276757 57.8161076,5.48276757 L55.9546547,5.48276757 L52.221417,5.48276757 Z M13.2901883,11.1126054 L11.6564664,20.5288216 L7.90213453,20.5288216 C7.90213453,20.5288216 6.05359641,20.5288216 6.37818834,18.6352 L7.69506726,11.1126054 C7.69506726,11.1126054 8.04893274,9.24233514 9.89962332,9.24233514 L11.7929327,9.24233514 C11.7929327,9.24233514 13.6518027,9.24233514 13.2901883,11.1126054 L13.2901883,11.1126054 Z M12.4421166,5.48276757 L10.5544036,5.48276757 C10.5544036,5.48276757 4.95110314,5.48276757 3.94547085,11.1126054 L2.62902242,18.6352 C1.66514798,24.2940108 7.26586547,24.2940108 7.26586547,24.2940108 L11.0176143,24.2940108 L10.6590135,26.1928216 C10.6590135,26.1928216 10.3395874,28.0548757 8.47813453,28.0548757 L2.09736323,28.0548757 L0,31.8135784 L7.80226009,31.8135784 C7.80226009,31.8135784 13.4003946,31.8135784 14.3952646,26.1928216 L18.0290583,5.48276757 L16.1835336,5.48276757 L12.4421166,5.48276757 Z" id="Fill-1"></path>
                            <polygon id="Fill-3" points="80.7626045 5.488 86.3999139 5.488 87.3973668 0 91.5550709 0 90.5705327 5.488 95.9667659 5.488 95.2207211 9.6972973 89.816739 9.6972973 88.8218691 15.248 84.6693309 15.248 85.6508556 9.6972973 80.0088108 9.6972973"></polygon>
                        </g>
                    </g>
                </g>
            </g>
        </g>
    </g>
</svg>