<?xml version="1.0" encoding="UTF-8"?>
<svg width="127px" height="77px" viewBox="0 0 127 77" version="1.1" xmlns="http://www.w3.org/2000/svg" xmlns:xlink="http://www.w3.org/1999/xlink">
    <!-- Generator: Sketch 49.1 (51147) - http://www.bohemiancoding.com/sketch -->
    <title>Graphic - Drinks Break</title>
    <desc>Created with Sketch.</desc>
    <defs>
        <rect id="path-1" x="-1.49213975e-13" y="1.13686838e-13" width="49" height="49"></rect>
    </defs>
    <g id="Video-&amp;-Video-page-details" stroke="none" stroke-width="1" fill="none" fill-rule="evenodd">
        <g id="00-Assets" transform="translate(-395.000000, -82.000000)">
            <g id="Graphic---Drinks-Break" transform="translate(456.000000, 122.000000) scale(-1, -1) translate(-456.000000, -122.000000) translate(390.000000, 82.000000)">
                <g id="BG" opacity="0.200000003" transform="translate(4.000000, 0.000000)">
                    <path d="M15.3341311,4.09010023 L98.0122976,4.09010023 L98.1336931,4.50180395 C98.8234283,6.84187815 102.177077,6.79624852 102.802329,4.43854469 L120.925241,4.43854469" id="Stroke-1" stroke="#000000" stroke-width="0.650000036" stroke-linecap="round"></path>
                    <path d="M0.257750055,36.6087316 C0.456682033,37.2703613 1.1579042,37.6465465 1.82440465,37.4489909 C2.49064403,37.2516946 2.8694502,36.555065 2.67051822,35.8934353 C2.47158624,35.2318056 1.77036407,34.8556204 1.10412469,35.0529167" id="Stroke-20" stroke="#000000" stroke-width="0.650000036" stroke-linecap="round"></path>
                    <path d="M122.414699,37.9636725 C122.131703,37.3328946 121.387667,37.049265 120.752494,37.3303021 C120.117321,37.6110798 119.831716,38.350228 120.11445,38.9810058 C120.397445,39.6117837 121.141743,39.8954133 121.776915,39.6143763" id="Stroke-23" stroke="#000000" stroke-width="0.650000036" stroke-linecap="round"></path>
                    <path d="M4.80005633,37.8230762 C4.55961492,38.0271132 4.53115877,38.385928 4.73661739,38.6247058 C4.94181494,38.8632244 5.30339078,38.8914836 5.54357112,38.6877058 C5.78401253,38.4836688 5.81246868,38.1248539 5.60727113,37.8860762" id="Stroke-25" stroke="#000000" stroke-width="0.650000036" stroke-linecap="round"></path>
                    <path d="M84.0068859,54.5490586 L85.8228581,54.5490586 L85.8228581,55.5912808 C85.8228581,57.0197994 86.988777,58.1776513 88.4272484,58.1776513 C89.5010112,58.1776513 90.4228337,57.532355 90.8214809,56.6112068 C90.9567129,56.2982809 91.0316387,55.953466 91.0316387,55.5912808 L91.1292772,55.5912808 C91.7088428,55.5912808 92.1787609,55.1246141 92.1787609,54.5490586 L93.421172,54.5490586" id="Stroke-31" stroke="#000000" stroke-width="0.650000036" stroke-linecap="round"></path>
                    <path d="M88.3882452,57.5242402 C87.257048,57.5242402 86.3401857,56.6137216 86.3401857,55.4903512 L86.3401857,55.2800919 L90.4363047,55.2800919 L90.4363047,55.4903512 C90.4363047,56.6137216 89.5194424,57.5242402 88.3882452,57.5242402" id="Fill-34" fill="#FFDEEF"></path>
                </g>
                <g id="Trolley" transform="translate(24.000000, 5.000000)">
                    <path d="M66.9748063,21.1269033 L46.0511316,29.4385477 C43.918748,30.2855996 41.5992326,28.7261033 41.5992326,26.4454515 L41.5992326,21.8105182 L6.44372489,21.8105182 C2.884879,21.8105182 0,18.9455996 0,15.4113774 L0,11.1991404 C0,7.66491822 2.884879,4.79999971 6.44372489,4.79999971 L8.3568134,4.79999971 C8.35576914,4.85392564 8.35284521,4.90764416 8.35284521,4.9619849 C8.35284521,9.19703673 11.8099799,12.6302515 16.0745383,12.6302515 C20.3390966,12.6302515 23.7962314,9.19703673 23.7962314,4.9619849 C23.7962314,4.90764416 23.7933074,4.85392564 23.7920543,4.79999971 L42.473489,4.79999971 C42.4722359,4.85392564 42.4693119,4.90764416 42.4693119,4.9619849 C42.4693119,9.19703673 45.9264467,12.6302515 50.191005,12.6302515 C54.4555634,12.6302515 57.9126981,9.19703673 57.9126981,4.9619849 C57.9126981,4.90764416 57.9097742,4.85392564 57.908521,4.79999971 L58.3936853,4.79999971 C64.8852374,4.79999971 70.1479016,10.0260441 70.1479016,16.4726811 C70.1479016,18.5224885 68.8912364,20.3657182 66.9748063,21.1269033" id="Fill-38" fill="#FFFFFF"></path>
                    <path d="M22.5476069,9.49515255 C23.3410374,8.29032292 23.8038545,6.85153775 23.8038545,5.3044859 C23.8038545,5.25014516 23.8009305,5.19663405 23.7998863,5.14250072 L42.4811121,5.14250072 C42.4800678,5.19663405 42.4769351,5.25014516 42.4769351,5.3044859 C42.4769351,6.85153775 42.939961,8.29032292 43.7331826,9.49515255 L22.5476069,9.49515255 Z" id="Fill-41" fill="#FCFCFC"></path>
                    <path d="M56.6640946,9.49515255 C57.457525,8.29032292 57.9203421,6.85153775 57.9203421,5.3044859 C57.9203421,5.25014516 57.9174182,5.19663405 57.9163739,5.14250072 L58.4015382,5.14250072 C62.1011506,5.14250072 65.3997663,6.84158219 67.5544971,9.49515255 L56.6640946,9.49515255 Z" id="Fill-44" fill="#FCFCFC"></path>
                    <path d="M0.34625649,9.49515255 C1.20610206,6.9649896 3.6137532,5.14250072 6.45143154,5.14250072 L8.36472891,5.14250072 C8.3634758,5.19663405 8.36055186,5.25014516 8.36055186,5.3044859 C8.36055186,6.85153775 8.82336891,8.29032292 9.6167994,9.49515255 L0.34625649,9.49515255 Z" id="Fill-46" fill="#FCFCFC"></path>
                    <path d="M66.9825129,21.4694251 L46.0588382,29.7810695 C43.9264547,30.6281213 41.6069393,29.0686251 41.6069393,26.7879732 L41.6069393,22.1530399 L6.45143154,22.1530399 C2.89258566,22.1530399 0.0077066557,19.2881214 0.0077066557,15.7538992 L0.0077066557,11.5416622 C0.0077066557,8.00743996 2.89258566,5.14252146 6.45143154,5.14252146 L8.36452006,5.14252146 C8.3634758,5.19644738 8.36055186,5.2501659 8.36055186,5.30450664 C8.36055186,9.53955847 11.8176866,12.9727733 16.0822449,12.9727733 C20.3468033,12.9727733 23.803938,9.53955847 23.803938,5.30450664 C23.803938,5.2501659 23.8010141,5.19644738 23.799761,5.14252146 L42.4811956,5.14252146 C42.4799425,5.19644738 42.4770186,5.2501659 42.4770186,5.30450664 C42.4770186,9.53955847 45.9341533,12.9727733 50.1987117,12.9727733 C54.46327,12.9727733 57.9204048,9.53955847 57.9204048,5.30450664 C57.9204048,5.2501659 57.9174808,5.19644738 57.9162277,5.14252146 L58.401392,5.14252146 C64.8929441,5.14252146 70.1556083,10.3685659 70.1556083,16.8152029 C70.1556083,18.8650103 68.8989431,20.7082399 66.9825129,21.4694251 Z" id="Stroke-49" stroke="#FF7BC0" stroke-width="1.45599999" stroke-linecap="round" stroke-linejoin="round"></path>
                    <path d="M16.0822241,0.36908148 C13.3374851,0.36908148 11.112371,2.57879999 11.112371,5.30454812 C11.112371,8.03029626 13.3374851,10.2398074 16.0822241,10.2398074 C18.8269631,10.2398074 21.0520771,8.03029626 21.0520771,5.30454812 C21.0520771,2.57879999 18.8269631,0.36908148 16.0822241,0.36908148" id="Fill-52" fill="#FFDEEF"></path>
                    <path d="M16.0822241,0.36908148 C13.3374851,0.36908148 11.112371,2.57879999 11.112371,5.30454812 C11.112371,8.03029626 13.3374851,10.2398074 16.0822241,10.2398074 C18.8269631,10.2398074 21.0520771,8.03029626 21.0520771,5.30454812 C21.0520771,2.57879999 18.8269631,0.36908148 16.0822241,0.36908148 Z" id="Stroke-55" stroke="#FF7BC0" stroke-width="1.45599999" stroke-linecap="round" stroke-linejoin="round"></path>
                    <path d="M50.3796406,0.36908148 C47.6349016,0.36908148 45.4097875,2.57879999 45.4097875,5.30454812 C45.4097875,8.03029626 47.6349016,10.2398074 50.3796406,10.2398074 C53.1243796,10.2398074 55.3494936,8.03029626 55.3494936,5.30454812 C55.3494936,2.57879999 53.1243796,0.36908148 50.3796406,0.36908148" id="Fill-58" fill="#FFDEEF"></path>
                    <path d="M50.3796406,0.36908148 C47.6349016,0.36908148 45.4097875,2.57879999 45.4097875,5.30454812 C45.4097875,8.03029626 47.6349016,10.2398074 50.3796406,10.2398074 C53.1243796,10.2398074 55.3494936,8.03029626 55.3494936,5.30454812 C55.3494936,2.57879999 53.1243796,0.36908148 50.3796406,0.36908148 Z" id="Stroke-61" stroke="#FF7BC0" stroke-width="1.45599999" stroke-linecap="round" stroke-linejoin="round"></path>
                    <path d="M45.409871,49.8560946 L48.3292107,28.8791169" id="Stroke-72" stroke="#FF7BC0" stroke-width="1.45599999" stroke-linecap="round" stroke-linejoin="round"></path>
                    <path d="M49.9268275,49.5320827 L24.3578565,49.5320827 L24.3578565,52.1242605 L46.2850672,52.1242605 C47.1480456,52.1242605 47.9688357,51.7542457 48.5371233,51.1092087 L49.9268275,49.5320827 Z" id="Fill-73" fill="#FFDEEF"></path>
                    <path d="M49.9268275,49.5320827 L24.3578565,49.5320827 L24.3578565,52.1242605 L46.2850672,52.1242605 C47.1480456,52.1242605 47.9688357,51.7542457 48.5371233,51.1092087 L49.9268275,49.5320827 Z" id="Stroke-74" stroke="#FF7BC0" stroke-width="1.45599999" stroke-linecap="round" stroke-linejoin="round"></path>
                    <path d="M40.8434373,30.9685184 L38.3956865,26.3895851" id="Stroke-75" stroke="#FF7BC0" stroke-width="1.45599999" stroke-linecap="round" stroke-linejoin="round"></path>
                    <path d="M39.7636283,28.6030991 L41.636826,27.6156325" id="Stroke-76" stroke="#FF7BC0" stroke-width="1.45599999" stroke-linecap="round" stroke-linejoin="round"></path>
                </g>
                <g id="ic_play" transform="translate(28.500000, 51.500000) scale(-1, -1) rotate(10.000000) translate(-28.500000, -51.500000) translate(4.000000, 27.000000)">
                    <g id="Rectangle-15">
                        <use fill="#FFFFFF" fill-rule="evenodd" xlink:href="#path-1"></use>
                        <rect stroke="#FF7BC0" stroke-width="2" x="1" y="1" width="47" height="47"></rect>
                    </g>
                    <path d="M19.4684042,15.9774781 L30.5000235,23.9064545 C30.8363713,24.1482044 30.9130579,24.6168452 30.671308,24.953193 C30.6238714,25.0191918 30.5660222,25.0770409 30.5000235,25.1244775 L19.4684042,33.0534538 C19.1320565,33.2952038 18.6634156,33.2185171 18.4216657,32.8821694 C18.3299923,32.7546238 18.2806772,32.6015151 18.2806772,32.4444423 L18.2806772,16.5864897 C18.2806772,16.1722761 18.6164636,15.8364897 19.0306772,15.8364897 C19.18775,15.8364897 19.3408587,15.8858048 19.4684042,15.9774781 Z" id="Rectangle-3-Copy-2" fill="#FF7BC0"></path>
                </g>
                <path d="M119.159346,5.19096695 C119.065363,5.18759658 118.974251,5.16685584 118.884967,5.14248547 L118.859382,5.24826325 L118.8539,5.24826325 C118.8539,5.24826325 118.559679,10.5713747 119.095908,13.5339304 L119.788253,13.5440415 L120.332575,5.22026325 L119.159346,5.19096695 Z M123.419154,12.5256711 C123.356498,12.6021525 123.236669,12.7667822 123.097782,12.7667822 L123.096477,12.7667822 C123.0923,12.7667822 122.884491,15.9253379 122.344608,17.353338 L122.571996,17.4381158 C122.41144,17.9104862 122.079365,18.6498936 121.90184,19.0351529 L122.023497,19.0927085 L121.819083,19.5635233 L121.835791,19.5725974 C121.827437,20.7097085 121.835269,21.7765605 121.851977,22.7365975 L121.849627,22.7394494 C122.287173,22.7487827 122.643528,23.0974865 122.65136,23.5356346 C122.655276,23.770005 122.557898,23.9813013 122.400998,24.1327087 C122.598625,24.9257829 122.584788,26.5645607 122.584788,26.5645607 L122.485061,27.2318941 C122.319545,28.3373756 121.496145,29.2331164 120.40228,29.4970424 C119.51048,29.7122276 118.610064,29.1755609 118.381632,28.292783 L118.138319,27.4234867 L117.433442,27.4359311 C117.49662,27.4265978 117.558492,27.4076719 117.620887,27.3905608 L117.095623,27.4418941 L117.433442,27.4359311 C116.806623,27.529783 116.156048,27.2479682 115.790556,26.6864126 C115.735471,26.6016348 115.709626,26.5388941 115.753485,26.5381163 L118.012746,26.4984496 L118.031804,26.5033755 L117.400548,22.7163753 C117.30813,21.6399308 117.367392,20.5557085 117.576245,19.4953381 L117.643861,19.1536344 L117.49923,18.8103751 L117.561886,18.3898566 C117.419344,18.0621528 117.272625,17.7072269 117.181252,17.4386343 L117.408641,17.353338 C116.868757,15.9253379 116.660949,12.7667822 116.656772,12.7667822 L116.655466,12.7667822 C116.51658,12.7667822 116.39675,12.6021525 116.334095,12.5256711 C116.266479,12.4434859 116.247421,12.1033377 116.243766,11.8217821 C116.240633,11.5778192 116.371166,11.3520043 116.584718,11.2311895 L116.723605,11.1526339 C116.825942,11.0948191 116.951515,11.1674117 116.954125,11.2843377 C116.963002,11.6833377 117.147314,12.132634 117.147314,12.132634 C117.163761,12.1341896 117.191434,11.9755229 117.210492,11.8521155 C117.220151,11.7893747 117.294294,11.7603377 117.34468,11.7997451 C117.395587,11.8401895 117.42326,11.902671 117.418561,11.9674858 C117.414123,12.0289303 117.403158,12.1160414 117.378879,12.224671 C117.326666,12.4561896 117.05333,12.6991155 117.05333,12.6991155 L117.030096,12.7035229 C117.126168,14.1434489 117.491137,15.5260786 117.778832,16.4301157 L117.855324,14.7459675 L117.903882,14.0488193 L118.446115,5.45722623 L117.223023,5.41418919 C116.926191,5.40381882 116.64398,5.23789288 116.432255,5.03074472 C116.336444,4.93715212 116.403277,4.7297447 116.537726,4.7297447 L118.626251,4.7297447 L118.830665,4.7297447 L120.91919,4.7297447 C121.09071,4.7297447 121.217588,4.93404101 121.178428,5.09996695 L121.100108,5.45437437 L121.074785,5.44685586 C121.018917,6.46237443 120.797794,11.1083006 121.273456,13.7848934 L121.324886,13.7947452 C121.691422,13.8727822 121.953531,14.2142267 121.953531,14.586523 C121.95327,14.6725971 121.953793,14.5815971 121.954837,14.8408564 L121.957708,14.8408564 C121.957708,14.8408564 122.011227,14.8916712 122.011227,14.9090416 L122.011227,14.8800045 C122.011227,15.6497453 121.916982,16.229449 121.894008,16.7749306 C122.189535,15.9040787 122.628386,14.3399675 122.73725,12.7105229 L122.706706,12.7027451 C122.706706,12.7027451 122.429976,12.4580044 122.378024,12.2264859 C122.353484,12.1178562 122.340953,12.0299673 122.336515,11.9682636 C122.331554,11.9034488 122.358444,11.8407081 122.409613,11.8002636 C122.459999,11.7608562 122.533619,11.789634 122.543279,11.8523747 C122.562336,11.9757821 122.589748,12.1344488 122.606195,12.132634 C122.606195,12.132634 122.790247,11.6835969 122.799384,11.2845969 C122.801995,11.167671 122.927306,11.0950784 123.029644,11.1528932 L123.168531,11.2314488 C123.382082,11.3522636 123.512615,11.5778192 123.509482,11.8217821 C123.505827,12.1033377 123.48677,12.4434859 123.419154,12.5256711 Z" id="Fill-77" fill="#FFDEEF"></path>
                <path d="M110.520216,5.24839288 L110.514734,5.24839288 L110.489149,5.14235584 C110.399865,5.16698547 110.308753,5.18772621 110.214769,5.19109658 L109.041541,5.22039288 L109.585862,13.5441711 L110.278208,13.5338007 C110.814437,10.5715043 110.520216,5.24839288 110.520216,5.24839288 M115.821936,15.4683934 C115.426161,15.3991712 114.946322,15.490949 114.946322,15.490949 C114.941362,15.5067638 115.092519,15.5645786 115.210521,15.6070972 C115.270827,15.6288749 115.284663,15.706912 115.235844,15.7481342 C115.186241,15.7901342 115.119148,15.804912 115.056231,15.7875416 C114.996186,15.770949 114.912384,15.7434675 114.809785,15.6986157 C114.591273,15.6026897 114.40435,15.2892453 114.40435,15.2892453 L114.404872,15.2653934 C113.7355,15.1785416 113.074482,15.1523564 112.45654,15.1575416 C112.33906,15.958912 112.178505,16.7903565 111.965475,17.3532084 L112.192863,17.4387639 C112.10149,17.7073565 111.954772,18.0622825 111.81223,18.3897269 L111.874886,18.8105047 L111.730255,19.153764 L111.797871,19.4954677 C112.006724,20.5558382 112.065986,21.6398012 111.973568,22.716505 L111.342312,26.5035052 L111.36137,26.49832 L113.62037,26.5379866 C113.66449,26.5387644 113.638645,26.6015052 113.58356,26.6865422 C113.218068,27.2478385 112.567493,27.5299126 111.940674,27.4360608 L112.278493,27.4420237 L111.753229,27.3906904 C111.815363,27.4075422 111.877496,27.4264682 111.940674,27.4360608 L111.235797,27.4236163 L110.992484,28.2929127 C110.764051,29.1756905 109.863636,29.7120979 108.971836,29.4969127 C107.877971,29.2329868 107.054571,28.337246 106.889055,27.2317645 L106.789328,26.5646904 C106.789328,26.5646904 106.775491,24.9256532 106.973118,24.1325791 C106.816218,23.9814309 106.718579,23.7701346 106.722756,23.5357643 C106.730588,23.0973568 107.086943,22.7486531 107.524228,22.739579 L107.522139,22.7367272 C107.538847,21.7764308 107.546679,20.7098382 107.538325,19.5724677 L107.555033,19.5636529 L107.350619,19.0925788 L107.472275,19.0352825 C107.294751,18.649764 106.962675,17.9106158 106.80212,17.4379861 L107.029247,17.3532084 C106.489625,15.9254675 106.281816,12.7669118 106.277639,12.7669118 L106.276334,12.7669118 C106.137447,12.7669118 106.017618,12.6020229 105.954962,12.5258007 C105.887346,12.4433562 105.868289,12.1029488 105.864634,11.821134 C105.861501,11.5774303 105.992556,11.352134 106.205585,11.2315784 L106.344472,11.1530228 C106.44681,11.095208 106.572121,11.1678006 106.574993,11.2844673 C106.583869,11.6834673 106.767921,12.1327636 106.767921,12.1327636 C106.784629,12.1345784 106.812302,11.9756525 106.831359,11.8525044 C106.841019,11.7895044 106.9149,11.7609858 106.965286,11.8003932 C107.016455,11.8405784 107.044389,11.9035784 107.039429,11.9683933 C107.03473,12.0298377 107.024026,12.1177266 106.999486,12.2263562 C106.947273,12.458134 106.674198,12.7028748 106.674198,12.7028748 L106.650441,12.7106526 C106.759044,14.3400971 107.198679,15.903949 107.494205,16.7750602 C107.471753,16.2360602 107.393695,15.6630972 107.391867,14.9073564 C107.392912,14.8892082 107.416407,14.840986 107.416407,14.840986 L107.419279,14.840986 C107.420323,14.5721341 107.420846,14.6797267 107.420585,14.5762823 C107.419801,14.2122823 107.714022,13.8583934 108.074032,13.7899489 L108.10066,13.785023 C108.576322,11.1084302 108.355199,6.46250406 108.299331,5.44698548 L108.274008,5.45424474 L108.195688,5.10009658 C108.156528,4.93417064 108.283406,4.72987433 108.454926,4.72987433 L110.543451,4.72987433 L110.747865,4.72987433 L112.82908,4.72987433 C112.985459,4.72987433 113.057774,4.91654101 112.946821,5.02594842 C112.734575,5.23517066 112.450274,5.40394845 112.151093,5.41431882 L110.928001,5.4570966 L111.470234,14.0489489 L111.518792,14.7460971 L111.595284,16.4302453 C111.71433,16.0561342 111.906213,15.414986 112.066247,14.9156527 C112.110106,14.7785045 112.242205,14.6890601 112.387096,14.6983934 C113.489054,14.7696897 114.440377,14.8918008 114.440377,14.8894675 L114.440377,14.8881712 C114.440377,14.7530971 114.640875,14.6683193 114.728594,14.6221712 C114.82336,14.5723934 115.157524,14.6203564 115.436864,14.671949 C115.677306,14.7165416 115.873888,14.8876527 115.948814,15.1189119 L115.997633,15.2695416 C116.034966,15.3805045 115.937849,15.4886157 115.821936,15.4683934" id="Fill-78" fill="#FFDEEF"></path>
            </g>
        </g>
    </g>
</svg>