<?xml version="1.0" encoding="UTF-8"?>
<svg width="237px" height="164px" viewBox="0 0 237 164" version="1.1" xmlns="http://www.w3.org/2000/svg" xmlns:xlink="http://www.w3.org/1999/xlink">
    <!-- Generator: Sketch 49.1 (51147) - http://www.bohemiancoding.com/sketch -->
    <title>Graphic - Payment History</title>
    <desc>Created with Sketch.</desc>
    <defs>
        <polygon id="path-1" points="0.112992006 0.0443520024 5.5376643 0.0443520024 5.5376643 35.2434739 0.112992006 35.2434739"></polygon>
    </defs>
    <g id="My-Account" stroke="none" stroke-width="1" fill="none" fill-rule="evenodd">
        <g id="00-Assets" transform="translate(-59.000000, -474.000000)">
            <g id="Graphic---Payment-History" transform="translate(54.000000, 464.000000)">
                <g id="Score" transform="translate(123.780000, 92.212009) scale(1, -1) translate(-123.780000, -92.212009) translate(5.280000, 10.712009)">
                    <g id="Group-65" transform="translate(0.000000, 0.439824)">
                        <g id="Group-3" transform="translate(45.936003, 0.000000)" stroke="#000000" stroke-linecap="round" stroke-width="1.05600006">
                            <path d="M0.55783203,0.308246417 L0.508728028,0.308246417" id="Stroke-1"></path>
                        </g>
                        <g id="Group-11" transform="translate(1.584000, 32.208002)"></g>
                        <g id="Group-16" transform="translate(26.928001, 8.976000)"></g>
                        <path d="M178.681651,0.308246417 L191.683124,0.308246417" id="Stroke-4" stroke="#BFBFBF" stroke-width="1.05600006" stroke-linecap="round" stroke-linejoin="round"></path>
                        <path d="M49.7849115,0.308246417 L108.347507,0.308246417 L112.966451,0.308246417 L153.087061,0.308246417 C153.087061,2.44770253 154.821541,4.18218263 156.960997,4.18218263 C159.100453,4.18218263 160.834406,2.44770253 160.834406,0.308246417 L175.914614,0.308246417" id="Stroke-6" stroke="#BFBFBF" stroke-width="1.05600006" stroke-linecap="round" stroke-linejoin="round"></path>
                        <path d="M213.576012,9.02024689 L214.104012,9.02024689" id="Stroke-12" stroke="#BFBFBF" stroke-width="1.05600006" stroke-linecap="round"></path>
                        <path d="M27.1920015,9.02024689 L211.464012,9.02024689" id="Stroke-14" stroke="#BFBFBF" stroke-width="1.05600006" stroke-linecap="round"></path>
                        <g id="Group-19" transform="translate(10.560001, 8.976000)" stroke="#BFBFBF" stroke-linecap="round" stroke-width="1.05600006">
                            <path d="M0.264000014,0.0442464024 L13.4640007,0.0442464024" id="Stroke-17"></path>
                        </g>
                        <g id="Group-22" transform="translate(32.736002, 8.976000)" fill="#F2F2F2">
                            <path d="M29.6052784,0.347582419 L0.275404815,0.347582419 L2.07430091,12.7487191 C2.52415694,15.8486073 5.18158108,18.1485754 8.31420525,18.1485754 L21.566478,18.1485754 C24.6991021,18.1485754 27.3565263,15.8486073 27.8063823,12.7487191 L29.6052784,0.347582419 Z" id="Fill-20"></path>
                        </g>
                        <g id="Group-25" transform="translate(32.736002, 8.976000)" stroke="#BFBFBF" stroke-linecap="round" stroke-width="1.05600006">
                            <path d="M29.6052784,0.347582419 L0.275404815,0.347582419 L2.07430091,12.7487191 C2.52415694,15.8486073 5.18158108,18.1485754 8.31420525,18.1485754 L21.566478,18.1485754 C24.6991021,18.1485754 27.3565263,15.8486073 27.8063823,12.7487191 L29.6052784,0.347582419 Z" id="Stroke-23"></path>
                        </g>
                        <g id="Group-28" transform="translate(40.656002, 21.120001)" stroke="#FFFFFF" stroke-linecap="round" stroke-width="1.58400009">
                            <path d="M0.264000014,0.308246417 L13.9920008,0.308246417" id="Stroke-26"></path>
                        </g>
                        <g id="Group-31" transform="translate(79.200004, 8.976000)" fill="#F2F2F2">
                            <path d="M29.7492112,0.347582419 L0.419337623,0.347582419 L2.21876172,12.7487191 C2.66808975,15.8486073 5.32551389,18.1485754 8.45813806,18.1485754 L21.7104108,18.1485754 C24.843035,18.1485754 27.5004591,15.8486073 27.9503151,12.7487191 L29.7492112,0.347582419 Z" id="Fill-29"></path>
                        </g>
                        <g id="Group-34" transform="translate(79.200004, 8.976000)" stroke="#BFBFBF" stroke-linecap="round" stroke-width="1.05600006">
                            <path d="M29.7492112,0.347582419 L0.419337623,0.347582419 L2.21876172,12.7487191 C2.66808975,15.8486073 5.32551389,18.1485754 8.45813806,18.1485754 L21.7104108,18.1485754 C24.843035,18.1485754 27.5004591,15.8486073 27.9503151,12.7487191 L29.7492112,0.347582419 Z" id="Stroke-32"></path>
                        </g>
                        <g id="Group-37" transform="translate(87.120005, 21.120001)" stroke="#FFFFFF" stroke-linecap="round" stroke-width="1.58400009">
                            <path d="M0.264000014,0.308246417 L13.9920008,0.308246417" id="Stroke-35"></path>
                        </g>
                        <path d="M155.413218,9.32358291 L126.083344,9.32358291 L127.882241,21.7247196 C128.332097,24.8246078 130.989521,27.1245759 134.122145,27.1245759 L147.374418,27.1245759 C150.507042,27.1245759 153.164466,24.8246078 153.614322,21.7247196 L155.413218,9.32358291 Z" id="Fill-38" fill="#F2F2F2"></path>
                        <path d="M155.413218,9.32358291 L126.083344,9.32358291 L127.882241,21.7247196 C128.332097,24.8246078 130.989521,27.1245759 134.122145,27.1245759 L147.374418,27.1245759 C150.507042,27.1245759 153.164466,24.8246078 153.614322,21.7247196 L155.413218,9.32358291 Z" id="Stroke-40" stroke="#BFBFBF" stroke-width="1.05600006" stroke-linecap="round"></path>
                        <path d="M133.848007,21.4282476 L147.576008,21.4282476" id="Stroke-42" stroke="#FFFFFF" stroke-width="1.58400009" stroke-linecap="round"></path>
                        <path d="M201.877221,9.32358291 L172.547347,9.32358291 L174.346771,21.7247196 C174.796099,24.8246078 177.453523,27.1245759 180.586147,27.1245759 L193.83842,27.1245759 C196.971044,27.1245759 199.628469,24.8246078 200.078325,21.7247196 L201.877221,9.32358291 Z" id="Fill-44" fill="#F2F2F2"></path>
                        <path d="M201.877221,9.32358291 L172.547347,9.32358291 L174.346771,21.7247196 C174.796099,24.8246078 177.453523,27.1245759 180.586147,27.1245759 L193.83842,27.1245759 C196.971044,27.1245759 199.628469,24.8246078 200.078325,21.7247196 L201.877221,9.32358291 Z" id="Stroke-46" stroke="#BFBFBF" stroke-width="1.05600006" stroke-linecap="round"></path>
                        <path d="M180.31201,21.4282476 L194.040011,21.4282476" id="Stroke-48" stroke="#FFFFFF" stroke-width="1.58400009" stroke-linecap="round"></path>
                        <path d="M3.51674419,108.58215 L0.510312028,108.58215" id="Stroke-50" stroke="#BFBFBF" stroke-width="1.17902406" stroke-linecap="round"></path>
                        <path d="M6.31329634,108.58215 L11.6270886,108.58215 L11.6270886,111.652998 C11.6270886,115.861686 15.0390248,119.273623 19.2477131,119.273623 L19.2477131,119.273623 C22.3893132,119.273623 25.0873934,117.372822 26.2532174,114.657846 C26.6492175,113.735958 26.8683375,112.720086 26.8683375,111.652998 L27.1534575,111.652998 C28.8493936,111.652998 30.2243057,110.278086 30.2243057,108.58215 L30.2243057,108.58215 L33.8601139,108.58215" id="Stroke-53" stroke="#BFBFBF" stroke-width="1.17902406" stroke-linecap="round"></path>
                        <g id="Group-58" transform="translate(13.200001, 110.880006)" fill="#7898FF" opacity="0.200000003">
                            <path d="M6.13462114,6.85608037 L6.13462114,6.85608037 C2.81086095,6.85608037 0.116476806,4.16169623 0.116476806,0.837936046 L0.116476806,0.215424012 L12.1527655,0.215424012 L12.1527655,0.837936046 C12.1527655,4.16169623 9.45838132,6.85608037 6.13462114,6.85608037" id="Fill-56"></path>
                        </g>
                        <path d="M210.779354,65.1354564 L208.828394,65.1354564" id="Stroke-59" stroke="#BFBFBF" stroke-width="1.17902406" stroke-linecap="round"></path>
                        <path d="M212.594301,65.1354564 L216.042669,65.1354564 L216.042669,67.1286565 C216.042669,69.8600006 218.257102,72.0744327 220.988446,72.0744327 L220.988446,72.0744327 C223.027582,72.0744327 224.77843,70.8404967 225.535054,69.0785606 C225.79219,68.4803365 225.93475,67.8208645 225.93475,67.1286565 L226.11955,67.1286565 C227.22043,67.1286565 228.11275,66.2363364 228.11275,65.1354564 L228.11275,65.1354564 L230.471854,65.1354564" id="Stroke-61" stroke="#BFBFBF" stroke-width="1.17902406" stroke-linecap="round"></path>
                        <path d="M220.914473,70.8247095 L220.914473,70.8247095 C218.766569,70.8247095 217.025225,69.0833654 217.025225,66.9354613 L217.025225,66.5331252 L224.803721,66.5331252 L224.803721,66.9354613 C224.803721,69.0833654 223.062377,70.8247095 220.914473,70.8247095" id="Fill-63" fill="#7898FF" opacity="0.200000003"></path>
                    </g>
                    <polygon id="Fill-66" fill="#C7DAFF" points="48.3183386 68.4187717 53.7424829 68.4187717 53.7424829 33.2196498 48.3183386 33.2196498"></polygon>
                    <polygon id="Fill-68" fill="#A9CAFF" points="48.3183386 68.4187717 53.7424829 68.4187717 53.7424829 47.4756506 48.3183386 47.4756506"></polygon>
                    <g id="Group-71" transform="translate(48.048003, 33.175826)" stroke="#7898FF" stroke-linecap="round" stroke-linejoin="round" stroke-width="1.58400009">
                        <polygon id="Stroke-69" points="0.270336015 35.2434739 5.69500831 35.2434739 5.69500831 0 0.270336015 0"></polygon>
                    </g>
                    <polygon id="Fill-72" fill="#C7DAFF" points="184.38553 68.4187717 189.809674 68.4187717 189.809674 33.2196498 184.38553 33.2196498"></polygon>
                    <g id="Group-75" transform="translate(184.272010, 33.175826)">
                        <mask id="mask-2" fill="white">
                            <use xlink:href="#path-1"></use>
                        </mask>
                        <g id="Clip-74"></g>
                        <polygon id="Stroke-73" stroke="#7898FF" stroke-width="0.528000029" mask="url(#mask-2)" points="0.112992006 35.2434739 5.5376643 35.2434739 5.5376643 -24.2489293 0.112992006 -24.2489293"></polygon>
                    </g>
                    <polygon id="Fill-76" fill="#A9CAFF" points="184.385002 68.4192997 189.809674 68.4192997 189.809674 47.4761786 184.385002 47.4761786"></polygon>
                    <g id="Group-2" transform="translate(38.544002, 33.175826)">
                        <polygon id="Stroke-77" stroke="#7898FF" stroke-width="1.58400009" stroke-linecap="round" stroke-linejoin="round" points="145.841 35.2434739 151.265672 35.2434739 151.265672 0 145.841 0"></polygon>
                        <path d="M153.366162,19.8777755 L7.67405802,19.8777755 C3.56093779,19.8777755 0.227145612,23.2120957 0.227145612,27.3246879 L0.227145612,114.195477 C0.227145612,122.014629 6.56578596,128.353269 14.3849384,128.353269 L146.655282,128.353269 C154.474434,128.353269 160.813074,122.014629 160.813074,114.195477 L160.813074,27.3246879 C160.813074,23.2120957 157.478754,19.8777755 153.366162,19.8777755" id="Fill-79" fill="#FFFFFF"></path>
                        <path d="M146.655123,128.353533 L14.38478,128.353533 C6.56562756,128.353533 0.226987212,122.014893 0.226987212,114.195741 L0.226987212,27.3244239 C0.226987212,23.2118317 3.56130739,19.8780395 7.67389962,19.8780395 L153.366004,19.8780395 C157.479124,19.8780395 160.812916,23.2118317 160.812916,27.3244239 L160.812916,114.195741 C160.812916,122.014893 154.474276,128.353533 146.655123,128.353533 M146.655123,123.601533 C151.841667,123.601533 156.060916,119.381757 156.060916,114.195741 L156.060916,27.3244239 C156.060916,25.8386318 154.852324,24.6300397 153.366004,24.6300397 L7.67389962,24.6300397 C6.18757954,24.6300397 4.97898747,25.8386318 4.97898747,27.3244239 L4.97898747,114.195741 C4.97898747,119.381757 9.1987637,123.601533 14.38478,123.601533 L146.655123,123.601533" id="Fill-80" fill="#F2F2F2"></path>
                        <path d="M153.366162,19.8777755 L7.67405802,19.8777755 C3.56093779,19.8777755 0.227145612,23.2120957 0.227145612,27.3246879 L0.227145612,114.195477 C0.227145612,122.014629 6.56578596,128.353269 14.3849384,128.353269 L146.655282,128.353269 C154.474434,128.353269 160.813074,122.014629 160.813074,114.195477 L160.813074,27.3246879 C160.813074,23.2120957 157.478754,19.8777755 153.366162,19.8777755 Z" id="Stroke-81" stroke="#7898FF" stroke-width="3.6960002" stroke-linecap="round" stroke-linejoin="round"></path>
                    </g>
                    <path d="M1.8480001,32.6920722 L235.752013,32.6920722" id="Stroke-9" stroke="#BFBFBF" stroke-width="1.05600006" stroke-linecap="round"></path>
                </g>
                <text id="PAYMENT-HISTORY" opacity="0.200000003" font-family=".SFNSDisplay, .SF NS Display" font-size="28" font-weight="normal" line-spacing="30.8999996" fill="#615F67">
                    <tspan x="52.2899599" y="59.033878">PAYMENT</tspan>
                    <tspan x="58.4901552" y="89.9338776">HISTORY</tspan>
                </text>
            </g>
        </g>
    </g>
</svg>