<?xml version="1.0" encoding="UTF-8"?>
<svg width="121px" height="65px" viewBox="0 0 121 65" version="1.1" xmlns="http://www.w3.org/2000/svg" xmlns:xlink="http://www.w3.org/1999/xlink">
    <!-- Generator: Sketch 48.2 (47327) - http://www.bohemiancoding.com/sketch -->
    <title>Graphic - Player Cap</title>
    <desc>Created with Sketch.</desc>
    <defs></defs>
    <g id="Contact-Us" stroke="none" stroke-width="1" fill="none" fill-rule="evenodd" transform="translate(-875.000000, -540.000000)">
        <g id="Content" transform="translate(20.000000, 357.000000)">
            <g id="Graphic---Player-Cap" transform="translate(910.500000, 218.000000) scale(1, -1) translate(-910.500000, -218.000000) translate(845.000000, 184.000000)">
                <g id="BG" opacity="0.200000003">
                    <path d="M12.8603355,5.12904515 L97.255448,5.12904515 L97.4077355,5.64553058 C98.2729905,8.58117136 102.480055,8.52392864 103.264418,5.56617136 L112.89914,5.56617136" id="Stroke-3" stroke="#000000" stroke-width="0.732095994" stroke-linecap="round"></path>
                    <path d="M10.649907,39.4190597 C10.899462,40.2490791 11.779127,40.7210063 12.6152345,40.4734966 C13.4510145,40.2256617 13.926217,39.3517345 13.676662,38.521715 C13.427107,37.6916956 12.547442,37.2197684 11.711662,37.4672782" id="Stroke-22" stroke="#000000" stroke-width="0.732095994" stroke-linecap="round"></path>
                    <path d="M104.942593,60.6334063 C104.587583,59.8420908 103.654208,59.4862752 102.857401,59.8388383 C102.060593,60.1910762 101.702308,61.1183432 102.056991,61.9096587 C102.412001,62.7009743 103.345703,63.0567898 104.142511,62.7042267" id="Stroke-25" stroke="#000000" stroke-width="0.732095994" stroke-linecap="round"></path>
                    <path d="M16.3480795,40.9424641 C16.046452,41.1984301 16.0107545,41.648566 16.268497,41.9481146 C16.525912,42.2473379 16.9794995,42.2827893 17.2807995,42.0271485 C17.582427,41.7711825 17.6181245,41.3210466 17.3607095,41.0214981" id="Stroke-28" stroke="#000000" stroke-width="0.732095994" stroke-linecap="round"></path>
                    <path d="M112.592306,42.6165859 L116.102451,42.6165859 L116.102451,44.6311393 C116.102451,47.39245 118.356306,49.6307704 121.136781,49.6307704 C123.212148,49.6307704 124.994403,48.3834646 125.764356,46.6027607 C126.026028,45.9978092 126.171111,45.3313869 126.171111,44.6311393 L126.359423,44.6311393 C127.479801,44.6311393 128.387958,43.7292413 128.387958,42.6165859 L130.789516,42.6165859" id="Stroke-34" stroke="#000000" stroke-width="0.780311993" stroke-linecap="round"></path>
                    <path d="M121.194126,48.6219325 C118.998566,48.6219325 117.218603,46.8542383 117.218603,44.6738112 L117.218603,44.2653063 L125.169648,44.2653063 L125.169648,44.6738112 C125.169648,46.8542383 123.389686,48.6219325 121.194126,48.6219325" id="Fill-37" fill="#CBD8FF"></path>
                    <path d="M18.5652217,62.3117888 L20.8433117,62.3117888 L20.8433117,63.6192646 C20.8433117,65.4113519 22.3059267,66.8638859 24.1104517,66.8638859 C25.4574592,66.8638859 26.6138617,66.054682 27.1139542,64.8987694 C27.2835992,64.5062015 27.3775917,64.0736286 27.3775917,63.6192646 L27.5000767,63.6192646 C28.2271267,63.6192646 28.8166267,63.0338277 28.8166267,62.3117888 L30.3751992,62.3117888" id="Stroke-43" stroke="#000000" stroke-width="0.780311993" stroke-linecap="round"></path>
                    <path d="M24.0615232,66.0441767 C22.6424657,66.0441767 21.4922857,64.9019243 21.4922857,63.4926476 L21.4922857,63.2288757 L26.6307607,63.2288757 L26.6307607,63.4926476 C26.6307607,64.9019243 25.4805807,66.0441767 24.0615232,66.0441767" id="Fill-46" fill="#CBD8FF"></path>
                </g>
                <g id="Cap" transform="translate(19.650000, 6.504854)">
                    <path d="M1.55460975,14.1505951 C1.42753975,15.4183913 1.35778225,16.7027748 1.34828475,18.0014689 C1.17863975,41.2729107 20.3917548,60.2768427 44.2622473,60.4485709 C68.1324123,60.620299 87.6206273,41.8944495 87.7902723,18.6230078 C87.7984598,17.4940903 87.7611248,16.3752553 87.6799048,15.2681291 L63.1478623,21.2181194 L22.1284873,21.2181194 L1.55460975,14.1505951 Z" id="Fill-50" fill="#FFFFFF"></path>
                    <path d="M7.2448895,12.8398345 C4.0419395,35.8933636 20.615077,57.2084704 44.2622145,60.4485383 C20.391722,60.2771354 1.178607,41.2728782 1.348252,18.0014364 C1.370522,14.9392762 1.727497,11.9558248 2.3847895,9.08360631 L7.717472,10.125684 C7.5324345,11.0191257 7.372287,11.9233005 7.2448895,12.8398345" id="Fill-53" fill="#EFEFEF"></path>
                    <path d="M87.0343367,10.4280296 C87.5501492,13.0810345 87.8108392,15.8212044 87.7905342,18.6231704 C87.6205617,41.8942869 68.1323467,60.6201364 44.2621817,60.4487335 C20.3916892,60.2770053 1.17857425,41.2727481 1.34821925,18.0016316 C1.37048925,14.9391461 1.72746425,11.9556947 2.38475675,9.08347621 L33.3164767,22.3436218 L67.0067292,19.767049 L87.0343367,10.4280296 Z" id="Stroke-56" stroke="#7898FF" stroke-width="2.29599998"></path>
                    <path d="M2.02797825,1.15266019 C1.73519325,1.15266019 1.47777825,1.26421845 1.30354825,1.4671699 C1.10148075,1.70232039 1.02779325,2.0343932 1.09067325,2.42761165 L3.15294075,15.3312913 C15.8000082,21.9896602 29.7190857,25.3647039 44.5345307,25.3647039 C66.1894857,25.3647039 82.9941657,18.0477184 85.8889382,16.7073932 L88.3189882,2.80359223 C88.3871082,2.41265049 88.3147307,2.06691748 88.1143007,1.83046602 C87.9397432,1.62458738 87.6806907,1.51107767 87.3849582,1.51107767 L87.3846307,1.51107767 C87.1177182,1.51107767 86.8318107,1.60474757 86.5576932,1.7823301 L74.8751132,9.35365534 C68.3552432,13.579534 61.3781832,16.3977621 54.1381407,17.7306068 L53.8332382,17.7868738 C50.6853082,18.3661311 47.4731882,18.6601505 44.2856307,18.6601505 C41.0191457,18.6601505 37.7284257,18.3514951 34.5048432,17.7432913 C26.3098107,16.1970874 18.5054857,12.7687039 11.3096557,7.55408738 L2.92303575,1.47692718 C2.63025075,1.26486893 2.32076325,1.15266019 2.02797825,1.15266019" id="Fill-59" fill="#CBD8FF"></path>
                    <path d="M44.5345635,26.3403019 C31.613706,26.3403019 16.925331,23.7887728 2.259226,15.963433 L0.1203235,2.58067087 C-0.1069615,1.15903495 0.846391,0.177127184 2.028011,0.177127184 C2.5032135,0.177127184 3.015096,0.335845631 3.5020885,0.688733981 L11.8887085,6.76589417 C18.972206,11.8988748 26.734611,15.284001 34.688276,16.7846709 C37.865681,17.3844184 41.075836,17.6842922 44.285336,17.6842922 C47.418201,17.6842922 50.5500835,17.3987291 53.6541285,16.8272777 L53.959031,16.7713359 C61.007486,15.4736175 67.9141335,12.7002728 74.3383735,8.53651553 L86.0209535,0.965190291 C86.477816,0.668894175 86.9477785,0.535219417 87.3846635,0.535219417 C88.584951,0.535219417 89.536011,1.54509806 89.2867835,2.97031165 L86.7702735,17.3707583 C86.7702735,17.3707583 68.759411,26.3403019 44.5345635,26.3403019 M44.5345635,24.3888456 C65.0170685,24.3888456 81.1510285,17.7623505 85.0096335,16.0340107 L87.350931,2.63661262 C87.3623935,2.57026311 87.3630485,2.52082621 87.360756,2.48830194 C87.3158885,2.49350583 87.225171,2.51497184 87.094826,2.59953495 L75.412246,10.1708602 C68.782991,14.4673165 61.685411,17.3333553 54.316661,18.690268 L54.012086,18.7458845 C50.8055335,19.3362 47.532826,19.6357485 44.285336,19.6357485 C40.9576085,19.6357485 37.6053185,19.3215641 34.321476,18.7019767 C25.9823435,17.1284524 18.0450535,13.6428262 10.730341,8.34234563 L2.343721,2.26518544 C2.201586,2.1620835 2.1016985,2.13638932 2.0532285,2.13020971 C2.050281,2.16240874 2.050936,2.21021942 2.0610885,2.27461748 L4.0463935,14.6956369 C16.4344085,21.1282874 30.0505485,24.3888456 44.5345635,24.3888456" id="Fill-62" fill="#B6C7FF"></path>
                    <path d="M2.259226,15.9635631 L0.1203235,2.58047573 C-0.1980065,0.58738835 1.804001,-0.541854369 3.5020885,0.688538835 L11.8887085,6.76602427 C18.972206,11.8990049 26.7349385,15.2841311 34.688276,16.784801 C40.9674335,17.9696602 47.370386,17.9839709 53.6541285,16.8274078 L53.959031,16.7711408 C61.007486,15.4737476 67.9141335,12.7000777 74.3383735,8.53664563 L86.0209535,0.965320388 C87.7337785,-0.145058252 89.6267285,1.02646602 89.287111,2.97044175 L86.7702735,17.3705631 C86.7702735,17.3705631 44.4232135,38.4602767 2.259226,15.9635631 Z" id="Stroke-65" stroke="#7898FF" stroke-width="2.29599998"></path>
                    <path d="M6.415987,42.2929044 L6.2250545,41.6043655 C5.9538845,40.6270112 6.411402,39.595016 7.3202145,39.1338218 L10.498602,37.520618 L11.260367,43.4891471 L6.415987,42.2929044 Z" id="Fill-68" fill="#7898FF"></path>
                    <path d="M83.0391315,42.843833 L83.2402165,42.1578961 C83.525469,41.1847699 83.0830165,40.1462699 82.180754,39.672066 L79.0266015,38.0133282 L78.178049,43.9701485 L83.0391315,42.843833 Z" id="Fill-71" fill="#7898FF"></path>
                    <path d="M81.7892605,36.5693481 L78.2404705,43.7796539 L59.2192705,48.2247461 L44.355683,43.0410277 L29.417753,48.0104112 L10.463363,43.2924403 L7.020028,36.0317218 C6.5670955,35.0771345 7.1107455,33.9501684 8.143353,33.7020083 L30.616403,28.3023286 C33.794463,27.517518 37.147408,28.5651248 39.299738,31.0158286 L44.1300355,36.515683 L44.144118,36.8389743 L44.675978,36.5195859 L49.5861855,31.089984 C51.774213,28.6701782 55.1418955,27.6707073 58.307838,28.5017024 L80.6999955,34.2236976 C81.7290005,34.4864937 82.255948,35.6212655 81.7892605,36.5693481" id="Fill-74" fill="#CBD8FF"></path>
                    <path d="M38.9836022,31.1662209 L42.1328422,34.9686335 C43.3386972,36.4247451 45.5778147,36.440682 46.8049572,35.0021335 L50.0092172,31.2455801" id="Stroke-77" stroke="#7898FF" stroke-width="1.31199999" stroke-linecap="round" stroke-linejoin="round"></path>
                    <polygon id="Fill-80" fill="#B6C7FF" points="29.4176875 48.0105413 25.5328825 47.0435947 20.23164 30.7977209 26.65588 29.2541189 31.8038525 47.2166238"></polygon>
                    <polygon id="Fill-83" fill="#B6C7FF" points="21.5351883 46.0483194 16.4478033 31.7067417 18.5539558 31.2006641 23.5938533 46.5609019"></polygon>
                    <polygon id="Fill-86" fill="#B6C7FF" points="66.827292 46.4468718 61.2136145 29.244134 68.5345495 31.1149301 72.5457695 45.1104495"></polygon>
                    <path d="M63.5406658,47.2149325 L56.8128333,28.2497044 C57.3125983,28.2916607 57.8126908,28.3716704 58.3078708,28.5014422 L59.2419008,28.7401704 L65.1781658,46.8321218 L63.5406658,47.2149325 Z" id="Fill-89" fill="#B6C7FF"></path>
                    <path d="M5.6072585,42.0932053 L25.4439335,46.9913607 C30.1343885,48.14955 35.0920835,47.5003655 39.319781,45.1748801 L41.828431,43.7948752 C43.427941,42.9150937 45.3795135,42.9534723 46.942671,43.8957005 L48.7226335,44.968351 C52.966051,47.5257345 58.044921,48.3440451 62.884716,47.2496034 L83.2227935,42.6513218" id="Stroke-92" stroke="#7898FF" stroke-width="2.29599998" stroke-linecap="round" stroke-linejoin="round"></path>
                </g>
            </g>
        </g>
    </g>
</svg>