<?xml version="1.0" encoding="UTF-8"?>
<svg width="26px" height="26px" viewBox="0 0 26 26" version="1.1" xmlns="http://www.w3.org/2000/svg" xmlns:xlink="http://www.w3.org/1999/xlink">
    <!-- Generator: Sketch 49.3 (51167) - http://www.bohemiancoding.com/sketch -->
    <title>Group 3</title>
    <desc>Created with Sketch.</desc>
    <defs></defs>
    <g id="Match-Center" stroke="none" stroke-width="1" fill="none" fill-rule="evenodd">
        <g id="11-Partnership" transform="translate(-850.000000, -1060.000000)">
            <g id="Stats-">
                <g id="Content" transform="translate(0.000000, 766.000000)">
                    <g id="Partnership" transform="translate(422.000000, 24.000000)">
                        <g id="Graph" transform="translate(1.000000, 114.000000)">
                            <g id="4" transform="translate(0.000000, 150.000000)">
                                <g id="Group-3" transform="translate(427.000000, 6.000000)">
                                    <g id="ic_play_26">
                                        <g>
                                            <rect id="Rectangle-15" fill="#CCCCCC" x="0" y="0" width="26" height="26"></rect>
                                            <path d="M10.7584847,8.63884068 L16.3351197,12.6470471 C16.5593516,12.8082138 16.610476,13.120641 16.4493094,13.3448728 C16.417685,13.388872 16.3791189,13.4274381 16.3351197,13.4590625 L10.7584847,17.4672689 C10.5342528,17.6284356 10.2218256,17.5773111 10.060659,17.3530793 C9.99954342,17.2680489 9.96666667,17.1659765 9.96666667,17.0612613 L9.96666667,9.04484836 C9.96666667,8.76870599 10.1905243,8.54484836 10.4666667,8.54484836 C10.5713819,8.54484836 10.6734543,8.57772511 10.7584847,8.63884068 Z" id="Rectangle-3-Copy-2" fill="#FFFFFF"></path>
                                        </g>
                                    </g>
                                </g>
                            </g>
                        </g>
                    </g>
                </g>
            </g>
        </g>
    </g>
</svg>