<?xml version="1.0" encoding="UTF-8"?>
<svg width="20px" height="20px" viewBox="0 0 20 20" version="1.1" xmlns="http://www.w3.org/2000/svg" xmlns:xlink="http://www.w3.org/1999/xlink">
    <!-- Generator: Sketch 48.2 (47327) - http://www.bohemiancoding.com/sketch -->
    <title>ic_search</title>
    <desc>Created with Sketch.</desc>
    <defs>
        <path d="M8.38019802,16.6336634 C5.05051987,16.649701 2.0399227,14.6558703 0.75532188,11.5839305 C-0.529278944,8.51199061 0.165785336,4.96855421 2.51569657,2.60954362 C4.8656078,0.250533021 8.4063315,-0.458220457 11.483213,0.814498586 C14.5600946,2.08721763 16.5655454,5.09008671 16.5623762,8.41980198 C16.5634969,12.944297 12.9046636,16.6172981 8.38019802,16.6336634 Z" id="path-1"></path>
    </defs>
    <g id="02" stroke="none" stroke-width="1" fill="none" fill-rule="evenodd" transform="translate(-104.000000, -106.000000)">
        <g id="ic_search" transform="translate(102.000000, 104.000000)" fill-rule="nonzero">
            <g transform="translate(2.000000, 2.000000)" id="Shape">
                <g>
                    <use fill-opacity="0.2" fill="#D9A4FF" fill-rule="evenodd" xlink:href="#path-1"></use>
                    <path stroke="#D9A4FF" stroke-width="1.3" d="M8.37706729,15.9836709 L8.37784694,15.9836676 C12.5441847,15.9685977 15.9134082,12.5863279 15.9123765,8.41918332 C15.9152952,5.35270963 14.0683918,2.58724222 11.2347633,1.41514217 C8.40113471,0.243042108 5.14033455,0.895762751 2.97620327,3.06827402 C0.812071989,5.24078528 0.171958299,8.50408367 1.35500079,11.3331612 C2.53804327,14.1622388 5.31062779,15.9984406 8.37706729,15.9836709 Z"></path>
                </g>
                <polygon fill="#D9A4FF" points="18.8792079 20 13.4039604 14.5544554 14.5247525 13.4336634 20 18.8772277"></polygon>
            </g>
        </g>
    </g>
</svg>