<?xml version="1.0" encoding="UTF-8"?>
<svg width="209px" height="137px" viewBox="0 0 209 137" version="1.1" xmlns="http://www.w3.org/2000/svg" xmlns:xlink="http://www.w3.org/1999/xlink">
    <!-- Generator: Sketch 49.1 (51147) - http://www.bohemiancoding.com/sketch -->
    <title>Graphic - Fans Cheering</title>
    <desc>Created with Sketch.</desc>
    <defs></defs>
    <g id="My-Account" stroke="none" stroke-width="1" fill="none" fill-rule="evenodd">
        <g id="00-Assets" transform="translate(-111.000000, -247.000000)">
            <g id="Graphic---Fans-Cheering" transform="translate(220.500000, 313.500000) scale(-1, 1) translate(-220.500000, -313.500000) translate(105.000000, 243.000000)">
                <g id="Stadium-Chairs" transform="translate(115.000000, 36.500000) scale(1, -1) translate(-115.000000, -36.500000) translate(-33.000000, -51.000000)">
                    <g id="bg_Stadium">
                        <g id="Group-132" transform="translate(50.000000, 11.065500)">
                            <g id="Group-3" transform="translate(3.500000, 0.000000)"></g>
                            <g id="Group-6" transform="translate(22.000000, 7.000000)"></g>
                            <g id="Group-13" transform="translate(30.500000, 0.000000)"></g>
                            <g id="Group-18" transform="translate(33.500000, 0.000000)"></g>
                            <g id="Group-27" transform="translate(171.500000, 55.000000)" stroke="#BFBFBF" stroke-linecap="round" stroke-width="1.1165">
                                <path d="M2.4971,0.3851 C1.2481,0.4426 0.2821,1.5021 0.3401,2.7511 C0.3976,4.0001 1.4571,4.9661 2.7061,4.9086 C3.9551,4.8506 4.9211,3.7911 4.8631,2.5421" id="Stroke-25"></path>
                            </g>
                            <path d="M34.45315,105.47375 L39.31915,105.96925" id="Stroke-40" stroke="#BFBFBF" stroke-width="1.048" stroke-linecap="round" stroke-linejoin="round"></path>
                            <path d="M203.56185,90.9015 L206.38735,86.909" id="Path" stroke="#BFBFBF" stroke-width="1.048" stroke-linecap="round" stroke-linejoin="round"></path>
                            <path d="M207.2143,90.2764 L203.2218,87.4509" id="Path" stroke="#BFBFBF" stroke-width="1.048" stroke-linecap="round" stroke-linejoin="round"></path>
                            <path d="M36.79435,108.346 L37.28985,103.48" id="Stroke-43" stroke="#BFBFBF" stroke-width="1.048" stroke-linecap="round" stroke-linejoin="round"></path>
                            <g id="Group-60" transform="translate(25.500000, 29.000000)" stroke="#FFFFFF" stroke-linecap="round" stroke-width="1.5">
                                <path d="M0,0.2828 L13,0.2828" id="Stroke-58"></path>
                            </g>
                            <g id="Group-66" transform="translate(62.000000, 17.500000)"></g>
                            <path d="M157.5,29.2828 L170.5,29.2828" id="Stroke-80" stroke="#FFFFFF" stroke-width="1.5" stroke-linecap="round"></path>
                            <g id="Group-90" transform="translate(48.000000, 18.500000)" stroke="#FFFFFF" stroke-linecap="round" stroke-width="1.5">
                                <path d="M0,0.2828 L13,0.2828" id="Stroke-88"></path>
                            </g>
                            <path d="M136,18.7828 L149,18.7828" id="Stroke-104" stroke="#FFFFFF" stroke-width="1.5" stroke-linecap="round"></path>
                            <g id="Group-119" transform="translate(0.000000, 91.500000)" stroke="#BFBFBF" stroke-linecap="round" stroke-width="1.1165">
                                <path d="M3.0239,0.29065 L0.1769,0.29065" id="Stroke-117"></path>
                            </g>
                            <g id="Group-122" transform="translate(5.500000, 91.500000)" stroke="#BFBFBF" stroke-linecap="round" stroke-width="1.1165">
                                <path d="M0.17215,0.29065 L5.20415,0.29065 L5.20415,3.19865 C5.20415,7.18415 8.43515,10.41515 12.42065,10.41515 L12.42065,10.41515 C15.39565,10.41515 17.95065,8.61515 19.05465,6.04415 C19.42965,5.17115 19.63715,4.20915 19.63715,3.19865 L19.90715,3.19865 C21.51315,3.19865 22.81515,1.89665 22.81515,0.29065 L22.81515,0.29065 L26.25815,0.29065" id="Stroke-120"></path>
                            </g>
                            <g id="Group-125" transform="translate(12.000000, 94.000000)" fill="#FFBA40" opacity="0.200000003">
                                <path d="M6.00295,6.45915 L6.00295,6.45915 C2.85545,6.45915 0.30395,3.90765 0.30395,0.76015 L0.30395,0.17065 L11.70195,0.17065 L11.70195,0.76015 C11.70195,3.90765 9.15045,6.45915 6.00295,6.45915" id="Fill-123"></path>
                            </g>
                        </g>
                    </g>
                </g>
                <g id="Characters" transform="translate(181.500000, 81.000000) scale(1, -1) translate(-181.500000, -81.000000) translate(33.000000, 10.500000)">
                    <path d="M109.48865,92.12855 L109.28965,92.02905 C108.73515,91.75105 108.06065,91.97555 107.78315,92.53005 L106.46365,95.16455 C106.18565,95.71855 106.41015,96.39305 106.96465,96.67105 L107.16365,96.77055 C107.71765,97.04805 108.39265,96.82405 108.67015,96.26955 L109.98965,93.63505 C110.26715,93.08055 110.04315,92.40605 109.48865,92.12855" id="Fill-115" fill="#FFFFFF"></path>
                    <polygon id="Fill-227" fill="#FFFFFF" points="65.93085 83.2481 71.55785 69.2601 78.27035 70.2176 74.28085 85.3211"></polygon>
                    <polygon id="Stroke-228" stroke="#FF7BC0" stroke-width="1.25" stroke-linecap="round" stroke-linejoin="round" points="65.93085 83.2481 71.55785 69.2601 78.27035 70.2176 74.28085 85.3211"></polygon>
                    <path d="M80.4752,67.4533 C80.4752,64.7828 78.3107,62.6183 75.6402,62.6183 C72.9697,62.6183 70.8052,64.7828 70.8052,67.4533 C70.8052,70.1238 72.9697,72.2883 75.6402,72.2883 C78.3107,72.2883 80.4752,70.1238 80.4752,67.4533" id="Fill-229" fill="#FFFFFF"></path>
                    <path d="M80.4752,67.4533 C80.4752,64.7828 78.3107,62.6183 75.6402,62.6183 C72.9697,62.6183 70.8052,64.7828 70.8052,67.4533 C70.8052,70.1238 72.9697,72.2883 75.6402,72.2883 C78.3107,72.2883 80.4752,70.1238 80.4752,67.4533 Z" id="Stroke-230" stroke="#FF7BC0" stroke-width="1.25" stroke-linecap="round" stroke-linejoin="round"></path>
                    <path d="M72.7917,69.2301 C72.7917,69.2301 74.8152,68.5886 74.7167,66.0711" id="Stroke-231" stroke="#FF7BC0" stroke-width="0.5" stroke-linecap="round" stroke-linejoin="round"></path>
                    <path d="M83.0236,45.0476 C52.9666,51.7906 39.1041,80.7101 38.5286,81.9376 L44.9646,84.9531 L41.7466,83.4456 L44.9626,84.9581 C45.0901,84.6886 57.9816,57.9496 84.5791,51.9826 L83.0236,45.0476 Z" id="Fill-232" fill="#FFFFFF"></path>
                    <path d="M83.0236,45.0476 C52.9666,51.7906 39.1041,80.7101 38.5286,81.9376 L44.9646,84.9531 L41.7466,83.4456 L44.9626,84.9581 C45.0901,84.6886 57.9816,57.9496 84.5791,51.9826 L83.0236,45.0476 Z" id="Stroke-233" stroke="#FF7BC0" stroke-width="1.25" stroke-linecap="round" stroke-linejoin="round"></path>
                    <path d="M109.02635,57.71035 C125.58335,31.73435 115.01935,1.45385 114.56135,0.17735 L107.87185,2.57785 L111.21635,1.37735 L107.86985,2.57285 C107.96935,2.85335 117.68385,30.90385 103.03335,53.89035 L109.02635,57.71035 Z" id="Fill-234" fill="#FFFFFF"></path>
                    <path d="M109.02635,57.71035 C125.58335,31.73435 115.01935,1.45385 114.56135,0.17735 L109.02635,2.98945716 L109.02635,9.49323074 L110.667468,9.49323074 C110.766968,9.77373074 117.68385,30.90385 103.03335,53.89035 L109.02635,57.71035 Z" id="Stroke-235" stroke="#FF7BC0" stroke-width="1.25" stroke-linecap="round" stroke-linejoin="round"></path>
                    <path d="M99.2973,98.45055 C99.2973,98.45055 111.4393,80.87905 109.6628,55.41005 L101.4693,44.15605 L82.3973,48.86155 C82.3973,48.86155 74.2233,77.42355 70.3733,85.22255 C70.3733,85.22255 86.9578,104.27505 99.2973,98.45055" id="Fill-236" fill="#FFFFFF"></path>
                    <path d="M99.2973,98.45055 C99.2973,98.45055 111.4393,80.87905 109.6628,55.41005 L101.4693,44.15605 L82.3973,48.86155 C82.3973,48.86155 74.2233,77.42355 70.3733,85.22255 C70.3733,85.22255 86.9578,104.27505 99.2973,98.45055 Z" id="Stroke-237" stroke="#FF7BC0" stroke-width="1.25" stroke-linecap="round" stroke-linejoin="round"></path>
                    <g id="Group-240" transform="translate(98.500000, 84.000000)">
                        <path d="M0.45395,0.20885 C0.45395,0.20885 1.88595,2.58635 4.38045,1.57135" id="Fill-238" fill="#FFFFFF"></path>
                        <path d="M0.45395,0.20885 C0.45395,0.20885 1.88595,2.58635 4.38045,1.57135" id="Stroke-239" stroke="#FF7BC0" stroke-width="1.25" stroke-linecap="round" stroke-linejoin="round"></path>
                    </g>
                    <g id="Group-243" transform="translate(84.500000, 79.000000)">
                        <path d="M0.278,0.2903 C0.278,0.2903 1.71,2.6678 4.2045,1.6528" id="Fill-241" fill="#FFFFFF"></path>
                        <path d="M0.278,0.2903 C0.278,0.2903 1.71,2.6678 4.2045,1.6528" id="Stroke-242" stroke="#FF7BC0" stroke-width="1.25" stroke-linecap="round" stroke-linejoin="round"></path>
                    </g>
                    <path d="M92.68325,114.8266 C86.57525,114.8266 81.61575,109.9576 81.44575,103.8911 C80.35925,104.5926 79.06775,105.0046 77.67825,105.0046 C73.89675,105.0046 70.82625,101.9866 70.72775,98.2291 C70.41625,98.2621 70.10075,98.2806 69.78075,98.2806 C64.85275,98.2806 60.85775,94.2856 60.85775,89.3576 C60.85775,84.4296 64.85275,80.4346 69.78075,80.4346 C74.48275,80.4346 78.32625,84.0736 78.66975,88.6876 C79.94275,87.7546 81.50725,87.1966 83.20625,87.1966 C86.63075,87.1966 89.52975,89.4371 90.52475,92.5311 C91.22375,92.3951 91.94425,92.3191 92.68325,92.3191 C98.89875,92.3191 103.93725,97.3576 103.93725,103.5726 C103.93725,109.7881 98.89875,114.8266 92.68325,114.8266" id="Fill-244" fill="#FFF0F9"></path>
                    <path d="M92.68325,114.8266 C86.57525,114.8266 81.61575,109.9576 81.44575,103.8911 C80.35925,104.5926 79.06775,105.0046 77.67825,105.0046 C73.89675,105.0046 70.82625,101.9866 70.72775,98.2291 C70.41625,98.2621 70.10075,98.2806 69.78075,98.2806 C64.85275,98.2806 60.85775,94.2856 60.85775,89.3576 C60.85775,84.4296 64.85275,80.4346 69.78075,80.4346 C74.48275,80.4346 78.32625,84.0736 78.66975,88.6876 C79.94275,87.7546 81.50725,87.1966 83.20625,87.1966 C86.63075,87.1966 89.52975,89.4371 90.52475,92.5311 C91.22375,92.3951 91.94425,92.3191 92.68325,92.3191 C98.89875,92.3191 103.93725,97.3576 103.93725,103.5726 C103.93725,109.7881 98.89875,114.8266 92.68325,114.8266 Z" id="Stroke-245" stroke="#FF7BC0" stroke-width="1.25" stroke-linecap="round" stroke-linejoin="round"></path>
                    <polygon id="Fill-246" fill="#FFFFFF" points="31.93345 85.19335 33.19445 89.33885 38.35345 92.09635 44.62345 85.55235 44.67495 83.79635 41.29795 80.44335 37.02145 80.43585"></polygon>
                    <g id="Group-249" transform="translate(40.500000, 80.000000)">
                        <path d="M4.45955,4.84015 L0.05305,0.31265" id="Fill-247" fill="#FFFFFF"></path>
                        <path d="M4.45955,4.84015 L0.05305,0.31265" id="Stroke-248" stroke="#FF7BC0" stroke-width="1.25" stroke-linecap="round" stroke-linejoin="round"></path>
                    </g>
                    <g id="Group-252" transform="translate(33.500000, 80.000000)">
                        <path d="M0.0923,3.028 L2.1153,1.5385 C3.5083,0.513 5.2643,0.1095 6.9658,0.424 L8.0818,0.6305" id="Fill-250" fill="#FFFFFF"></path>
                        <path d="M0.0923,3.028 L2.1153,1.5385 C3.5083,0.513 5.2643,0.1095 6.9658,0.424 L8.0818,0.6305" id="Stroke-251" stroke="#E20303" stroke-width="0.5" stroke-linecap="round" stroke-linejoin="round"></path>
                    </g>
                    <polygon id="Fill-253" fill="#FFF0F9" points="42.6431 78.5101 9.8006 70.1236 0.1956 107.7376 33.0381 116.1246"></polygon>
                    <polygon id="Stroke-254" stroke="#FF7BC0" stroke-width="1.25" stroke-linecap="round" stroke-linejoin="round" points="42.6431 78.5101 9.8006 70.1236 0.1956 107.7376 33.0381 116.1246"></polygon>
                    <text id="$5" transform="translate(21.732550, 90.127470) scale(-1, -1) rotate(17.000000) translate(-21.732550, -90.127470) " font-family=".SFNSDisplay, .SF NS Display" font-size="23" font-weight="normal" fill="#FF7BC0">
                        <tspan x="9.23255" y="98.1274697">$5</tspan>
                    </text>
                    <g id="Group-257" transform="translate(33.500000, 84.500000)">
                        <path d="M11.351,0.15845 L10.995,3.00695 C10.8935,3.82245 10.585,4.59845 10.0995,5.26145 L7.7635,8.45245 C6.8855,9.65095 5.2025,9.91145 4.0035,9.03345 L0.3465,6.35595 C0.046,6.13595 -0.0195,5.71345 0.2005,5.41295 C0.834,4.54795 2.049,4.35995 2.914,4.99345 L3.8965,5.71295 L5.1745,3.96695 C5.5985,3.38845 6.276,3.05045 6.9935,3.06095 L8.1505,3.07745" id="Fill-255" fill="#FFFFFF"></path>
                        <path d="M11.351,0.15845 L10.995,3.00695 C10.8935,3.82245 10.585,4.59845 10.0995,5.26145 L7.7635,8.45245 C6.8855,9.65095 5.2025,9.91145 4.0035,9.03345 L0.3465,6.35595 C0.046,6.13595 -0.0195,5.71345 0.2005,5.41295 C0.834,4.54795 2.049,4.35995 2.914,4.99345 L3.8965,5.71295 L5.1745,3.96695 C5.5985,3.38845 6.276,3.05045 6.9935,3.06095 L8.1505,3.07745" id="Stroke-256" stroke="#FF7BC0" stroke-width="1.25" stroke-linecap="round" stroke-linejoin="round"></path>
                    </g>
                    <g id="Group-260" transform="translate(100.500000, 67.000000)">
                        <path d="M0.4935,0.2121 L7.614,1.5341 C8.504,1.7206 9.343,2.1881 9.987,2.9256 C11.2475,4.3691 11.099,6.5616 9.6555,7.8221 C8.5005,8.8301 6.747,8.7111 5.7385,7.5566 C4.9315,6.6326 5.0265,5.2296 5.9505,4.4231 C6.6895,3.7776 7.812,3.8536 8.4575,4.5926 C8.9735,5.1841 8.913,6.0821 8.3215,6.5981 C7.8485,7.0111 7.13,6.9626 6.717,6.4891 C6.387,6.1111 6.426,5.5366 6.804,5.2061" id="Fill-258" fill="#FFFFFF"></path>
                        <path d="M0.4935,0.2121 L7.614,1.5341 C8.504,1.7206 9.343,2.1881 9.987,2.9256 C11.2475,4.3691 11.099,6.5616 9.6555,7.8221 C8.5005,8.8301 6.747,8.7111 5.7385,7.5566 C4.9315,6.6326 5.0265,5.2296 5.9505,4.4231 C6.6895,3.7776 7.812,3.8536 8.4575,4.5926 C8.9735,5.1841 8.913,6.0821 8.3215,6.5981 C7.8485,7.0111 7.13,6.9626 6.717,6.4891 C6.387,6.1111 6.426,5.5366 6.804,5.2061" id="Stroke-259" stroke="#FF7BC0" stroke-width="1.25" stroke-linecap="round" stroke-linejoin="round"></path>
                    </g>
                    <g id="Group-263" transform="translate(99.000000, 65.000000)">
                        <path d="M0.3812,4.27235 C0.3812,4.27235 2.3327,4.49735 2.1787,3.88535 C2.0247,3.27385 1.3057,2.65735 1.7167,2.14385 C2.1272,1.63035 3.6682,0.94335 1.8707,0.00285" id="Fill-261" fill="#FFFFFF"></path>
                        <path d="M0.3812,4.27235 C0.3812,4.27235 2.3327,4.49735 2.1787,3.88535 C2.0247,3.27385 1.3057,2.65735 1.7167,2.14385 C2.1272,1.63035 3.6682,0.94335 1.8707,0.00285" id="Stroke-262" stroke="#FF7BC0" stroke-width="0.75" stroke-linecap="round" stroke-linejoin="round"></path>
                    </g>
                    <path d="M109.79085,57.5815 C104.99985,49.852 95.29485,46.761 86.91585,50.296 L81.27485,52.676 C81.27485,52.676 84.29235,19.9705 82.41685,9.4075 L112.52535,9.4075 C112.52535,9.4075 114.40085,28.2625 109.79085,57.5815" id="Fill-264" fill="#FFFFFF"></path>
                    <path d="M84.40055,51.52505 L81.02455,52.83605 C81.02455,52.83605 84.04205,20.45455 82.16655,9.45455 L85.41655,9.45455 C87.05805,18.95455 84.95205,45.12355 84.40055,51.52505" id="Fill-265" fill="#F2F2F2"></path>
                    <path d="M109.79085,57.5815 C104.99985,49.852 95.29485,46.761 86.91585,50.296 L81.27485,52.676 C81.27485,52.676 84.29235,19.9705 82.41685,9.4075 L112.52535,9.4075 C112.52535,9.4075 114.40085,28.2625 109.79085,57.5815 Z" id="Stroke-266" stroke="#FF7BC0" stroke-width="1.25" stroke-linecap="round" stroke-linejoin="round"></path>
                    <path d="M126.8431,140.05905 L125.6826,137.83805 C124.9711,136.47555 125.4071,134.79605 126.6916,133.95205 C127.9116,133.15005 128.3746,131.58505 127.7876,130.24805 L126.2271,126.69405" id="Stroke-268" stroke="#FF7BC0" stroke-width="1.5"></path>
                    <path d="M138.19225,28.59 L137.03175,26.369 C136.32025,25.0065 136.75625,23.327 138.04075,22.483 C139.26075,21.681 139.72375,20.116 139.13675,18.779 L137.57625,15.225" id="Stroke-269" stroke="#FF7BC0" stroke-width="1.5"></path>
                    <path d="M60.20555,44.6366 L59.04505,42.4156 C58.33355,41.0531 58.76955,39.3736 60.05405,38.5296 C61.27405,37.7276 61.73705,36.1626 61.15005,34.8256 L59.58955,31.2716" id="Stroke-271" stroke="#FF7BC0" stroke-width="1.5"></path>
                    <polygon id="Fill-272" fill="#FFFFFF" points="173.9931 124.48075 169.4316 120.97175 166.7326 124.48075 171.2941 127.98975"></polygon>
                    <polygon id="Stroke-273" stroke="#FF7BC0" points="53.9931 134.48075 49.4316 130.97175 46.7326 134.48075 51.2941 137.98975"></polygon>
                    <polygon id="Fill-274" fill="#FFFFFF" points="122.90105 40.7691 121.62655 46.3811 125.94355 47.3616 127.21805 41.7496"></polygon>
                    <polygon id="Stroke-275" stroke="#FF7BC0" points="122.90105 40.7691 121.62655 46.3811 125.94355 47.3616 127.21805 41.7496"></polygon>
                </g>
            </g>
        </g>
    </g>
</svg>