<?xml version="1.0" encoding="UTF-8"?>
<svg width="21px" height="16px" viewBox="0 0 21 16" version="1.1" xmlns="http://www.w3.org/2000/svg" xmlns:xlink="http://www.w3.org/1999/xlink">
    <!-- Generator: Sketch 49.3 (51167) - http://www.bohemiancoding.com/sketch -->
    <title>icon </title>
    <desc>Created with Sketch.</desc>
    <defs></defs>
    <g id="icon-" stroke="none" stroke-width="1" fill="none" fill-rule="evenodd">
        <g id="share" stroke="#FFFFFF">
            <path d="M19.7325099,8.40828829 C19.9562636,8.18450274 19.9518943,7.80874331 19.7078936,7.57865158 L12.8836492,0.67655267 C12.7102177,0.503121204 12.460842,0.452466751 12.2188206,0.557566175 C11.9999074,0.639658594 11.8424658,0.867534712 11.8424658,1.10165826 L11.8424658,4.56144424 L11.368167,4.58585667 C8.00081462,4.75917628 5.42715802,5.80338063 3.49560856,7.734924 C2.19514473,9.04622503 1.35443978,10.6471254 0.885032428,12.3862412 C0.596653417,13.4546618 0.5,14.3414185 0.5,14.9098774 C0.5,15.1784236 0.68679937,15.4191872 0.951837387,15.4889735 C0.971987134,15.4940109 0.988410339,15.4965593 1.00894725,15.4980262 C1.03118074,15.4996143 1.05354878,15.5 1.11607787,15.5 C1.33003283,15.5 1.52575717,15.384868 1.64045716,15.1841713 C3.28602596,12.2537063 7.02172511,11.2948103 11.4062777,11.3992044 L11.8943764,11.4108258 L11.8943764,14.8839221 C11.8943764,15.1112988 12.0481813,15.3298637 12.2955788,15.4381001 C12.5155586,15.5343413 12.7903215,15.4802213 12.9581768,15.3123979 L19.7325099,8.40828829 Z" id="Path"></path>
        </g>
    </g>
</svg>