<?xml version="1.0" encoding="UTF-8"?>
<svg width="92px" height="120px" viewBox="0 0 92 120" version="1.1" xmlns="http://www.w3.org/2000/svg" xmlns:xlink="http://www.w3.org/1999/xlink">
    <!-- Generator: Sketch 49.1 (51147) - http://www.bohemiancoding.com/sketch -->
    <title>Graphic - Toss</title>
    <desc>Created with Sketch.</desc>
    <defs></defs>
    <g id="Match-Center" stroke="none" stroke-width="1" fill="none" fill-rule="evenodd">
        <g id="00-Assets" transform="translate(-500.000000, -1353.000000)">
            <g id="Graphic---Toss" transform="translate(475.000000, 1352.000000)">
                <g id="Toss" transform="translate(0.000000, 2.000000)">
                    <g id="ic_toss">
                        <g id="coin" transform="translate(37.158228, 0.000000)">
                            <g id="Page-1" transform="translate(0.175105, 0.004344)">
                                <path d="M4.7112,9.82358112 L1.30386667,17.1109255 C-3.32313333,27.0061257 6.59286667,41.3700719 23.3582,49.1494835 C40.1235333,56.9288951 57.3402,55.1546434 61.9668667,45.2591087 L66.0648667,36.4955627" id="Fill-1" fill="#FFFFFF"></path>
                                <path d="M66.0647333,36.4954289 L54.9474,31.6623992 L33.7604,43.5359035 L30.3484,51.8394954 C44.6710667,56.2707762 57.9840667,53.7773236 61.9670667,45.2589749 L66.0647333,36.4954289 Z" id="Fill-3" fill="#F8F8F8"></path>
                                <path d="M4.7112,9.82358112 L1.30386667,17.1109255 C-3.32313333,27.0061257 6.59286667,41.3700719 23.3582,49.1494835 C40.1235333,56.9288951 57.3402,55.1546434 61.9668667,45.2591087 L66.0648667,36.4955627" id="Stroke-5" stroke="#FF7BC0" stroke-width="2.34079996" stroke-linecap="round" stroke-linejoin="round"></path>
                                <path d="M65.7899667,37.0826648 C61.2186333,47.0042914 43.9216333,48.7407433 27.1563,40.9613317 C10.3909667,33.1819201 0.505633333,18.8323579 5.07696667,8.91073126 C9.6483,-1.01056082 26.9453,-2.74734724 43.7106333,5.03239887 C60.4759667,12.8118105 70.3613,27.1610382 65.7899667,37.0826648" id="Fill-7" fill="#FFFFFF"></path>
                                <path d="M65.7899667,37.0826648 C61.2186333,47.0042914 43.9216333,48.7407433 27.1563,40.9613317 C10.3909667,33.1819201 0.505633333,18.8323579 5.07696667,8.91073126 C9.6483,-1.01056082 26.9453,-2.74734724 43.7106333,5.03239887 C60.4759667,12.8118105 70.3613,27.1610382 65.7899667,37.0826648 Z" id="Stroke-9" stroke="#FF7BC0" stroke-width="2.34079996" stroke-linecap="round" stroke-linejoin="round"></path>
                                <path d="M60.0472,33.2415636 C56.4715333,41.0022425 42.7558667,42.2743917 29.4128667,36.0832432 C16.0698667,29.8917602 8.15186667,18.5812397 11.7275333,10.8205607 C15.3032,3.05954731 29.0188667,1.78739809 42.3618667,7.97888112 C55.7048667,14.1703641 63.6228667,25.4808847 60.0472,33.2415636 Z" id="Stroke-35" stroke="#FFF0F9" stroke-width="1.67199997"></path>
                                <path d="M26.3133333,22.1097059 C28.5116667,24.1930468 44.7706667,28.3841479 47.7336667,19.8771727" id="Stroke-37" stroke="#FF7BC0" stroke-width="1.43725117" stroke-linecap="round" stroke-linejoin="round"></path>
                                <path d="M25.2397667,20.4603275 C27.4381,22.5436684 43.6971,26.7347695 46.6601,18.2277943" id="Stroke-39" stroke="#FF7BC0" stroke-width="0.5" stroke-linecap="round" stroke-linejoin="round" stroke-dasharray="3.593127841553212,2.634737572698498"></path>
                                <path d="M27.4127,23.5348275 C29.6110333,25.6181684 45.8700333,29.8092695 48.8330333,21.3022943" id="Stroke-41" stroke="#FF7BC0" stroke-width="0.5" stroke-linecap="round" stroke-linejoin="round" stroke-dasharray="3.593127841553212,2.634737572698498"></path>
                                <path d="M28.7840667,12.1632251 C33.9967333,10.6893651 41.8630667,13.3795108 46.3537333,18.1720646 C50.8447333,22.9646183 50.2597333,28.0448524 45.0470667,29.5187124 C39.8344,30.9925723 31.9684,28.3024267 27.4774,23.5098729 C22.9864,18.7173192 23.5714,13.6370851 28.7840667,12.1632251 Z" id="Stroke-43" stroke="#FF7BC0" stroke-width="2.00639996" stroke-linecap="round" stroke-linejoin="round"></path>
                            </g>
                        </g>
                        <g id="Pitch-and-background" transform="translate(0.000000, 46.501515)">
                            <g id="Page-1" transform="translate(22.666667, 4.683168)">
                                <path d="M11.3481667,21.6000769 C11.6021667,20.7464022 12.4975,20.2610252 13.3485,20.5155889 C14.1991667,20.7704871 14.6828333,21.6693209 14.4288333,22.5229955 C14.1748333,23.3766702 13.2795,23.8620472 12.4288333,23.6074835" id="Stroke-23" stroke="#BFBFBF" stroke-width="0.746380787" stroke-linecap="round"></path>
                                <path d="M90.6537333,16.5066965 C90.2924,17.3205642 89.3424,17.6865204 88.5314,17.3239093 C87.7204,16.9616328 87.3557333,16.007939 87.7167333,15.1940713 C88.0780667,14.3802035 89.0284,14.0142474 89.8394,14.3768584" id="Stroke-25" stroke="#BFBFBF" stroke-width="0.746380787" stroke-linecap="round"></path>
                                <path d="M17.1478333,20.033256 C16.8408333,19.769995 16.8045,19.3070304 17.0668333,18.9989448 C17.3288333,18.6911938 17.7905,18.654732 18.0971667,18.9176584 C18.4041667,19.1809194 18.4405,19.643884 18.1785,19.9519696" id="Stroke-27" stroke="#BFBFBF" stroke-width="0.746380787" stroke-linecap="round"></path>
                                <path d="M75.1063333,38.3821436 L78.679,38.3821436 L78.679,36.3101762 C78.679,33.4701691 80.973,31.1680574 83.803,31.1680574 L83.803,31.1680574 C85.9153333,31.1680574 87.7293333,32.450911 88.513,34.2823643 C88.7793333,34.9045566 88.927,35.5899718 88.927,36.3101762 L89.1186667,36.3101762 C90.259,36.3101762 91.1833333,37.237778 91.1833333,38.3821436 L93.6276667,38.3821436" id="Stroke-31" stroke="#BFBFBF" stroke-width="0.795537586" stroke-linecap="round"></path>
                                <path d="M83.8613667,32.2056467 L83.8613667,32.2056467 C81.6267,32.2056467 79.8150333,34.0237196 79.8150333,36.2662882 L79.8150333,36.6864353 L87.9077,36.6864353 L87.9077,36.2662882 C87.9077,34.0237196 86.0960333,32.2056467 83.8613667,32.2056467" id="Fill-33" fill="#FF7BC0" opacity="0.200000003"></path>
                                <path d="M2.73783333,4.74515339 L5.0565,4.74515339 L5.0565,3.40041506 C5.0565,1.55725382 6.54516667,0.0633231259 8.38183333,0.0633231259 L8.38183333,0.0633231259 C9.75283333,0.0633231259 10.9298333,0.89592355 11.4388333,2.08444477 C11.6115,2.48820078 11.7071667,2.93310177 11.7071667,3.40041506 L11.8318333,3.40041506 C12.5718333,3.40041506 13.1718333,4.0025367 13.1718333,4.74515339 L14.7581667,4.74515339" id="Stroke-37" stroke="#BFBFBF" stroke-width="0.795537586" stroke-linecap="round"></path>
                                <path d="M8.332,0.906393777 L8.332,0.906393777 C6.88766667,0.906393777 5.717,2.0812 5.717,3.53064059 L5.717,3.80192984 L10.947,3.80192984 L10.947,3.53064059 C10.947,2.0812 9.776,0.906393777 8.332,0.906393777" id="Fill-39" fill="#FF7BC0" opacity="0.200000003"></path>
                            </g>
                        </g>
                    </g>
                    <g id="Group-14" transform="translate(47.436451, 56.004950)">
                        <path d="M0.44965,28.94485 L0.44965,33.08335" id="Fill-11" fill="#FFFFFF"></path>
                        <path d="M0.44965,28.94485 L0.44965,33.08335" id="Stroke-13" stroke="#FF7BC0" stroke-width="1.5" stroke-linecap="round" stroke-linejoin="round"></path>
                        <path d="M0.44965,0.08335 L0.44965,22.58335" id="Fill-15" fill="#FFFFFF"></path>
                        <path d="M0.44965,0.08335 L0.44965,22.58335" id="Stroke-17" stroke="#FF7BC0" stroke-width="1.5" stroke-linecap="round" stroke-linejoin="round"></path>
                        <path d="M42.44965,13.08335 L42.44965,40.58335" id="Fill-23" fill="#FFFFFF"></path>
                        <path d="M42.44965,13.08335 L42.44965,40.58335" id="Stroke-25" stroke="#FF7BC0" stroke-width="1.5" stroke-linecap="round" stroke-linejoin="round"></path>
                        <path d="M42.44965,45.917 L42.44965,46.0835" id="Fill-19" fill="#FFFFFF"></path>
                        <path d="M42.44965,45.917 L42.44965,46.0835" id="Stroke-21" stroke="#FF7BC0" stroke-width="1.5" stroke-linecap="round" stroke-linejoin="round"></path>
                        <path d="M21.44965,44.5835 L21.44965,61.75" id="Stroke-29" stroke="#FF7BC0" stroke-width="1.5" stroke-linecap="round" stroke-linejoin="round"></path>
                        <path d="M21.44965,10.08335 L21.44965,38.74985" id="Stroke-33" stroke="#FF7BC0" stroke-width="1.5" stroke-linecap="round" stroke-linejoin="round"></path>
                    </g>
                </g>
            </g>
        </g>
    </g>
</svg>