<?xml version="1.0" encoding="UTF-8"?>
<svg width="69px" height="96px" viewBox="0 0 69 96" version="1.1" xmlns="http://www.w3.org/2000/svg" xmlns:xlink="http://www.w3.org/1999/xlink">
    <!-- Generator: Sketch 49.1 (51147) - http://www.bohemiancoding.com/sketch -->
    <title>Graphic - Umpire</title>
    <desc>Created with Sketch.</desc>
    <defs>
        <polygon id="path-1" points="0 27.5990974 0 0.00424516129 14.8188164 0.00424516129 14.8188164 27.5990974"></polygon>
        <polygon id="path-3" points="0 27.5990974 0 0.00424516129 14.8188164 0.00424516129 14.8188164 27.5990974"></polygon>
    </defs>
    <g id="Match-Center" stroke="none" stroke-width="1" fill="none" fill-rule="evenodd">
        <g id="00-Assets" transform="translate(-660.000000, -1366.000000)">
            <g id="Graphic---Umpire" transform="translate(632.000000, 1352.000000)">
                <g transform="translate(62.500000, 62.000000) scale(1, -1) translate(-62.500000, -62.000000) translate(29.000000, 15.000000)">
                    <g id="Group-100" transform="translate(42.331818, 6.974194)">
                        <mask id="mask-2" fill="white">
                            <use xlink:href="#path-1"></use>
                        </mask>
                        <g id="Clip-99"></g>
                        <path d="M14.8188164,-4.81270903 L-20.5443927,-4.81270903 L-20.5443927,27.5990974 L-20.4247064,27.5411813 C-9.29296091,22.1637748 3.70503909,22.1850006 14.8188164,27.5990974 L14.8188164,-4.81270903 Z" id="Fill-98" fill="#FFFFFF" mask="url(#mask-2)"></path>
                    </g>
                    <g id="Group-103" transform="translate(42.331818, 6.974194)">
                        <mask id="mask-4" fill="white">
                            <use xlink:href="#path-3"></use>
                        </mask>
                        <g id="Clip-102"></g>
                        <path d="M14.8188164,-4.81270903 L-20.5443927,-4.81270903 L-20.5443927,27.5990974 L-20.4247064,27.5411813 C-9.29296091,22.1637748 3.70503909,22.1850006 14.8188164,27.5990974 L14.8188164,-4.81270903 Z" id="Stroke-101" stroke="#FFBA40" stroke-width="0.908999991" mask="url(#mask-4)"></path>
                    </g>
                    <g id="Group-107" transform="translate(5.481818, 59.735484)">
                        <path d="M0.157937273,0.141060645 L0.330614545,9.14049935 C0.341578182,9.70904774 0.813319091,10.1611574 1.38434182,10.1502413 C1.95566909,10.1393252 2.40974636,9.66962839 2.39878273,9.10108 L2.22610545,0.10164129" id="Fill-104" fill="#FFFFFF"></path>
                        <path d="M0.157937273,0.141060645 L0.330614545,9.14049935 C0.341578182,9.70904774 0.813319091,10.1611574 1.38434182,10.1502413 C1.95566909,10.1393252 2.40974636,9.66962839 2.39878273,9.10108 L2.22610545,0.10164129" id="Stroke-106" stroke="#FFBA40" stroke-width="0.908999991"></path>
                    </g>
                    <g id="Group-110" transform="translate(0.609091, 52.458065)" fill="#FFFFFF">
                        <polygon id="Fill-108" points="0.0862472727 7.81749484 3.00105182 9.4867529 7.38528818 8.31357226 7.45929273 1.31087548 6.55631545 0.294159355 2.86461545 0.189849677 0.439824545 2.44645613"></polygon>
                    </g>
                    <g id="Group-114" transform="translate(0.304545, 52.761290)">
                        <path d="M0.179986364,5.72026387 L0.534172727,3.81145742 C0.778113636,2.49667032 1.55775,1.34107677 2.68761364,0.619096129 L3.42887727,0.145457419" id="Fill-111" fill="#FFFFFF"></path>
                        <path d="M0.179986364,5.72026387 L0.534172727,3.81145742 C0.778113636,2.49667032 1.55775,1.34107677 2.68761364,0.619096129 L3.42887727,0.145457419" id="Stroke-113" stroke="#FFBA40" stroke-width="0.908999991" stroke-linecap="round" stroke-linejoin="round"></path>
                    </g>
                    <g id="Group-117" transform="translate(1.827273, 57.612903)" fill="#FFFFFF">
                        <path d="M0.991539091,0.298586452 C0.462543636,0.298586452 0.0337436364,0.725225161 0.0337436364,1.25192839 L0.03283,4.22687677 C0.03283,4.75327677 0.46163,5.18021871 0.990320909,5.18052194 C1.51931636,5.18052194 1.94811636,4.75388323 1.94811636,4.22718 L1.94903,1.25223161 C1.94903,0.725831613 1.52053455,0.298586452 0.991539091,0.298586452" id="Fill-115"></path>
                    </g>
                    <g id="Group-120" transform="translate(1.827273, 57.612903)" stroke="#FFBA40" stroke-width="0.908999991">
                        <path d="M0.991539091,0.298586452 C0.462543636,0.298586452 0.0337436364,0.725225161 0.0337436364,1.25192839 L0.03283,4.22687677 C0.03283,4.75327677 0.46163,5.18021871 0.990320909,5.18052194 C1.51931636,5.18052194 1.94811636,4.75388323 1.94811636,4.22718 L1.94903,1.25223161 C1.94903,0.725831613 1.52053455,0.298586452 0.991539091,0.298586452 Z" id="Stroke-118"></path>
                    </g>
                    <g id="Group-123" transform="translate(3.654545, 57.309677)" fill="#FFFFFF">
                        <path d="M1.140005,0.178296774 C0.583600455,0.178296774 0.132568636,0.627070968 0.132568636,1.18106452 L0.131655,4.66664516 C0.131655,5.22063871 0.582382273,5.66971613 1.13878682,5.66971613 C1.69488682,5.67001935 2.14622318,5.22094194 2.14622318,4.66725161 L2.14713682,1.18136774 C2.14713682,0.627677419 1.69640955,0.178296774 1.140005,0.178296774" id="Fill-121"></path>
                    </g>
                    <g id="Group-126" transform="translate(3.654545, 57.309677)" stroke="#FFBA40" stroke-width="0.908999991">
                        <path d="M1.140005,0.178296774 C0.583600455,0.178296774 0.132568636,0.627070968 0.132568636,1.18106452 L0.131655,4.66664516 C0.131655,5.22063871 0.582382273,5.66971613 1.13878682,5.66971613 C1.69488682,5.67001935 2.14622318,5.22094194 2.14622318,4.66725161 L2.14713682,1.18136774 C2.14713682,0.627677419 1.69640955,0.178296774 1.140005,0.178296774 Z" id="Stroke-124"></path>
                    </g>
                    <g id="Group-129" transform="translate(0.000000, 58.219355)" fill="#FFFFFF">
                        <path d="M1.08890227,0.241398065 L0.933584091,0.241398065 C0.501129545,0.241398065 0.150293182,0.590410968 0.150293182,1.02099161 L0.149684091,3.06776581 C0.149684091,3.49834645 0.500215909,3.84766258 0.932670455,3.84766258 L1.08798864,3.84766258 C1.52074773,3.84796581 1.87127955,3.49864968 1.87158409,3.06806903 L1.87188864,1.02129484 C1.87219318,0.590714194 1.52135682,0.241398065 1.08890227,0.241398065" id="Fill-127"></path>
                    </g>
                    <g id="Group-132" transform="translate(0.000000, 58.219355)" stroke="#FFBA40" stroke-width="0.908999991">
                        <path d="M1.08890227,0.241398065 L0.933584091,0.241398065 C0.501129545,0.241398065 0.150293182,0.590410968 0.150293182,1.02099161 L0.149684091,3.06776581 C0.149684091,3.49834645 0.500215909,3.84766258 0.932670455,3.84766258 L1.08798864,3.84766258 C1.52074773,3.84796581 1.87127955,3.49864968 1.87158409,3.06806903 L1.87188864,1.02129484 C1.87219318,0.590714194 1.52135682,0.241398065 1.08890227,0.241398065 Z" id="Stroke-130"></path>
                    </g>
                    <g id="Group-136" transform="translate(3.959091, 53.064516)">
                        <path d="M3.76360318,0.0805064516 L5.07467136,1.87378387 C5.44987136,2.38714516 5.68772136,2.98753226 5.76477136,3.61793871 L6.13662136,6.65110645 C6.27640773,7.79062903 5.46205318,8.82735806 4.31757136,8.96623548 L0.825653182,9.39075161 C0.538466818,9.42562258 0.277471364,9.22215806 0.242448636,8.93651935 C0.141644091,8.11417097 0.729416818,7.3661129 1.55564864,7.26574516 L2.49334409,7.15173226 L2.28990773,5.49217742 C2.22260318,4.94212581 2.42695318,4.3932871 2.83839409,4.0197129 L3.50199864,3.41720323" id="Fill-133" fill="#FFFFFF"></path>
                        <path d="M3.76360318,0.0805064516 L5.07467136,1.87378387 C5.44987136,2.38714516 5.68772136,2.98753226 5.76477136,3.61793871 L6.13662136,6.65110645 C6.27640773,7.79062903 5.46205318,8.82735806 4.31757136,8.96623548 L0.825653182,9.39075161 C0.538466818,9.42562258 0.277471364,9.22215806 0.242448636,8.93651935 C0.141644091,8.11417097 0.729416818,7.3661129 1.55564864,7.26574516 L2.49334409,7.15173226 L2.28990773,5.49217742 C2.22260318,4.94212581 2.42695318,4.3932871 2.83839409,4.0197129 L3.50199864,3.41720323" id="Stroke-135" stroke="#FFBA40" stroke-width="0.908999991"></path>
                    </g>
                    <polygon id="Fill-137" fill="#FFDC9F" points="19.41325 68.1642516 59.6726364 68.1642516 59.6726364 50.2469419 19.41325 50.2469419"></polygon>
                    <polygon id="Stroke-139" stroke="#FFBA40" stroke-width="0.908999991" points="19.41325 68.1642516 59.6726364 68.1642516 59.6726364 50.2469419 19.41325 50.2469419"></polygon>
                    <path d="M24.3552918,48.9134458 C24.3552918,46.5200845 22.4065055,44.5797426 20.0027282,44.5797426 C17.5989509,44.5797426 15.6504691,46.5200845 15.6504691,48.9134458 C15.6504691,51.3068071 17.5989509,53.247149 20.0027282,53.247149 C22.4065055,53.247149 24.3552918,51.3068071 24.3552918,48.9134458" id="Fill-140" fill="#FFFFFF"></path>
                    <path d="M24.3552918,48.9134458 C24.3552918,46.5200845 22.4065055,44.5797426 20.0027282,44.5797426 C17.5989509,44.5797426 15.6504691,46.5200845 15.6504691,48.9134458 C15.6504691,51.3068071 17.5989509,53.247149 20.0027282,53.247149 C22.4065055,53.247149 24.3552918,51.3068071 24.3552918,48.9134458 Z" id="Stroke-141" stroke="#FFBA40" stroke-width="0.908999991"></path>
                    <g id="Group-144" transform="translate(17.359091, 47.606452)">
                        <path d="M0.0796081818,2.89953613 C0.0796081818,2.89953613 1.90139909,2.32431677 1.81247182,0.0683167742" id="Fill-142" fill="#FFFFFF"></path>
                        <path d="M0.0796081818,2.89953613 C0.0796081818,2.89953613 1.90139909,2.32431677 1.81247182,0.0683167742" id="Stroke-143" stroke="#FFBA40" stroke-width="0.605999994" stroke-linecap="round"></path>
                    </g>
                    <path d="M54.8218364,48.9134458 C54.8218364,46.5200845 56.7706227,44.5797426 59.1744,44.5797426 C61.5781773,44.5797426 63.5266591,46.5200845 63.5266591,48.9134458 C63.5266591,51.3068071 61.5781773,53.247149 59.1744,53.247149 C56.7706227,53.247149 54.8218364,51.3068071 54.8218364,48.9134458" id="Fill-145" fill="#FFFFFF"></path>
                    <path d="M54.8218364,48.9134458 C54.8218364,46.5200845 56.7706227,44.5797426 59.1744,44.5797426 C61.5781773,44.5797426 63.5266591,46.5200845 63.5266591,48.9134458 C63.5266591,51.3068071 61.5781773,53.247149 59.1744,53.247149 C56.7706227,53.247149 54.8218364,51.3068071 54.8218364,48.9134458 Z" id="Stroke-146" stroke="#FFBA40" stroke-width="0.908999991"></path>
                    <g id="Group-149" transform="translate(59.995455, 47.606452)">
                        <path d="M1.74294409,2.89953613 C1.74294409,2.89953613 -0.0788468182,2.32431677 0.0100804545,0.0683167742" id="Fill-147" fill="#FFFFFF"></path>
                        <path d="M1.74294409,2.89953613 C1.74294409,2.89953613 -0.0788468182,2.32431677 0.0100804545,0.0683167742" id="Stroke-148" stroke="#FFBA40" stroke-width="0.605999994" stroke-linecap="round"></path>
                    </g>
                    <path d="M22.7409268,24.8594219 L10.9023314,24.8952026 C6.08198591,24.9094542 2.16004955,28.8265252 2.16004955,33.6259832 L2.16004955,53.913609 L8.186395,53.913609 L8.186395,33.6259832 C8.186395,32.1250155 9.41279955,30.8999832 10.9206041,30.8954348 L22.7591995,30.8596542 L22.7409268,24.8594219 Z" id="Fill-150" fill="#FFFFFF"></path>
                    <path d="M22.7409268,24.8594219 L10.9023314,24.8952026 C6.08198591,24.9094542 2.16004955,28.8265252 2.16004955,33.6259832 L2.16004955,53.913609 L8.186395,53.913609 L8.186395,33.6259832 C8.186395,32.1250155 9.41279955,30.8999832 10.9206041,30.8954348 L22.7591995,30.8596542 L22.7409268,24.8594219 Z" id="Stroke-151" stroke="#FFBA40" stroke-width="0.908999991"></path>
                    <g id="Group-154" transform="translate(20.404545, 28.806452)">
                        <path d="M19.1383673,40.1974626 L1.89926727,41.6283852 L0.864726364,32.3375465 C-0.335182727,21.5757594 0.183458182,10.6929852 2.40146273,0.0800819355 L18.0194673,0.0800819355 L20.2572673,0.0800819355 L35.8752718,0.0800819355 C38.0932764,0.0800819355 38.6119173,21.5763658 37.4120082,32.3381529 L37.3386127,32.9985787" id="Fill-152" fill="#FFFFFF"></path>
                        <path d="M19.1383673,40.1974626 L1.89926727,41.6283852 L0.864726364,32.3375465 C-0.335182727,21.5757594 0.183458182,10.6929852 2.40146273,0.0800819355 L18.0194673,0.0800819355 L20.2572673,0.0800819355 L35.8752718,0.0800819355 C38.0932764,0.0800819355 38.6119173,21.5763658 37.4120082,32.3381529 L37.3386127,32.9985787" id="Stroke-153" stroke="#FFBA40" stroke-width="0.908999991" stroke-linecap="round" stroke-linejoin="round"></path>
                    </g>
                    <g id="Group-157" transform="translate(21.622727, 2.122581)">
                        <polyline id="Fill-155" fill="#FFFFFF" points="35.5279073 32.45068 35.5279073 0.0388735484 0.164698182 0.0388735484 0.164698182 32.45068 0.284384545 32.3927639"></polyline>
                        <polyline id="Stroke-156" stroke="#FFBA40" stroke-width="0.908999991" points="35.5279073 32.45068 35.5279073 0.0388735484 0.164698182 0.0388735484 0.164698182 32.45068 0.284384545 32.3927639"></polyline>
                    </g>
                    <polygon id="Fill-158" fill="#FFDC9F" points="38.5088286 26.4750394 35.1609605 15.3703039 40.182915 10.0784071 44.6606468 13.8287039 41.2710559 26.870749"></polygon>
                    <polygon id="Stroke-159" stroke="#FFBA40" stroke-width="0.908999991" points="38.5088286 26.4750394 35.1609605 15.3703039 40.182915 10.0784071 44.6606468 13.8287039 41.2710559 26.870749"></polygon>
                    <g id="Group-162" transform="translate(35.936364, 25.167742)">
                        <path d="M0.13467,5.39972387 L1.75211091,0.854672258 C1.91778364,0.389220645 2.35998364,0.0781109677 2.85608818,0.0781109677 L4.89867455,0.0781109677 C5.36615182,0.0781109677 5.78916545,0.355259355 5.97432909,0.782807742 L7.97123364,5.39972387" id="Fill-160" fill="#FFDC9F"></path>
                        <path d="M0.13467,5.39972387 L1.75211091,0.854672258 C1.91778364,0.389220645 2.35998364,0.0781109677 2.85608818,0.0781109677 L4.89867455,0.0781109677 C5.36615182,0.0781109677 5.78916545,0.355259355 5.97432909,0.782807742 L7.97123364,5.39972387" id="Stroke-161" stroke="#FFBA40" stroke-width="0.908999991"></path>
                    </g>
                    <path d="M24.6437877,32.2044606 L31.5594059,24.5792413 L33.3379514,22.6622477 L39.3411514,30.5000284 C34.4857832,30.5151897 29.6322423,31.4039445 25.0250786,33.1687187 L24.6437877,32.2044606 Z" id="Fill-163" fill="#FFFFFF"></path>
                    <path d="M24.6437877,32.2044606 L31.5594059,24.5792413 L33.3379514,22.6622477 L39.3411514,30.5000284 C34.4857832,30.5151897 29.6322423,31.4039445 25.0250786,33.1687187 L24.6437877,32.2044606 Z" id="Stroke-164" stroke="#FFBA40" stroke-width="0.908999991"></path>
                    <path d="M46.0029005,22.662369 L47.7945414,24.5790594 L54.7168595,32.2045819 L54.2737459,33.3113561 C49.6784595,31.5001884 44.8297914,30.5647368 39.9716823,30.5043948 L46.0029005,22.662369 Z" id="Fill-165" fill="#FFFFFF"></path>
                    <path d="M46.0029005,22.662369 L47.7945414,24.5790594 L54.7168595,32.2045819 L54.2737459,33.3113561 C49.6784595,31.5001884 44.8297914,30.5647368 39.9716823,30.5043948 L46.0029005,22.662369 Z" id="Stroke-166" stroke="#FFBA40" stroke-width="0.908999991"></path>
                    <path d="M61.7541132,0.244733548 L56.0624632,0.244733548 L56.0624632,22.6218884 C56.0624632,25.1820239 54.9694495,27.6360303 53.0639086,29.354411 L56.8847359,33.5543916 C59.9795268,30.7635013 61.7541132,26.7791142 61.7541132,22.6218884 L61.7541132,0.244733548 Z" id="Fill-167" fill="#FFFFFF"></path>
                    <path d="M61.7541132,0.244733548 L56.0624632,0.244733548 L56.0624632,22.6218884 C56.0624632,25.1820239 54.9694495,27.6360303 53.0639086,29.354411 L56.8847359,33.5543916 C59.9795268,30.7635013 61.7541132,26.7791142 61.7541132,22.6218884 L61.7541132,0.244733548 Z" id="Stroke-168" stroke="#FFBA40" stroke-width="0.908999991"></path>
                    <g id="Group-171" transform="translate(28.322727, 60.038710)">
                        <path d="M29.2664832,1.74785419 L21.5660514,1.74785419 L23.3875377,0.231725161 L12.5716059,0.231725161 C8.23518318,0.231725161 4.10706955,2.0522929 1.22211045,5.27618968 L0.290810455,6.29624129 L29.2664832,6.29624129" id="Fill-169" fill="#FFDC9F"></path>
                        <path d="M29.2664832,1.74785419 L21.5660514,1.74785419 L23.3875377,0.231725161 L12.5716059,0.231725161 C8.23518318,0.231725161 4.10706955,2.0522929 1.22211045,5.27618968 L0.290810455,6.29624129 L29.2664832,6.29624129" id="Stroke-170" stroke="#FFBA40" stroke-width="0.605999994"></path>
                    </g>
                    <path d="M66.5612718,67.4987923 L57.8814218,73.0757213 L39.5228127,73.3983535 L39.5228127,73.4068439 L39.3416082,73.4025987 L39.1600991,73.4068439 L39.1600991,73.3983535 L20.7439309,73.0757213 L12.0354536,67.4987923 C11.4769173,67.1400761 11.6584264,66.2910439 12.3019309,66.126089 L12.3424355,66.1157794 C30.0529718,61.5786116 48.6290264,61.5822503 66.3377355,66.126089 C66.9815445,66.2910439 67.1198082,67.1400761 66.5612718,67.4987923" id="Fill-172" fill="#FFFFFF"></path>
                    <path d="M66.5612718,67.4987923 L57.8814218,73.0757213 L39.5228127,73.3983535 L39.5228127,73.4068439 L39.3416082,73.4025987 L39.1600991,73.4068439 L39.1600991,73.3983535 L20.7439309,73.0757213 L12.0354536,67.4987923 C11.4769173,67.1400761 11.6584264,66.2910439 12.3019309,66.126089 L12.3424355,66.1157794 C30.0529718,61.5786116 48.6290264,61.5822503 66.3377355,66.126089 C66.9815445,66.2910439 67.1198082,67.1400761 66.5612718,67.4987923 Z" id="Stroke-173" stroke="#FFBA40" stroke-width="0.908999991"></path>
                    <path d="M58.2334155,73.045611 C45.7781155,70.1928626 32.8349336,70.1928626 20.3796336,73.045611 L23.0273518,87.3760626 C23.5907609,91.1342432 26.8320382,93.9154303 30.6482973,93.9154303 L47.9644473,93.9154303 C51.7807064,93.9154303 55.0222882,91.1342432 55.5853927,87.3760626 L58.2334155,73.045611 Z" id="Fill-174" fill="#FFFFFF"></path>
                    <path d="M58.2334155,73.045611 C45.7781155,70.1928626 32.8349336,70.1928626 20.3796336,73.045611 L23.0273518,87.3760626 C23.5907609,91.1342432 26.8320382,93.9154303 30.6482973,93.9154303 L47.9644473,93.9154303 C51.7807064,93.9154303 55.0222882,91.1342432 55.5853927,87.3760626 L58.2334155,73.045611 Z" id="Stroke-175" stroke="#FFBA40" stroke-width="0.908999991"></path>
                    <g id="Group-178" transform="translate(21.013636, 74.593548)">
                        <path d="M36.6570095,2.09037806 C24.6192414,-0.567396129 12.144755,-0.567396129 0.106682273,2.09037806" id="Fill-176" fill="#FFFFFF"></path>
                        <path d="M36.6570095,2.09037806 C24.6192414,-0.567396129 12.144755,-0.567396129 0.106682273,2.09037806" id="Stroke-177" stroke="#FFBA40" stroke-width="0.908999991"></path>
                    </g>
                    <g id="Group-181" transform="translate(20.404545, 70.954839)">
                        <path d="M0.0640763636,2.20184387 C12.5193764,-0.650904516 25.4625582,-0.650904516 37.9178582,2.20184387" id="Fill-179" fill="#FFFFFF"></path>
                        <path d="M0.0640763636,2.20184387 C12.5193764,-0.650904516 25.4625582,-0.650904516 37.9178582,2.20184387" id="Stroke-180" stroke="#FFBA40" stroke-width="0.908999991"></path>
                    </g>
                    <path d="M34.3843391,39.9964542 L42.6524436,41.8673574 C43.7795664,42.1223703 44.9502391,41.6805703 45.6245027,40.7460284 L46.1650709,39.9964542" id="Stroke-182" stroke="#FFBA40" stroke-width="0.908999991" stroke-linecap="round"></path>
                    <path d="M38.2345245,36.9546748 C38.2345245,37.8983135 39.0025882,38.663049 39.9503336,38.663049 C40.8980791,38.663049 41.6661427,37.8983135 41.6661427,36.9546748" id="Stroke-183" stroke="#FFBA40" stroke-width="0.908999991" stroke-linecap="round"></path>
                    <path d="M56.6755741,34.573291 C56.6755741,32.693291 48.6748605,31.4652265 44.5187286,30.8860652 C44.5287786,30.8748458 44.4937559,30.8648394 44.4937559,30.85362 L44.4937559,20.7052587 C44.4937559,18.1363297 43.0636105,15.8839684 40.5763877,15.2017103 L39.4635786,14.8566394 L38.1247968,15.2017103 C35.6372695,15.8839684 33.834665,18.1363297 33.834665,20.7052587 L33.834665,30.8530135 C29.5710286,31.4115555 25.5894014,32.6305232 21.6872605,34.5153748 L21.6528468,34.573291 L21.6528468,2.05111032 L56.6755741,2.05111032 L56.6755741,34.573291 Z" id="Fill-186" fill="#FFFFFF"></path>
                    <path d="M21.6872605,34.5154052 L21.6528468,34.5733213 L21.6528468,2.05114065 L23.4801195,2.05114065 L23.4801195,33.7045794 C23.1755741,33.9611084 22.2823423,34.2279471 21.6872605,34.5154052" id="Fill-187" fill="#EDEDED"></path>
                    <path d="M56.8278468,34.573291 C56.8278468,32.693291 48.8271332,31.4652265 44.6710014,30.8860652 C44.6810514,30.8748458 44.6460286,30.8648394 44.6460286,30.85362 L44.6460286,20.7052587 C44.6460286,18.1363297 43.1397468,15.8839684 40.6525241,15.2017103 L39.5016468,14.8566394 L38.219815,15.2017103 C35.7325923,15.8839684 33.9869377,18.1363297 33.9869377,20.7052587 L33.9869377,30.8530135 C29.7233014,31.4115555 25.7416741,32.6305232 21.8395332,34.5153748 L21.8051195,34.573291 L21.8051195,2.20272323 L56.8278468,2.20272323 L56.8278468,34.573291 Z" id="Stroke-188" stroke="#FFBA40" stroke-width="0.908999991"></path>
                    <path d="M34.1400023,30.85362 C29.9409295,31.410949 25.8091614,32.6305232 21.907325,34.5153748 L21.7873341,34.573291 L21.7020614,34.5144652 L20.6401114,31.1905039 L30.5762114,24.3782329 L34.1400023,30.85362 Z" id="Fill-189" fill="#FFFFFF"></path>
                    <path d="M34.1400023,30.85362 C29.9409295,31.410949 25.8091614,32.6305232 21.907325,34.5153748 L21.7873341,34.573291 L21.7020614,34.5144652 L20.6401114,31.1905039 L30.5762114,24.3782329 L34.1400023,30.85362 Z" id="Stroke-190" stroke="#FFBA40" stroke-width="0.908999991"></path>
                    <path d="M45.0803105,30.85362 C49.2793832,31.410949 53.4111514,32.6305232 57.3129877,34.5153748 L57.4329786,34.573291 L57.5182514,34.5144652 L58.5802014,31.1905039 L48.6441014,24.3782329 L45.0803105,30.85362 Z" id="Fill-191" fill="#FFFFFF"></path>
                    <path d="M45.0803105,30.85362 C49.2793832,31.410949 53.4111514,32.6305232 57.3129877,34.5153748 L57.4329786,34.573291 L57.5182514,34.5144652 L58.5802014,31.1905039 L48.6441014,24.3782329 L45.0803105,30.85362 Z" id="Stroke-192" stroke="#FFBA40" stroke-width="0.908999991"></path>
                    <g id="Group-195" transform="translate(39.286364, 2.122581)"></g>
                    <path d="M31.3983014,52 L34.4437559,52" id="Eye" stroke="#FFBA40" stroke-linecap="round"></path>
                    <path d="M45.7119377,52 L48.7573923,52" id="Eye" stroke="#FFBA40" stroke-linecap="round"></path>
                </g>
            </g>
        </g>
    </g>
</svg>