<?xml version="1.0" encoding="UTF-8"?>
<svg width="318px" height="80px" viewBox="0 0 318 80" version="1.1" xmlns="http://www.w3.org/2000/svg" xmlns:xlink="http://www.w3.org/1999/xlink">
    <!-- Generator: Sketch 48.2 (47327) - http://www.bohemiancoding.com/sketch -->
    <title>Graphic - Wicket</title>
    <desc>Created with Sketch.</desc>
    <defs></defs>
    <g id="SP---Privacy-Policy" stroke="none" stroke-width="1" fill="none" fill-rule="evenodd" transform="translate(0.000000, -720.000000)" stroke-linecap="round">
        <g id="Side-Menu-Copy" transform="translate(-1.000000, 111.000000)" stroke="#7898FF" stroke-width="2.196">
            <g id="Graphic---Wicket" transform="translate(159.000000, 650.000000) scale(1, -1) translate(-159.000000, -650.000000) translate(0.000000, 611.000000)">
                <path d="M297.7506,2.2332 L317.6386,2.2332" id="Stroke-1"></path>
                <path d="M36.1238,0.9113 L239.5988,0.9113 L240.0558,2.4733 C242.6548,11.3513 255.2908,11.1783 257.6458,2.2333 L286.5828,2.2333" id="Stroke-3"></path>
                <path d="M1.4172,0.9113 L1.8072,0.9113" id="Stroke-9"></path>
                <path d="M8.8265,0.9113 L27.7395,0.9113" id="Stroke-6"></path>
                <path d="M96.8613,48.2913 L284.680309,48.2913" id="Stroke-19"></path>
                <path d="M0.0468,48.2913 L50.8298,48.2913" id="Stroke-22"></path>
                <path d="M91.7754,0.9113 L91.7754,75.4943 C91.7754,76.8423 90.6824,77.9353 89.3344,77.9353 L57.9494,77.9353 C56.6024,77.9353 55.5094,76.8423 55.5094,75.4943 L55.5094,0.9113" id="Stroke-25"></path>
                <path d="M73.6423,77.6597 L73.6423,2.2337" id="Stroke-28"></path>
            </g>
        </g>
    </g>
</svg>